<?xml version="1.0" encoding="utf-8" standalone="no"?>
<!DOCTYPE svg PUBLIC "-//W3C//DTD SVG 1.1//EN"
  "http://www.w3.org/Graphics/SVG/1.1/DTD/svg11.dtd">
<!-- Created with matplotlib (https://matplotlib.org/) -->
<svg height="345.6pt" version="1.1" viewBox="0 0 460.8 345.6" width="460.8pt" xmlns="http://www.w3.org/2000/svg" xmlns:xlink="http://www.w3.org/1999/xlink">
 <defs>
  <style type="text/css">
*{stroke-linecap:butt;stroke-linejoin:round;}
  </style>
 </defs>
 <g id="figure_1">
  <g id="patch_1">
   <path d="M 0 345.6 
L 460.8 345.6 
L 460.8 0 
L 0 0 
z
" style="fill:#ffffff;"/>
  </g>
  <g id="axes_1">
   <g id="patch_2">
    <path d="M 57.6 307.584 
L 414.72 307.584 
L 414.72 41.472 
L 57.6 41.472 
z
" style="fill:#e5e5e5;"/>
   </g>
   <g id="matplotlib.axis_1">
    <g id="xtick_1">
     <g id="line2d_1">
      <path clip-path="url(#p10efd51938)" d="M 73.832727 307.584 
L 73.832727 41.472 
" style="fill:none;stroke:#ffffff;stroke-linecap:square;stroke-width:0.8;"/>
     </g>
     <g id="line2d_2">
      <defs>
       <path d="M 0 0 
L 0 3.5 
" id="m1b935609a5" style="stroke:#555555;stroke-width:0.8;"/>
      </defs>
      <g>
       <use style="fill:#555555;stroke:#555555;stroke-width:0.8;" x="73.832727" xlink:href="#m1b935609a5" y="307.584"/>
      </g>
     </g>
     <g id="text_1">
      <!-- 0 -->
      <defs>
       <path d="M 31.78125 66.40625 
Q 24.171875 66.40625 20.328125 58.90625 
Q 16.5 51.421875 16.5 36.375 
Q 16.5 21.390625 20.328125 13.890625 
Q 24.171875 6.390625 31.78125 6.390625 
Q 39.453125 6.390625 43.28125 13.890625 
Q 47.125 21.390625 47.125 36.375 
Q 47.125 51.421875 43.28125 58.90625 
Q 39.453125 66.40625 31.78125 66.40625 
z
M 31.78125 74.21875 
Q 44.046875 74.21875 50.515625 64.515625 
Q 56.984375 54.828125 56.984375 36.375 
Q 56.984375 17.96875 50.515625 8.265625 
Q 44.046875 -1.421875 31.78125 -1.421875 
Q 19.53125 -1.421875 13.0625 8.265625 
Q 6.59375 17.96875 6.59375 36.375 
Q 6.59375 54.828125 13.0625 64.515625 
Q 19.53125 74.21875 31.78125 74.21875 
z
" id="DejaVuSans-48"/>
      </defs>
      <g style="fill:#555555;" transform="translate(70.651477 322.182437)scale(0.1 -0.1)">
       <use xlink:href="#DejaVuSans-48"/>
      </g>
     </g>
    </g>
    <g id="xtick_2">
     <g id="line2d_3">
      <path clip-path="url(#p10efd51938)" d="M 138.893758 307.584 
L 138.893758 41.472 
" style="fill:none;stroke:#ffffff;stroke-linecap:square;stroke-width:0.8;"/>
     </g>
     <g id="line2d_4">
      <g>
       <use style="fill:#555555;stroke:#555555;stroke-width:0.8;" x="138.893758" xlink:href="#m1b935609a5" y="307.584"/>
      </g>
     </g>
     <g id="text_2">
      <!-- 100 -->
      <defs>
       <path d="M 12.40625 8.296875 
L 28.515625 8.296875 
L 28.515625 63.921875 
L 10.984375 60.40625 
L 10.984375 69.390625 
L 28.421875 72.90625 
L 38.28125 72.90625 
L 38.28125 8.296875 
L 54.390625 8.296875 
L 54.390625 0 
L 12.40625 0 
z
" id="DejaVuSans-49"/>
      </defs>
      <g style="fill:#555555;" transform="translate(129.350008 322.182437)scale(0.1 -0.1)">
       <use xlink:href="#DejaVuSans-49"/>
       <use x="63.623047" xlink:href="#DejaVuSans-48"/>
       <use x="127.246094" xlink:href="#DejaVuSans-48"/>
      </g>
     </g>
    </g>
    <g id="xtick_3">
     <g id="line2d_5">
      <path clip-path="url(#p10efd51938)" d="M 203.95479 307.584 
L 203.95479 41.472 
" style="fill:none;stroke:#ffffff;stroke-linecap:square;stroke-width:0.8;"/>
     </g>
     <g id="line2d_6">
      <g>
       <use style="fill:#555555;stroke:#555555;stroke-width:0.8;" x="203.95479" xlink:href="#m1b935609a5" y="307.584"/>
      </g>
     </g>
     <g id="text_3">
      <!-- 200 -->
      <defs>
       <path d="M 19.1875 8.296875 
L 53.609375 8.296875 
L 53.609375 0 
L 7.328125 0 
L 7.328125 8.296875 
Q 12.9375 14.109375 22.625 23.890625 
Q 32.328125 33.6875 34.8125 36.53125 
Q 39.546875 41.84375 41.421875 45.53125 
Q 43.3125 49.21875 43.3125 52.78125 
Q 43.3125 58.59375 39.234375 62.25 
Q 35.15625 65.921875 28.609375 65.921875 
Q 23.96875 65.921875 18.8125 64.3125 
Q 13.671875 62.703125 7.8125 59.421875 
L 7.8125 69.390625 
Q 13.765625 71.78125 18.9375 73 
Q 24.125 74.21875 28.421875 74.21875 
Q 39.75 74.21875 46.484375 68.546875 
Q 53.21875 62.890625 53.21875 53.421875 
Q 53.21875 48.921875 51.53125 44.890625 
Q 49.859375 40.875 45.40625 35.40625 
Q 44.1875 33.984375 37.640625 27.21875 
Q 31.109375 20.453125 19.1875 8.296875 
z
" id="DejaVuSans-50"/>
      </defs>
      <g style="fill:#555555;" transform="translate(194.41104 322.182437)scale(0.1 -0.1)">
       <use xlink:href="#DejaVuSans-50"/>
       <use x="63.623047" xlink:href="#DejaVuSans-48"/>
       <use x="127.246094" xlink:href="#DejaVuSans-48"/>
      </g>
     </g>
    </g>
    <g id="xtick_4">
     <g id="line2d_7">
      <path clip-path="url(#p10efd51938)" d="M 269.015821 307.584 
L 269.015821 41.472 
" style="fill:none;stroke:#ffffff;stroke-linecap:square;stroke-width:0.8;"/>
     </g>
     <g id="line2d_8">
      <g>
       <use style="fill:#555555;stroke:#555555;stroke-width:0.8;" x="269.015821" xlink:href="#m1b935609a5" y="307.584"/>
      </g>
     </g>
     <g id="text_4">
      <!-- 300 -->
      <defs>
       <path d="M 40.578125 39.3125 
Q 47.65625 37.796875 51.625 33 
Q 55.609375 28.21875 55.609375 21.1875 
Q 55.609375 10.40625 48.1875 4.484375 
Q 40.765625 -1.421875 27.09375 -1.421875 
Q 22.515625 -1.421875 17.65625 -0.515625 
Q 12.796875 0.390625 7.625 2.203125 
L 7.625 11.71875 
Q 11.71875 9.328125 16.59375 8.109375 
Q 21.484375 6.890625 26.8125 6.890625 
Q 36.078125 6.890625 40.9375 10.546875 
Q 45.796875 14.203125 45.796875 21.1875 
Q 45.796875 27.640625 41.28125 31.265625 
Q 36.765625 34.90625 28.71875 34.90625 
L 20.21875 34.90625 
L 20.21875 43.015625 
L 29.109375 43.015625 
Q 36.375 43.015625 40.234375 45.921875 
Q 44.09375 48.828125 44.09375 54.296875 
Q 44.09375 59.90625 40.109375 62.90625 
Q 36.140625 65.921875 28.71875 65.921875 
Q 24.65625 65.921875 20.015625 65.03125 
Q 15.375 64.15625 9.8125 62.3125 
L 9.8125 71.09375 
Q 15.4375 72.65625 20.34375 73.4375 
Q 25.25 74.21875 29.59375 74.21875 
Q 40.828125 74.21875 47.359375 69.109375 
Q 53.90625 64.015625 53.90625 55.328125 
Q 53.90625 49.265625 50.4375 45.09375 
Q 46.96875 40.921875 40.578125 39.3125 
z
" id="DejaVuSans-51"/>
      </defs>
      <g style="fill:#555555;" transform="translate(259.472071 322.182437)scale(0.1 -0.1)">
       <use xlink:href="#DejaVuSans-51"/>
       <use x="63.623047" xlink:href="#DejaVuSans-48"/>
       <use x="127.246094" xlink:href="#DejaVuSans-48"/>
      </g>
     </g>
    </g>
    <g id="xtick_5">
     <g id="line2d_9">
      <path clip-path="url(#p10efd51938)" d="M 334.076852 307.584 
L 334.076852 41.472 
" style="fill:none;stroke:#ffffff;stroke-linecap:square;stroke-width:0.8;"/>
     </g>
     <g id="line2d_10">
      <g>
       <use style="fill:#555555;stroke:#555555;stroke-width:0.8;" x="334.076852" xlink:href="#m1b935609a5" y="307.584"/>
      </g>
     </g>
     <g id="text_5">
      <!-- 400 -->
      <defs>
       <path d="M 37.796875 64.3125 
L 12.890625 25.390625 
L 37.796875 25.390625 
z
M 35.203125 72.90625 
L 47.609375 72.90625 
L 47.609375 25.390625 
L 58.015625 25.390625 
L 58.015625 17.1875 
L 47.609375 17.1875 
L 47.609375 0 
L 37.796875 0 
L 37.796875 17.1875 
L 4.890625 17.1875 
L 4.890625 26.703125 
z
" id="DejaVuSans-52"/>
      </defs>
      <g style="fill:#555555;" transform="translate(324.533102 322.182437)scale(0.1 -0.1)">
       <use xlink:href="#DejaVuSans-52"/>
       <use x="63.623047" xlink:href="#DejaVuSans-48"/>
       <use x="127.246094" xlink:href="#DejaVuSans-48"/>
      </g>
     </g>
    </g>
    <g id="xtick_6">
     <g id="line2d_11">
      <path clip-path="url(#p10efd51938)" d="M 399.137883 307.584 
L 399.137883 41.472 
" style="fill:none;stroke:#ffffff;stroke-linecap:square;stroke-width:0.8;"/>
     </g>
     <g id="line2d_12">
      <g>
       <use style="fill:#555555;stroke:#555555;stroke-width:0.8;" x="399.137883" xlink:href="#m1b935609a5" y="307.584"/>
      </g>
     </g>
     <g id="text_6">
      <!-- 500 -->
      <defs>
       <path d="M 10.796875 72.90625 
L 49.515625 72.90625 
L 49.515625 64.59375 
L 19.828125 64.59375 
L 19.828125 46.734375 
Q 21.96875 47.46875 24.109375 47.828125 
Q 26.265625 48.1875 28.421875 48.1875 
Q 40.625 48.1875 47.75 41.5 
Q 54.890625 34.8125 54.890625 23.390625 
Q 54.890625 11.625 47.5625 5.09375 
Q 40.234375 -1.421875 26.90625 -1.421875 
Q 22.3125 -1.421875 17.546875 -0.640625 
Q 12.796875 0.140625 7.71875 1.703125 
L 7.71875 11.625 
Q 12.109375 9.234375 16.796875 8.0625 
Q 21.484375 6.890625 26.703125 6.890625 
Q 35.15625 6.890625 40.078125 11.328125 
Q 45.015625 15.765625 45.015625 23.390625 
Q 45.015625 31 40.078125 35.4375 
Q 35.15625 39.890625 26.703125 39.890625 
Q 22.75 39.890625 18.8125 39.015625 
Q 14.890625 38.140625 10.796875 36.28125 
z
" id="DejaVuSans-53"/>
      </defs>
      <g style="fill:#555555;" transform="translate(389.594133 322.182437)scale(0.1 -0.1)">
       <use xlink:href="#DejaVuSans-53"/>
       <use x="63.623047" xlink:href="#DejaVuSans-48"/>
       <use x="127.246094" xlink:href="#DejaVuSans-48"/>
      </g>
     </g>
    </g>
    <g id="text_7">
     <!-- Epoch -->
     <defs>
      <path d="M 9.8125 72.90625 
L 55.90625 72.90625 
L 55.90625 64.59375 
L 19.671875 64.59375 
L 19.671875 43.015625 
L 54.390625 43.015625 
L 54.390625 34.71875 
L 19.671875 34.71875 
L 19.671875 8.296875 
L 56.78125 8.296875 
L 56.78125 0 
L 9.8125 0 
z
" id="DejaVuSans-69"/>
      <path d="M 18.109375 8.203125 
L 18.109375 -20.796875 
L 9.078125 -20.796875 
L 9.078125 54.6875 
L 18.109375 54.6875 
L 18.109375 46.390625 
Q 20.953125 51.265625 25.265625 53.625 
Q 29.59375 56 35.59375 56 
Q 45.5625 56 51.78125 48.09375 
Q 58.015625 40.1875 58.015625 27.296875 
Q 58.015625 14.40625 51.78125 6.484375 
Q 45.5625 -1.421875 35.59375 -1.421875 
Q 29.59375 -1.421875 25.265625 0.953125 
Q 20.953125 3.328125 18.109375 8.203125 
z
M 48.6875 27.296875 
Q 48.6875 37.203125 44.609375 42.84375 
Q 40.53125 48.484375 33.40625 48.484375 
Q 26.265625 48.484375 22.1875 42.84375 
Q 18.109375 37.203125 18.109375 27.296875 
Q 18.109375 17.390625 22.1875 11.75 
Q 26.265625 6.109375 33.40625 6.109375 
Q 40.53125 6.109375 44.609375 11.75 
Q 48.6875 17.390625 48.6875 27.296875 
z
" id="DejaVuSans-112"/>
      <path d="M 30.609375 48.390625 
Q 23.390625 48.390625 19.1875 42.75 
Q 14.984375 37.109375 14.984375 27.296875 
Q 14.984375 17.484375 19.15625 11.84375 
Q 23.34375 6.203125 30.609375 6.203125 
Q 37.796875 6.203125 41.984375 11.859375 
Q 46.1875 17.53125 46.1875 27.296875 
Q 46.1875 37.015625 41.984375 42.703125 
Q 37.796875 48.390625 30.609375 48.390625 
z
M 30.609375 56 
Q 42.328125 56 49.015625 48.375 
Q 55.71875 40.765625 55.71875 27.296875 
Q 55.71875 13.875 49.015625 6.21875 
Q 42.328125 -1.421875 30.609375 -1.421875 
Q 18.84375 -1.421875 12.171875 6.21875 
Q 5.515625 13.875 5.515625 27.296875 
Q 5.515625 40.765625 12.171875 48.375 
Q 18.84375 56 30.609375 56 
z
" id="DejaVuSans-111"/>
      <path d="M 48.78125 52.59375 
L 48.78125 44.1875 
Q 44.96875 46.296875 41.140625 47.34375 
Q 37.3125 48.390625 33.40625 48.390625 
Q 24.65625 48.390625 19.8125 42.84375 
Q 14.984375 37.3125 14.984375 27.296875 
Q 14.984375 17.28125 19.8125 11.734375 
Q 24.65625 6.203125 33.40625 6.203125 
Q 37.3125 6.203125 41.140625 7.25 
Q 44.96875 8.296875 48.78125 10.40625 
L 48.78125 2.09375 
Q 45.015625 0.34375 40.984375 -0.53125 
Q 36.96875 -1.421875 32.421875 -1.421875 
Q 20.0625 -1.421875 12.78125 6.34375 
Q 5.515625 14.109375 5.515625 27.296875 
Q 5.515625 40.671875 12.859375 48.328125 
Q 20.21875 56 33.015625 56 
Q 37.15625 56 41.109375 55.140625 
Q 45.0625 54.296875 48.78125 52.59375 
z
" id="DejaVuSans-99"/>
      <path d="M 54.890625 33.015625 
L 54.890625 0 
L 45.90625 0 
L 45.90625 32.71875 
Q 45.90625 40.484375 42.875 44.328125 
Q 39.84375 48.1875 33.796875 48.1875 
Q 26.515625 48.1875 22.3125 43.546875 
Q 18.109375 38.921875 18.109375 30.90625 
L 18.109375 0 
L 9.078125 0 
L 9.078125 75.984375 
L 18.109375 75.984375 
L 18.109375 46.1875 
Q 21.34375 51.125 25.703125 53.5625 
Q 30.078125 56 35.796875 56 
Q 45.21875 56 50.046875 50.171875 
Q 54.890625 44.34375 54.890625 33.015625 
z
" id="DejaVuSans-104"/>
     </defs>
     <g style="fill:#555555;" transform="translate(205.538125 343.459)scale(0.2 -0.2)">
      <use xlink:href="#DejaVuSans-69"/>
      <use x="63.183594" xlink:href="#DejaVuSans-112"/>
      <use x="126.660156" xlink:href="#DejaVuSans-111"/>
      <use x="187.841797" xlink:href="#DejaVuSans-99"/>
      <use x="242.822266" xlink:href="#DejaVuSans-104"/>
     </g>
    </g>
   </g>
   <g id="matplotlib.axis_2">
    <g id="ytick_1">
     <g id="line2d_13">
      <path clip-path="url(#p10efd51938)" d="M 57.6 299.743397 
L 414.72 299.743397 
" style="fill:none;stroke:#ffffff;stroke-linecap:square;stroke-width:0.8;"/>
     </g>
     <g id="line2d_14">
      <defs>
       <path d="M 0 0 
L -3.5 0 
" id="meeedf9ab01" style="stroke:#555555;stroke-width:0.8;"/>
      </defs>
      <g>
       <use style="fill:#555555;stroke:#555555;stroke-width:0.8;" x="57.6" xlink:href="#meeedf9ab01" y="299.743397"/>
      </g>
     </g>
     <g id="text_8">
      <!-- 0.89 -->
      <defs>
       <path d="M 10.6875 12.40625 
L 21 12.40625 
L 21 0 
L 10.6875 0 
z
" id="DejaVuSans-46"/>
       <path d="M 31.78125 34.625 
Q 24.75 34.625 20.71875 30.859375 
Q 16.703125 27.09375 16.703125 20.515625 
Q 16.703125 13.921875 20.71875 10.15625 
Q 24.75 6.390625 31.78125 6.390625 
Q 38.8125 6.390625 42.859375 10.171875 
Q 46.921875 13.96875 46.921875 20.515625 
Q 46.921875 27.09375 42.890625 30.859375 
Q 38.875 34.625 31.78125 34.625 
z
M 21.921875 38.8125 
Q 15.578125 40.375 12.03125 44.71875 
Q 8.5 49.078125 8.5 55.328125 
Q 8.5 64.0625 14.71875 69.140625 
Q 20.953125 74.21875 31.78125 74.21875 
Q 42.671875 74.21875 48.875 69.140625 
Q 55.078125 64.0625 55.078125 55.328125 
Q 55.078125 49.078125 51.53125 44.71875 
Q 48 40.375 41.703125 38.8125 
Q 48.828125 37.15625 52.796875 32.3125 
Q 56.78125 27.484375 56.78125 20.515625 
Q 56.78125 9.90625 50.3125 4.234375 
Q 43.84375 -1.421875 31.78125 -1.421875 
Q 19.734375 -1.421875 13.25 4.234375 
Q 6.78125 9.90625 6.78125 20.515625 
Q 6.78125 27.484375 10.78125 32.3125 
Q 14.796875 37.15625 21.921875 38.8125 
z
M 18.3125 54.390625 
Q 18.3125 48.734375 21.84375 45.5625 
Q 25.390625 42.390625 31.78125 42.390625 
Q 38.140625 42.390625 41.71875 45.5625 
Q 45.3125 48.734375 45.3125 54.390625 
Q 45.3125 60.0625 41.71875 63.234375 
Q 38.140625 66.40625 31.78125 66.40625 
Q 25.390625 66.40625 21.84375 63.234375 
Q 18.3125 60.0625 18.3125 54.390625 
z
" id="DejaVuSans-56"/>
       <path d="M 10.984375 1.515625 
L 10.984375 10.5 
Q 14.703125 8.734375 18.5 7.8125 
Q 22.3125 6.890625 25.984375 6.890625 
Q 35.75 6.890625 40.890625 13.453125 
Q 46.046875 20.015625 46.78125 33.40625 
Q 43.953125 29.203125 39.59375 26.953125 
Q 35.25 24.703125 29.984375 24.703125 
Q 19.046875 24.703125 12.671875 31.3125 
Q 6.296875 37.9375 6.296875 49.421875 
Q 6.296875 60.640625 12.9375 67.421875 
Q 19.578125 74.21875 30.609375 74.21875 
Q 43.265625 74.21875 49.921875 64.515625 
Q 56.59375 54.828125 56.59375 36.375 
Q 56.59375 19.140625 48.40625 8.859375 
Q 40.234375 -1.421875 26.421875 -1.421875 
Q 22.703125 -1.421875 18.890625 -0.6875 
Q 15.09375 0.046875 10.984375 1.515625 
z
M 30.609375 32.421875 
Q 37.25 32.421875 41.125 36.953125 
Q 45.015625 41.5 45.015625 49.421875 
Q 45.015625 57.28125 41.125 61.84375 
Q 37.25 66.40625 30.609375 66.40625 
Q 23.96875 66.40625 20.09375 61.84375 
Q 16.21875 57.28125 16.21875 49.421875 
Q 16.21875 41.5 20.09375 36.953125 
Q 23.96875 32.421875 30.609375 32.421875 
z
" id="DejaVuSans-57"/>
      </defs>
      <g style="fill:#555555;" transform="translate(28.334375 303.542615)scale(0.1 -0.1)">
       <use xlink:href="#DejaVuSans-48"/>
       <use x="63.623047" xlink:href="#DejaVuSans-46"/>
       <use x="95.410156" xlink:href="#DejaVuSans-56"/>
       <use x="159.033203" xlink:href="#DejaVuSans-57"/>
      </g>
     </g>
    </g>
    <g id="ytick_2">
     <g id="line2d_15">
      <path clip-path="url(#p10efd51938)" d="M 57.6 260.891285 
L 414.72 260.891285 
" style="fill:none;stroke:#ffffff;stroke-linecap:square;stroke-width:0.8;"/>
     </g>
     <g id="line2d_16">
      <g>
       <use style="fill:#555555;stroke:#555555;stroke-width:0.8;" x="57.6" xlink:href="#meeedf9ab01" y="260.891285"/>
      </g>
     </g>
     <g id="text_9">
      <!-- 0.90 -->
      <g style="fill:#555555;" transform="translate(28.334375 264.690504)scale(0.1 -0.1)">
       <use xlink:href="#DejaVuSans-48"/>
       <use x="63.623047" xlink:href="#DejaVuSans-46"/>
       <use x="95.410156" xlink:href="#DejaVuSans-57"/>
       <use x="159.033203" xlink:href="#DejaVuSans-48"/>
      </g>
     </g>
    </g>
    <g id="ytick_3">
     <g id="line2d_17">
      <path clip-path="url(#p10efd51938)" d="M 57.6 222.039174 
L 414.72 222.039174 
" style="fill:none;stroke:#ffffff;stroke-linecap:square;stroke-width:0.8;"/>
     </g>
     <g id="line2d_18">
      <g>
       <use style="fill:#555555;stroke:#555555;stroke-width:0.8;" x="57.6" xlink:href="#meeedf9ab01" y="222.039174"/>
      </g>
     </g>
     <g id="text_10">
      <!-- 0.91 -->
      <g style="fill:#555555;" transform="translate(28.334375 225.838393)scale(0.1 -0.1)">
       <use xlink:href="#DejaVuSans-48"/>
       <use x="63.623047" xlink:href="#DejaVuSans-46"/>
       <use x="95.410156" xlink:href="#DejaVuSans-57"/>
       <use x="159.033203" xlink:href="#DejaVuSans-49"/>
      </g>
     </g>
    </g>
    <g id="ytick_4">
     <g id="line2d_19">
      <path clip-path="url(#p10efd51938)" d="M 57.6 183.187062 
L 414.72 183.187062 
" style="fill:none;stroke:#ffffff;stroke-linecap:square;stroke-width:0.8;"/>
     </g>
     <g id="line2d_20">
      <g>
       <use style="fill:#555555;stroke:#555555;stroke-width:0.8;" x="57.6" xlink:href="#meeedf9ab01" y="183.187062"/>
      </g>
     </g>
     <g id="text_11">
      <!-- 0.92 -->
      <g style="fill:#555555;" transform="translate(28.334375 186.986281)scale(0.1 -0.1)">
       <use xlink:href="#DejaVuSans-48"/>
       <use x="63.623047" xlink:href="#DejaVuSans-46"/>
       <use x="95.410156" xlink:href="#DejaVuSans-57"/>
       <use x="159.033203" xlink:href="#DejaVuSans-50"/>
      </g>
     </g>
    </g>
    <g id="ytick_5">
     <g id="line2d_21">
      <path clip-path="url(#p10efd51938)" d="M 57.6 144.334951 
L 414.72 144.334951 
" style="fill:none;stroke:#ffffff;stroke-linecap:square;stroke-width:0.8;"/>
     </g>
     <g id="line2d_22">
      <g>
       <use style="fill:#555555;stroke:#555555;stroke-width:0.8;" x="57.6" xlink:href="#meeedf9ab01" y="144.334951"/>
      </g>
     </g>
     <g id="text_12">
      <!-- 0.93 -->
      <g style="fill:#555555;" transform="translate(28.334375 148.13417)scale(0.1 -0.1)">
       <use xlink:href="#DejaVuSans-48"/>
       <use x="63.623047" xlink:href="#DejaVuSans-46"/>
       <use x="95.410156" xlink:href="#DejaVuSans-57"/>
       <use x="159.033203" xlink:href="#DejaVuSans-51"/>
      </g>
     </g>
    </g>
    <g id="ytick_6">
     <g id="line2d_23">
      <path clip-path="url(#p10efd51938)" d="M 57.6 105.48284 
L 414.72 105.48284 
" style="fill:none;stroke:#ffffff;stroke-linecap:square;stroke-width:0.8;"/>
     </g>
     <g id="line2d_24">
      <g>
       <use style="fill:#555555;stroke:#555555;stroke-width:0.8;" x="57.6" xlink:href="#meeedf9ab01" y="105.48284"/>
      </g>
     </g>
     <g id="text_13">
      <!-- 0.94 -->
      <g style="fill:#555555;" transform="translate(28.334375 109.282058)scale(0.1 -0.1)">
       <use xlink:href="#DejaVuSans-48"/>
       <use x="63.623047" xlink:href="#DejaVuSans-46"/>
       <use x="95.410156" xlink:href="#DejaVuSans-57"/>
       <use x="159.033203" xlink:href="#DejaVuSans-52"/>
      </g>
     </g>
    </g>
    <g id="ytick_7">
     <g id="line2d_25">
      <path clip-path="url(#p10efd51938)" d="M 57.6 66.630728 
L 414.72 66.630728 
" style="fill:none;stroke:#ffffff;stroke-linecap:square;stroke-width:0.8;"/>
     </g>
     <g id="line2d_26">
      <g>
       <use style="fill:#555555;stroke:#555555;stroke-width:0.8;" x="57.6" xlink:href="#meeedf9ab01" y="66.630728"/>
      </g>
     </g>
     <g id="text_14">
      <!-- 0.95 -->
      <g style="fill:#555555;" transform="translate(28.334375 70.429947)scale(0.1 -0.1)">
       <use xlink:href="#DejaVuSans-48"/>
       <use x="63.623047" xlink:href="#DejaVuSans-46"/>
       <use x="95.410156" xlink:href="#DejaVuSans-57"/>
       <use x="159.033203" xlink:href="#DejaVuSans-53"/>
      </g>
     </g>
    </g>
    <g id="text_15">
     <!-- Accuracy -->
     <defs>
      <path d="M 34.1875 63.1875 
L 20.796875 26.90625 
L 47.609375 26.90625 
z
M 28.609375 72.90625 
L 39.796875 72.90625 
L 67.578125 0 
L 57.328125 0 
L 50.6875 18.703125 
L 17.828125 18.703125 
L 11.1875 0 
L 0.78125 0 
z
" id="DejaVuSans-65"/>
      <path d="M 8.5 21.578125 
L 8.5 54.6875 
L 17.484375 54.6875 
L 17.484375 21.921875 
Q 17.484375 14.15625 20.5 10.265625 
Q 23.53125 6.390625 29.59375 6.390625 
Q 36.859375 6.390625 41.078125 11.03125 
Q 45.3125 15.671875 45.3125 23.6875 
L 45.3125 54.6875 
L 54.296875 54.6875 
L 54.296875 0 
L 45.3125 0 
L 45.3125 8.40625 
Q 42.046875 3.421875 37.71875 1 
Q 33.40625 -1.421875 27.6875 -1.421875 
Q 18.265625 -1.421875 13.375 4.4375 
Q 8.5 10.296875 8.5 21.578125 
z
M 31.109375 56 
z
" id="DejaVuSans-117"/>
      <path d="M 41.109375 46.296875 
Q 39.59375 47.171875 37.8125 47.578125 
Q 36.03125 48 33.890625 48 
Q 26.265625 48 22.1875 43.046875 
Q 18.109375 38.09375 18.109375 28.8125 
L 18.109375 0 
L 9.078125 0 
L 9.078125 54.6875 
L 18.109375 54.6875 
L 18.109375 46.1875 
Q 20.953125 51.171875 25.484375 53.578125 
Q 30.03125 56 36.53125 56 
Q 37.453125 56 38.578125 55.875 
Q 39.703125 55.765625 41.0625 55.515625 
z
" id="DejaVuSans-114"/>
      <path d="M 34.28125 27.484375 
Q 23.390625 27.484375 19.1875 25 
Q 14.984375 22.515625 14.984375 16.5 
Q 14.984375 11.71875 18.140625 8.90625 
Q 21.296875 6.109375 26.703125 6.109375 
Q 34.1875 6.109375 38.703125 11.40625 
Q 43.21875 16.703125 43.21875 25.484375 
L 43.21875 27.484375 
z
M 52.203125 31.203125 
L 52.203125 0 
L 43.21875 0 
L 43.21875 8.296875 
Q 40.140625 3.328125 35.546875 0.953125 
Q 30.953125 -1.421875 24.3125 -1.421875 
Q 15.921875 -1.421875 10.953125 3.296875 
Q 6 8.015625 6 15.921875 
Q 6 25.140625 12.171875 29.828125 
Q 18.359375 34.515625 30.609375 34.515625 
L 43.21875 34.515625 
L 43.21875 35.40625 
Q 43.21875 41.609375 39.140625 45 
Q 35.0625 48.390625 27.6875 48.390625 
Q 23 48.390625 18.546875 47.265625 
Q 14.109375 46.140625 10.015625 43.890625 
L 10.015625 52.203125 
Q 14.9375 54.109375 19.578125 55.046875 
Q 24.21875 56 28.609375 56 
Q 40.484375 56 46.34375 49.84375 
Q 52.203125 43.703125 52.203125 31.203125 
z
" id="DejaVuSans-97"/>
      <path d="M 32.171875 -5.078125 
Q 28.375 -14.84375 24.75 -17.8125 
Q 21.140625 -20.796875 15.09375 -20.796875 
L 7.90625 -20.796875 
L 7.90625 -13.28125 
L 13.1875 -13.28125 
Q 16.890625 -13.28125 18.9375 -11.515625 
Q 21 -9.765625 23.484375 -3.21875 
L 25.09375 0.875 
L 2.984375 54.6875 
L 12.5 54.6875 
L 29.59375 11.921875 
L 46.6875 54.6875 
L 56.203125 54.6875 
z
" id="DejaVuSans-121"/>
     </defs>
     <g style="fill:#555555;" transform="translate(20.175 220.18425)rotate(-90)scale(0.2 -0.2)">
      <use xlink:href="#DejaVuSans-65"/>
      <use x="66.658203" xlink:href="#DejaVuSans-99"/>
      <use x="121.638672" xlink:href="#DejaVuSans-99"/>
      <use x="176.619141" xlink:href="#DejaVuSans-117"/>
      <use x="239.998047" xlink:href="#DejaVuSans-114"/>
      <use x="281.111328" xlink:href="#DejaVuSans-97"/>
      <use x="342.390625" xlink:href="#DejaVuSans-99"/>
      <use x="397.371094" xlink:href="#DejaVuSans-121"/>
     </g>
    </g>
   </g>
   <g id="line2d_27">
    <path clip-path="url(#p10efd51938)" d="M 73.832727 293.567303 
L 74.483338 251.167012 
L 75.133948 295.488 
L 75.784558 257.917934 
L 76.435169 256.961059 
L 77.085779 264.649867 
L 77.736389 268.506312 
L 78.386999 254.061488 
L 79.03761 245.387554 
L 79.68822 222.254207 
L 80.33883 240.588128 
L 80.989441 216.472201 
L 81.640051 247.301303 
L 82.290661 242.497709 
L 82.941272 253.071498 
L 83.591882 234.78505 
L 84.242492 235.751419 
L 84.893103 226.110652 
L 85.543713 229.971961 
L 86.194323 224.158693 
L 86.844934 244.413774 
L 87.495544 223.221039 
L 88.146154 210.695059 
L 88.796764 226.115515 
L 89.447375 230.933467 
L 90.097985 201.063787 
L 90.748595 212.615987 
L 91.399206 208.747963 
L 92.049816 225.141736 
L 92.700426 209.731006 
L 94.001647 224.180229 
L 94.652257 202.932379 
L 95.302868 228.007728 
L 95.953478 210.678386 
L 96.604088 227.070074 
L 97.254698 200.066387 
L 97.905309 204.908191 
L 98.555919 216.458307 
L 99.206529 203.93719 
L 99.85714 205.853023 
L 100.50775 196.229162 
L 101.15836 228.981045 
L 101.808971 200.090007 
L 102.459581 218.393361 
L 103.110191 183.710592 
L 104.411412 216.470117 
L 105.062022 178.875735 
L 105.712633 197.198078 
L 106.363243 202.965726 
L 107.013853 201.037387 
L 107.664463 193.33677 
L 108.315074 202.011167 
L 108.965684 176.94786 
L 109.616294 204.89638 
L 110.266905 214.551505 
L 110.917515 184.670014 
L 111.568125 213.561051 
L 112.218736 191.409126 
L 112.869346 197.191131 
L 113.519956 189.475924 
L 114.170567 195.260245 
L 114.821177 193.33677 
L 115.471787 178.875735 
L 116.122398 213.565451 
L 116.773008 175.012574 
L 117.423618 180.773274 
L 118.074228 190.437893 
L 118.724839 169.232885 
L 119.375449 173.074741 
L 120.026059 195.257929 
L 120.67667 198.140595 
L 121.32728 206.803182 
L 121.97789 182.751402 
L 122.628501 166.352534 
L 123.279111 190.442757 
L 123.929721 200.068471 
L 124.580332 196.210172 
L 125.230942 165.369492 
L 125.881552 195.255382 
L 126.532163 173.091414 
L 127.182773 178.863925 
L 127.833383 194.298739 
L 128.483993 174.060331 
L 129.134604 188.499597 
L 129.785214 190.420757 
L 130.435824 171.160992 
L 131.086435 164.412385 
L 131.737045 151.889184 
L 132.387655 188.511871 
L 133.688876 163.443469 
L 134.339486 163.450879 
L 134.990097 161.513046 
L 135.640707 187.550364 
L 136.291317 187.55268 
L 136.941927 165.367176 
L 138.243148 165.364629 
L 138.893758 156.683284 
L 139.544369 164.419333 
L 140.194979 175.007479 
L 140.845589 174.065194 
L 141.4962 148.035286 
L 142.14681 170.187443 
L 142.79742 176.962449 
L 143.448031 165.369492 
L 144.098641 144.161935 
L 144.749251 161.520456 
L 145.399862 163.446016 
L 146.050472 141.288764 
L 146.701082 171.151497 
L 147.351692 156.702273 
L 148.002303 170.187443 
L 148.652913 142.252818 
L 149.303523 163.446016 
L 149.954134 150.936941 
L 150.604744 149.944172 
L 151.255354 150.911005 
L 151.905965 174.043657 
L 152.556575 164.405438 
L 153.207185 176.94045 
L 154.508406 160.553856 
L 155.159016 162.486826 
L 155.809627 179.801579 
L 156.460237 160.544129 
L 157.110847 160.548993 
L 157.761457 141.281817 
L 158.412068 165.354902 
L 159.062678 149.953899 
L 159.713288 160.55594 
L 160.363899 150.903594 
L 161.014509 150.901279 
L 161.665119 173.088867 
L 162.31573 177.885745 
L 162.96634 154.781113 
L 163.61695 143.186303 
L 164.267561 152.829386 
L 164.918171 151.850974 
L 165.568781 152.848375 
L 166.219392 145.135484 
L 166.870002 146.107179 
L 167.520612 158.632696 
L 168.171222 137.418424 
L 168.821833 155.733357 
L 169.472443 137.420971 
L 170.123053 130.684176 
L 170.773664 147.06637 
L 171.424274 155.755125 
L 172.074884 136.466181 
L 172.725495 152.838649 
L 173.376105 139.356257 
L 174.026715 148.01375 
L 174.677326 146.080779 
L 175.327936 148.01815 
L 175.978546 162.470152 
L 176.629156 163.453195 
L 177.279767 129.69627 
L 177.930377 131.645913 
L 178.580987 139.346994 
L 179.231598 135.494949 
L 179.882208 125.847235 
L 180.532818 149.955983 
L 181.183429 149.949035 
L 181.834039 141.274638 
L 182.484649 134.545253 
L 183.13526 135.459286 
L 183.78587 135.494949 
L 184.43648 124.861644 
L 185.087091 126.801793 
L 185.737701 160.537182 
L 186.388311 141.272554 
L 187.038921 155.731041 
L 187.689532 135.500043 
L 188.340142 124.86396 
L 188.990752 133.564526 
L 189.641363 144.147809 
L 190.291973 146.099769 
L 190.942583 128.744027 
L 191.593194 159.568266 
L 192.243804 138.382478 
L 193.545025 153.790892 
L 194.195635 147.073317 
L 194.846245 129.701133 
L 195.496856 147.052012 
L 196.147466 139.339584 
L 196.798076 116.215963 
L 197.448686 146.071053 
L 198.099297 117.172606 
L 198.749907 144.17143 
L 199.400517 130.665186 
L 200.051128 131.629008 
L 200.701738 137.411245 
L 201.352348 128.744027 
L 202.002959 134.521632 
L 202.653569 148.970393 
L 203.304179 155.730578 
L 203.95479 133.557578 
L 204.6054 153.802934 
L 205.906621 146.080779 
L 206.557231 114.275814 
L 207.207841 110.433957 
L 207.858451 111.398011 
L 208.509062 155.733357 
L 209.159672 122.947895 
L 209.810282 152.841428 
L 210.460893 121.019325 
L 211.111503 126.806657 
L 211.762113 136.430518 
L 212.412724 121.036462 
L 213.063334 111.383885 
L 213.713944 143.193714 
L 214.364555 123.911717 
L 215.015165 108.510482 
L 215.665775 125.840287 
L 216.316385 127.780205 
L 216.966996 133.559663 
L 217.617606 124.873455 
L 218.268216 148.99934 
L 218.918827 115.253993 
L 219.569437 114.27095 
L 220.220047 128.7299 
L 220.870658 116.201836 
L 221.521268 115.251909 
L 222.171878 96.929798 
L 222.822489 136.456918 
L 223.473099 122.966884 
L 224.123709 106.582606 
L 224.77432 122.959706 
L 225.42493 111.3862 
L 226.07554 131.622293 
L 226.72615 134.507506 
L 227.376761 149.925415 
L 228.027371 121.024188 
L 228.677981 137.423056 
L 229.328592 121.993568 
L 229.979202 119.120397 
L 230.629812 136.454602 
L 231.280423 139.334721 
L 231.931033 130.655923 
L 232.581643 135.475959 
L 233.232254 122.955074 
L 233.882864 95.972691 
L 234.533474 100.78138 
L 235.184085 121.017241 
L 235.834695 110.436041 
L 236.485305 131.621829 
L 237.135915 121.988242 
L 237.786526 100.783696 
L 238.437136 123.914264 
L 239.087746 134.526032 
L 239.738357 123.909401 
L 240.388967 101.747749 
L 241.039577 121.029051 
L 241.690188 129.705533 
L 242.340798 119.101176 
L 242.991408 121.019788 
L 244.292629 119.086818 
L 244.943239 129.719891 
L 245.59385 94.034858 
L 246.24446 109.450914 
L 246.89507 111.364664 
L 247.54568 122.002831 
L 248.196291 118.141522 
L 248.846901 136.433065 
L 249.497511 118.125312 
L 250.148122 119.086818 
L 250.798732 126.821014 
L 251.449342 120.052956 
L 252.099953 100.78578 
L 252.750563 97.891304 
L 253.401173 105.597016 
L 254.051784 101.757476 
L 254.702394 106.558522 
L 255.353004 104.644541 
L 256.003615 115.242646 
L 256.654225 78.628991 
L 257.304835 115.242183 
L 257.955445 117.16589 
L 258.606056 100.800369 
L 259.256666 107.53207 
L 259.907276 101.750065 
L 260.557887 91.138298 
L 261.208497 96.934661 
L 262.509718 118.118133 
L 263.160328 103.678172 
L 263.810938 74.765598 
L 264.461549 95.982418 
L 265.112159 109.471988 
L 265.762769 111.3862 
L 266.413379 131.615114 
L 267.06399 108.493808 
L 267.7146 106.573112 
L 268.36521 118.132259 
L 269.015821 103.673772 
L 269.666431 94.032774 
L 270.317041 122.952758 
L 270.967652 121.036462 
L 271.618262 96.934198 
L 272.268872 101.757476 
L 272.919483 101.738486 
L 273.570093 103.678172 
L 274.220703 103.668446 
L 274.871314 106.549259 
L 275.521924 99.817327 
L 276.172534 89.224548 
L 276.823144 100.783696 
L 277.473755 67.055254 
L 278.124365 96.913124 
L 278.774975 138.380162 
L 279.425586 89.224085 
L 280.076196 96.948787 
L 280.726806 115.230604 
L 281.377417 102.70694 
L 282.028027 130.665186 
L 282.678637 94.042269 
L 283.979858 116.194889 
L 284.630468 91.166782 
L 285.281079 107.513081 
L 285.931689 85.372966 
L 286.582299 117.16589 
L 287.232909 84.410997 
L 287.88352 95.004238 
L 288.53413 87.30061 
L 289.18474 77.660538 
L 289.835351 96.908261 
L 290.485961 95.958334 
L 291.136571 105.575711 
L 291.787182 118.129943 
L 292.437792 86.343967 
L 293.088402 104.649405 
L 293.739013 113.302034 
L 294.389623 114.29735 
L 295.040233 88.257716 
L 295.690844 107.527439 
L 296.341454 109.465272 
L 296.992064 107.539481 
L 297.642674 88.258179 
L 298.293285 95.963428 
L 298.943895 107.541565 
L 299.594505 102.718982 
L 300.245116 109.45323 
L 300.895726 99.82659 
L 301.546336 98.858136 
L 302.196947 102.723613 
L 302.847557 99.805053 
L 303.498167 95.968291 
L 304.148778 85.36324 
L 304.799388 89.22177 
L 305.449998 111.376474 
L 306.100608 91.152192 
L 306.751219 90.186055 
L 307.401829 82.483121 
L 308.052439 90.178876 
L 308.70305 93.06872 
L 309.35366 105.601648 
L 310.00427 100.76957 
L 310.654881 77.650348 
L 311.305491 84.406597 
L 311.956101 110.414736 
L 312.606712 100.767022 
L 313.257322 87.29621 
L 313.907932 91.159603 
L 314.558543 101.740802 
L 315.209153 80.552467 
L 315.859763 99.805053 
L 316.510373 85.365555 
L 317.160984 110.419368 
L 317.811594 82.470848 
L 318.462204 84.392007 
L 319.112815 102.709719 
L 319.763425 124.866508 
L 320.414035 95.956018 
L 321.064646 88.260032 
L 321.715256 83.446943 
L 322.365866 103.68072 
L 323.016477 89.217138 
L 323.667087 93.056678 
L 324.317697 91.166782 
L 324.968308 102.709719 
L 325.618918 91.147561 
L 326.269528 105.587522 
L 326.920138 94.982701 
L 327.570749 81.50471 
L 328.221359 78.619728 
L 328.871969 98.858136 
L 329.52258 94.98988 
L 330.17319 89.233811 
L 330.8238 81.509341 
L 331.474411 69.93792 
L 332.125021 72.83286 
L 332.775631 103.675856 
L 333.426242 100.778833 
L 334.076852 89.236359 
L 334.727462 81.502394 
L 335.378073 76.681895 
L 336.028683 92.111614 
L 336.679293 99.843726 
L 337.329903 86.32243 
L 337.980514 106.563385 
L 338.631124 73.792282 
L 339.281734 95.965744 
L 339.932345 77.657759 
L 340.582955 93.068952 
L 341.233565 96.932345 
L 341.884176 79.586098 
L 342.534786 83.442543 
L 343.185396 85.384776 
L 343.836007 91.131119 
L 344.486617 92.119025 
L 345.137227 67.033949 
L 345.787837 78.60977 
L 346.438448 67.050855 
L 347.089058 94.996827 
L 347.739668 62.230355 
L 348.390279 90.195549 
L 349.040889 89.209959 
L 349.691499 79.568961 
L 350.34211 94.99428 
L 350.99272 96.932345 
L 351.64333 105.587522 
L 352.293941 93.076131 
L 352.944551 73.785103 
L 353.595161 81.51652 
L 354.245772 92.111614 
L 354.896382 80.533014 
L 355.546992 71.868806 
L 356.197602 97.879493 
L 356.848213 90.188602 
L 357.498823 86.332156 
L 358.149433 108.488945 
L 358.800044 80.542741 
L 359.450654 63.196725 
L 360.101264 97.891304 
L 360.751875 96.91544 
L 361.402485 93.052279 
L 362.053095 78.617181 
L 362.703706 76.674948 
L 363.354316 86.320346 
L 364.004926 74.768146 
L 364.655537 90.186055 
L 365.306147 80.545288 
L 365.956757 99.805053 
L 366.607367 84.38946 
L 367.257978 91.116761 
L 367.908588 99.80019 
L 368.559198 78.60537 
L 369.209809 115.242183 
L 369.860419 80.533478 
L 370.511029 91.162382 
L 371.16164 76.693705 
L 371.81225 99.805516 
L 372.46286 73.801545 
L 373.113471 90.195549 
L 373.764081 91.121624 
L 374.414691 76.696253 
L 375.065302 80.521667 
L 375.715912 87.291347 
L 376.366522 80.547835 
L 377.017132 55.481981 
L 377.667743 89.219685 
L 378.318353 85.368103 
L 378.968963 76.705516 
L 379.619574 85.368103 
L 380.270184 90.167065 
L 380.920794 76.691621 
L 381.571405 80.533478 
L 382.222015 100.795506 
L 382.872625 74.765598 
L 383.523236 76.677032 
L 384.173846 84.375334 
L 384.824456 85.370187 
L 385.475066 81.523468 
L 386.125677 83.435133 
L 386.776287 62.230124 
L 387.426897 68.012361 
L 388.077508 83.43768 
L 388.728118 92.092625 
L 389.378728 87.305936 
L 390.029339 86.315483 
L 390.679949 74.756335 
L 391.330559 68.00055 
L 391.98117 74.739662 
L 392.63178 72.808776 
L 393.28239 68.002866 
L 393.933001 53.568 
L 394.583611 68.985677 
L 395.234221 71.871122 
L 395.884831 69.947647 
L 396.535442 83.43768 
L 397.186052 77.645717 
L 397.836662 97.879493 
L 398.487273 87.289263 
L 398.487273 87.289263 
" style="fill:none;stroke:#e24a33;stroke-linecap:square;stroke-width:3;"/>
   </g>
   <g id="patch_3">
    <path d="M 57.6 307.584 
L 57.6 41.472 
" style="fill:none;stroke:#ffffff;stroke-linecap:square;stroke-linejoin:miter;"/>
   </g>
   <g id="patch_4">
    <path d="M 414.72 307.584 
L 414.72 41.472 
" style="fill:none;stroke:#ffffff;stroke-linecap:square;stroke-linejoin:miter;"/>
   </g>
   <g id="patch_5">
    <path d="M 57.6 307.584 
L 414.72 307.584 
" style="fill:none;stroke:#ffffff;stroke-linecap:square;stroke-linejoin:miter;"/>
   </g>
   <g id="patch_6">
    <path d="M 57.6 41.472 
L 414.72 41.472 
" style="fill:none;stroke:#ffffff;stroke-linecap:square;stroke-linejoin:miter;"/>
   </g>
   <g id="text_16">
    <!-- max  = 95.33621668815613%, segmentation+frame+formant, 492epoch -->
    <defs>
     <path d="M 52 44.1875 
Q 55.375 50.25 60.0625 53.125 
Q 64.75 56 71.09375 56 
Q 79.640625 56 84.28125 50.015625 
Q 88.921875 44.046875 88.921875 33.015625 
L 88.921875 0 
L 79.890625 0 
L 79.890625 32.71875 
Q 79.890625 40.578125 77.09375 44.375 
Q 74.3125 48.1875 68.609375 48.1875 
Q 61.625 48.1875 57.5625 43.546875 
Q 53.515625 38.921875 53.515625 30.90625 
L 53.515625 0 
L 44.484375 0 
L 44.484375 32.71875 
Q 44.484375 40.625 41.703125 44.40625 
Q 38.921875 48.1875 33.109375 48.1875 
Q 26.21875 48.1875 22.15625 43.53125 
Q 18.109375 38.875 18.109375 30.90625 
L 18.109375 0 
L 9.078125 0 
L 9.078125 54.6875 
L 18.109375 54.6875 
L 18.109375 46.1875 
Q 21.1875 51.21875 25.484375 53.609375 
Q 29.78125 56 35.6875 56 
Q 41.65625 56 45.828125 52.96875 
Q 50 49.953125 52 44.1875 
z
" id="DejaVuSans-109"/>
     <path d="M 54.890625 54.6875 
L 35.109375 28.078125 
L 55.90625 0 
L 45.3125 0 
L 29.390625 21.484375 
L 13.484375 0 
L 2.875 0 
L 24.125 28.609375 
L 4.6875 54.6875 
L 15.28125 54.6875 
L 29.78125 35.203125 
L 44.28125 54.6875 
z
" id="DejaVuSans-120"/>
     <path id="DejaVuSans-32"/>
     <path d="M 10.59375 45.40625 
L 73.1875 45.40625 
L 73.1875 37.203125 
L 10.59375 37.203125 
z
M 10.59375 25.484375 
L 73.1875 25.484375 
L 73.1875 17.1875 
L 10.59375 17.1875 
z
" id="DejaVuSans-61"/>
     <path d="M 33.015625 40.375 
Q 26.375 40.375 22.484375 35.828125 
Q 18.609375 31.296875 18.609375 23.390625 
Q 18.609375 15.53125 22.484375 10.953125 
Q 26.375 6.390625 33.015625 6.390625 
Q 39.65625 6.390625 43.53125 10.953125 
Q 47.40625 15.53125 47.40625 23.390625 
Q 47.40625 31.296875 43.53125 35.828125 
Q 39.65625 40.375 33.015625 40.375 
z
M 52.59375 71.296875 
L 52.59375 62.3125 
Q 48.875 64.0625 45.09375 64.984375 
Q 41.3125 65.921875 37.59375 65.921875 
Q 27.828125 65.921875 22.671875 59.328125 
Q 17.53125 52.734375 16.796875 39.40625 
Q 19.671875 43.65625 24.015625 45.921875 
Q 28.375 48.1875 33.59375 48.1875 
Q 44.578125 48.1875 50.953125 41.515625 
Q 57.328125 34.859375 57.328125 23.390625 
Q 57.328125 12.15625 50.6875 5.359375 
Q 44.046875 -1.421875 33.015625 -1.421875 
Q 20.359375 -1.421875 13.671875 8.265625 
Q 6.984375 17.96875 6.984375 36.375 
Q 6.984375 53.65625 15.1875 63.9375 
Q 23.390625 74.21875 37.203125 74.21875 
Q 40.921875 74.21875 44.703125 73.484375 
Q 48.484375 72.75 52.59375 71.296875 
z
" id="DejaVuSans-54"/>
     <path d="M 72.703125 32.078125 
Q 68.453125 32.078125 66.03125 28.46875 
Q 63.625 24.859375 63.625 18.40625 
Q 63.625 12.0625 66.03125 8.421875 
Q 68.453125 4.78125 72.703125 4.78125 
Q 76.859375 4.78125 79.265625 8.421875 
Q 81.6875 12.0625 81.6875 18.40625 
Q 81.6875 24.8125 79.265625 28.4375 
Q 76.859375 32.078125 72.703125 32.078125 
z
M 72.703125 38.28125 
Q 80.421875 38.28125 84.953125 32.90625 
Q 89.5 27.546875 89.5 18.40625 
Q 89.5 9.28125 84.9375 3.921875 
Q 80.375 -1.421875 72.703125 -1.421875 
Q 64.890625 -1.421875 60.34375 3.921875 
Q 55.8125 9.28125 55.8125 18.40625 
Q 55.8125 27.59375 60.375 32.9375 
Q 64.9375 38.28125 72.703125 38.28125 
z
M 22.3125 68.015625 
Q 18.109375 68.015625 15.6875 64.375 
Q 13.28125 60.75 13.28125 54.390625 
Q 13.28125 47.953125 15.671875 44.328125 
Q 18.0625 40.71875 22.3125 40.71875 
Q 26.5625 40.71875 28.96875 44.328125 
Q 31.390625 47.953125 31.390625 54.390625 
Q 31.390625 60.6875 28.953125 64.34375 
Q 26.515625 68.015625 22.3125 68.015625 
z
M 66.40625 74.21875 
L 74.21875 74.21875 
L 28.609375 -1.421875 
L 20.796875 -1.421875 
z
M 22.3125 74.21875 
Q 30.03125 74.21875 34.609375 68.875 
Q 39.203125 63.53125 39.203125 54.390625 
Q 39.203125 45.171875 34.640625 39.84375 
Q 30.078125 34.515625 22.3125 34.515625 
Q 14.546875 34.515625 10.03125 39.859375 
Q 5.515625 45.21875 5.515625 54.390625 
Q 5.515625 63.484375 10.046875 68.84375 
Q 14.59375 74.21875 22.3125 74.21875 
z
" id="DejaVuSans-37"/>
     <path d="M 11.71875 12.40625 
L 22.015625 12.40625 
L 22.015625 4 
L 14.015625 -11.625 
L 7.71875 -11.625 
L 11.71875 4 
z
" id="DejaVuSans-44"/>
     <path d="M 44.28125 53.078125 
L 44.28125 44.578125 
Q 40.484375 46.53125 36.375 47.5 
Q 32.28125 48.484375 27.875 48.484375 
Q 21.1875 48.484375 17.84375 46.4375 
Q 14.5 44.390625 14.5 40.28125 
Q 14.5 37.15625 16.890625 35.375 
Q 19.28125 33.59375 26.515625 31.984375 
L 29.59375 31.296875 
Q 39.15625 29.25 43.1875 25.515625 
Q 47.21875 21.78125 47.21875 15.09375 
Q 47.21875 7.46875 41.1875 3.015625 
Q 35.15625 -1.421875 24.609375 -1.421875 
Q 20.21875 -1.421875 15.453125 -0.5625 
Q 10.6875 0.296875 5.421875 2 
L 5.421875 11.28125 
Q 10.40625 8.6875 15.234375 7.390625 
Q 20.0625 6.109375 24.8125 6.109375 
Q 31.15625 6.109375 34.5625 8.28125 
Q 37.984375 10.453125 37.984375 14.40625 
Q 37.984375 18.0625 35.515625 20.015625 
Q 33.0625 21.96875 24.703125 23.78125 
L 21.578125 24.515625 
Q 13.234375 26.265625 9.515625 29.90625 
Q 5.8125 33.546875 5.8125 39.890625 
Q 5.8125 47.609375 11.28125 51.796875 
Q 16.75 56 26.8125 56 
Q 31.78125 56 36.171875 55.265625 
Q 40.578125 54.546875 44.28125 53.078125 
z
" id="DejaVuSans-115"/>
     <path d="M 56.203125 29.59375 
L 56.203125 25.203125 
L 14.890625 25.203125 
Q 15.484375 15.921875 20.484375 11.0625 
Q 25.484375 6.203125 34.421875 6.203125 
Q 39.59375 6.203125 44.453125 7.46875 
Q 49.3125 8.734375 54.109375 11.28125 
L 54.109375 2.78125 
Q 49.265625 0.734375 44.1875 -0.34375 
Q 39.109375 -1.421875 33.890625 -1.421875 
Q 20.796875 -1.421875 13.15625 6.1875 
Q 5.515625 13.8125 5.515625 26.8125 
Q 5.515625 40.234375 12.765625 48.109375 
Q 20.015625 56 32.328125 56 
Q 43.359375 56 49.78125 48.890625 
Q 56.203125 41.796875 56.203125 29.59375 
z
M 47.21875 32.234375 
Q 47.125 39.59375 43.09375 43.984375 
Q 39.0625 48.390625 32.421875 48.390625 
Q 24.90625 48.390625 20.390625 44.140625 
Q 15.875 39.890625 15.1875 32.171875 
z
" id="DejaVuSans-101"/>
     <path d="M 45.40625 27.984375 
Q 45.40625 37.75 41.375 43.109375 
Q 37.359375 48.484375 30.078125 48.484375 
Q 22.859375 48.484375 18.828125 43.109375 
Q 14.796875 37.75 14.796875 27.984375 
Q 14.796875 18.265625 18.828125 12.890625 
Q 22.859375 7.515625 30.078125 7.515625 
Q 37.359375 7.515625 41.375 12.890625 
Q 45.40625 18.265625 45.40625 27.984375 
z
M 54.390625 6.78125 
Q 54.390625 -7.171875 48.1875 -13.984375 
Q 42 -20.796875 29.203125 -20.796875 
Q 24.46875 -20.796875 20.265625 -20.09375 
Q 16.0625 -19.390625 12.109375 -17.921875 
L 12.109375 -9.1875 
Q 16.0625 -11.328125 19.921875 -12.34375 
Q 23.78125 -13.375 27.78125 -13.375 
Q 36.625 -13.375 41.015625 -8.765625 
Q 45.40625 -4.15625 45.40625 5.171875 
L 45.40625 9.625 
Q 42.625 4.78125 38.28125 2.390625 
Q 33.9375 0 27.875 0 
Q 17.828125 0 11.671875 7.65625 
Q 5.515625 15.328125 5.515625 27.984375 
Q 5.515625 40.671875 11.671875 48.328125 
Q 17.828125 56 27.875 56 
Q 33.9375 56 38.28125 53.609375 
Q 42.625 51.21875 45.40625 46.390625 
L 45.40625 54.6875 
L 54.390625 54.6875 
z
" id="DejaVuSans-103"/>
     <path d="M 54.890625 33.015625 
L 54.890625 0 
L 45.90625 0 
L 45.90625 32.71875 
Q 45.90625 40.484375 42.875 44.328125 
Q 39.84375 48.1875 33.796875 48.1875 
Q 26.515625 48.1875 22.3125 43.546875 
Q 18.109375 38.921875 18.109375 30.90625 
L 18.109375 0 
L 9.078125 0 
L 9.078125 54.6875 
L 18.109375 54.6875 
L 18.109375 46.1875 
Q 21.34375 51.125 25.703125 53.5625 
Q 30.078125 56 35.796875 56 
Q 45.21875 56 50.046875 50.171875 
Q 54.890625 44.34375 54.890625 33.015625 
z
" id="DejaVuSans-110"/>
     <path d="M 18.3125 70.21875 
L 18.3125 54.6875 
L 36.8125 54.6875 
L 36.8125 47.703125 
L 18.3125 47.703125 
L 18.3125 18.015625 
Q 18.3125 11.328125 20.140625 9.421875 
Q 21.96875 7.515625 27.59375 7.515625 
L 36.8125 7.515625 
L 36.8125 0 
L 27.59375 0 
Q 17.1875 0 13.234375 3.875 
Q 9.28125 7.765625 9.28125 18.015625 
L 9.28125 47.703125 
L 2.6875 47.703125 
L 2.6875 54.6875 
L 9.28125 54.6875 
L 9.28125 70.21875 
z
" id="DejaVuSans-116"/>
     <path d="M 9.421875 54.6875 
L 18.40625 54.6875 
L 18.40625 0 
L 9.421875 0 
z
M 9.421875 75.984375 
L 18.40625 75.984375 
L 18.40625 64.59375 
L 9.421875 64.59375 
z
" id="DejaVuSans-105"/>
     <path d="M 46 62.703125 
L 46 35.5 
L 73.1875 35.5 
L 73.1875 27.203125 
L 46 27.203125 
L 46 0 
L 37.796875 0 
L 37.796875 27.203125 
L 10.59375 27.203125 
L 10.59375 35.5 
L 37.796875 35.5 
L 37.796875 62.703125 
z
" id="DejaVuSans-43"/>
     <path d="M 37.109375 75.984375 
L 37.109375 68.5 
L 28.515625 68.5 
Q 23.6875 68.5 21.796875 66.546875 
Q 19.921875 64.59375 19.921875 59.515625 
L 19.921875 54.6875 
L 34.71875 54.6875 
L 34.71875 47.703125 
L 19.921875 47.703125 
L 19.921875 0 
L 10.890625 0 
L 10.890625 47.703125 
L 2.296875 47.703125 
L 2.296875 54.6875 
L 10.890625 54.6875 
L 10.890625 58.5 
Q 10.890625 67.625 15.140625 71.796875 
Q 19.390625 75.984375 28.609375 75.984375 
z
" id="DejaVuSans-102"/>
    </defs>
    <g transform="translate(73.897788 53.568)scale(0.1 -0.1)">
     <use xlink:href="#DejaVuSans-109"/>
     <use x="97.412109" xlink:href="#DejaVuSans-97"/>
     <use x="158.691406" xlink:href="#DejaVuSans-120"/>
     <use x="217.871094" xlink:href="#DejaVuSans-32"/>
     <use x="249.658203" xlink:href="#DejaVuSans-32"/>
     <use x="281.445312" xlink:href="#DejaVuSans-61"/>
     <use x="365.234375" xlink:href="#DejaVuSans-32"/>
     <use x="397.021484" xlink:href="#DejaVuSans-57"/>
     <use x="460.644531" xlink:href="#DejaVuSans-53"/>
     <use x="524.267578" xlink:href="#DejaVuSans-46"/>
     <use x="556.054688" xlink:href="#DejaVuSans-51"/>
     <use x="619.677734" xlink:href="#DejaVuSans-51"/>
     <use x="683.300781" xlink:href="#DejaVuSans-54"/>
     <use x="746.923828" xlink:href="#DejaVuSans-50"/>
     <use x="810.546875" xlink:href="#DejaVuSans-49"/>
     <use x="874.169922" xlink:href="#DejaVuSans-54"/>
     <use x="937.792969" xlink:href="#DejaVuSans-54"/>
     <use x="1001.416016" xlink:href="#DejaVuSans-56"/>
     <use x="1065.039062" xlink:href="#DejaVuSans-56"/>
     <use x="1128.662109" xlink:href="#DejaVuSans-49"/>
     <use x="1192.285156" xlink:href="#DejaVuSans-53"/>
     <use x="1255.908203" xlink:href="#DejaVuSans-54"/>
     <use x="1319.53125" xlink:href="#DejaVuSans-49"/>
     <use x="1383.154297" xlink:href="#DejaVuSans-51"/>
     <use x="1446.777344" xlink:href="#DejaVuSans-37"/>
     <use x="1541.796875" xlink:href="#DejaVuSans-44"/>
     <use x="1573.583984" xlink:href="#DejaVuSans-32"/>
     <use x="1605.371094" xlink:href="#DejaVuSans-115"/>
     <use x="1657.470703" xlink:href="#DejaVuSans-101"/>
     <use x="1718.994141" xlink:href="#DejaVuSans-103"/>
     <use x="1782.470703" xlink:href="#DejaVuSans-109"/>
     <use x="1879.882812" xlink:href="#DejaVuSans-101"/>
     <use x="1941.40625" xlink:href="#DejaVuSans-110"/>
     <use x="2004.785156" xlink:href="#DejaVuSans-116"/>
     <use x="2043.994141" xlink:href="#DejaVuSans-97"/>
     <use x="2105.273438" xlink:href="#DejaVuSans-116"/>
     <use x="2144.482422" xlink:href="#DejaVuSans-105"/>
     <use x="2172.265625" xlink:href="#DejaVuSans-111"/>
     <use x="2233.447266" xlink:href="#DejaVuSans-110"/>
     <use x="2296.826172" xlink:href="#DejaVuSans-43"/>
     <use x="2380.615234" xlink:href="#DejaVuSans-102"/>
     <use x="2415.820312" xlink:href="#DejaVuSans-114"/>
     <use x="2456.933594" xlink:href="#DejaVuSans-97"/>
     <use x="2518.212891" xlink:href="#DejaVuSans-109"/>
     <use x="2615.625" xlink:href="#DejaVuSans-101"/>
     <use x="2677.148438" xlink:href="#DejaVuSans-43"/>
     <use x="2760.9375" xlink:href="#DejaVuSans-102"/>
     <use x="2796.142578" xlink:href="#DejaVuSans-111"/>
     <use x="2857.324219" xlink:href="#DejaVuSans-114"/>
     <use x="2896.6875" xlink:href="#DejaVuSans-109"/>
     <use x="2994.099609" xlink:href="#DejaVuSans-97"/>
     <use x="3055.378906" xlink:href="#DejaVuSans-110"/>
     <use x="3118.757812" xlink:href="#DejaVuSans-116"/>
     <use x="3157.966797" xlink:href="#DejaVuSans-44"/>
     <use x="3189.753906" xlink:href="#DejaVuSans-32"/>
     <use x="3221.541016" xlink:href="#DejaVuSans-52"/>
     <use x="3285.164062" xlink:href="#DejaVuSans-57"/>
     <use x="3348.787109" xlink:href="#DejaVuSans-50"/>
     <use x="3412.410156" xlink:href="#DejaVuSans-101"/>
     <use x="3473.933594" xlink:href="#DejaVuSans-112"/>
     <use x="3537.410156" xlink:href="#DejaVuSans-111"/>
     <use x="3598.591797" xlink:href="#DejaVuSans-99"/>
     <use x="3653.572266" xlink:href="#DejaVuSans-104"/>
    </g>
   </g>
   <g id="text_17">
    <!-- binary train accuracy of ekutsu -->
    <defs>
     <path d="M 48.6875 27.296875 
Q 48.6875 37.203125 44.609375 42.84375 
Q 40.53125 48.484375 33.40625 48.484375 
Q 26.265625 48.484375 22.1875 42.84375 
Q 18.109375 37.203125 18.109375 27.296875 
Q 18.109375 17.390625 22.1875 11.75 
Q 26.265625 6.109375 33.40625 6.109375 
Q 40.53125 6.109375 44.609375 11.75 
Q 48.6875 17.390625 48.6875 27.296875 
z
M 18.109375 46.390625 
Q 20.953125 51.265625 25.265625 53.625 
Q 29.59375 56 35.59375 56 
Q 45.5625 56 51.78125 48.09375 
Q 58.015625 40.1875 58.015625 27.296875 
Q 58.015625 14.40625 51.78125 6.484375 
Q 45.5625 -1.421875 35.59375 -1.421875 
Q 29.59375 -1.421875 25.265625 0.953125 
Q 20.953125 3.328125 18.109375 8.203125 
L 18.109375 0 
L 9.078125 0 
L 9.078125 75.984375 
L 18.109375 75.984375 
z
" id="DejaVuSans-98"/>
     <path d="M 9.078125 75.984375 
L 18.109375 75.984375 
L 18.109375 31.109375 
L 44.921875 54.6875 
L 56.390625 54.6875 
L 27.390625 29.109375 
L 57.625 0 
L 45.90625 0 
L 18.109375 26.703125 
L 18.109375 0 
L 9.078125 0 
z
" id="DejaVuSans-107"/>
    </defs>
    <g transform="translate(80.356875 35.472)scale(0.2 -0.2)">
     <use xlink:href="#DejaVuSans-98"/>
     <use x="63.476562" xlink:href="#DejaVuSans-105"/>
     <use x="91.259766" xlink:href="#DejaVuSans-110"/>
     <use x="154.638672" xlink:href="#DejaVuSans-97"/>
     <use x="215.917969" xlink:href="#DejaVuSans-114"/>
     <use x="257.03125" xlink:href="#DejaVuSans-121"/>
     <use x="316.210938" xlink:href="#DejaVuSans-32"/>
     <use x="347.998047" xlink:href="#DejaVuSans-116"/>
     <use x="387.207031" xlink:href="#DejaVuSans-114"/>
     <use x="428.320312" xlink:href="#DejaVuSans-97"/>
     <use x="489.599609" xlink:href="#DejaVuSans-105"/>
     <use x="517.382812" xlink:href="#DejaVuSans-110"/>
     <use x="580.761719" xlink:href="#DejaVuSans-32"/>
     <use x="612.548828" xlink:href="#DejaVuSans-97"/>
     <use x="673.828125" xlink:href="#DejaVuSans-99"/>
     <use x="728.808594" xlink:href="#DejaVuSans-99"/>
     <use x="783.789062" xlink:href="#DejaVuSans-117"/>
     <use x="847.167969" xlink:href="#DejaVuSans-114"/>
     <use x="888.28125" xlink:href="#DejaVuSans-97"/>
     <use x="949.560547" xlink:href="#DejaVuSans-99"/>
     <use x="1004.541016" xlink:href="#DejaVuSans-121"/>
     <use x="1063.720703" xlink:href="#DejaVuSans-32"/>
     <use x="1095.507812" xlink:href="#DejaVuSans-111"/>
     <use x="1156.689453" xlink:href="#DejaVuSans-102"/>
     <use x="1191.894531" xlink:href="#DejaVuSans-32"/>
     <use x="1223.681641" xlink:href="#DejaVuSans-101"/>
     <use x="1285.205078" xlink:href="#DejaVuSans-107"/>
     <use x="1339.990234" xlink:href="#DejaVuSans-117"/>
     <use x="1403.369141" xlink:href="#DejaVuSans-116"/>
     <use x="1442.578125" xlink:href="#DejaVuSans-115"/>
     <use x="1494.677734" xlink:href="#DejaVuSans-117"/>
    </g>
   </g>
   <g id="legend_1">
    <g id="patch_7">
     <path d="M 64.6 64.150125 
L 251.859375 64.150125 
Q 253.859375 64.150125 253.859375 62.150125 
L 253.859375 48.472 
Q 253.859375 46.472 251.859375 46.472 
L 64.6 46.472 
Q 62.6 46.472 62.6 48.472 
L 62.6 62.150125 
Q 62.6 64.150125 64.6 64.150125 
z
" style="fill:#e5e5e5;opacity:0.8;stroke:#cccccc;stroke-linejoin:miter;stroke-width:0.5;"/>
    </g>
    <g id="line2d_28">
     <path d="M 66.6 54.570438 
L 86.6 54.570438 
" style="fill:none;stroke:#e24a33;stroke-linecap:square;stroke-width:3;"/>
    </g>
    <g id="line2d_29"/>
    <g id="text_18">
     <!-- segmentation+frame+formant -->
     <g transform="translate(94.6 58.070438)scale(0.1 -0.1)">
      <use xlink:href="#DejaVuSans-115"/>
      <use x="52.099609" xlink:href="#DejaVuSans-101"/>
      <use x="113.623047" xlink:href="#DejaVuSans-103"/>
      <use x="177.099609" xlink:href="#DejaVuSans-109"/>
      <use x="274.511719" xlink:href="#DejaVuSans-101"/>
      <use x="336.035156" xlink:href="#DejaVuSans-110"/>
      <use x="399.414062" xlink:href="#DejaVuSans-116"/>
      <use x="438.623047" xlink:href="#DejaVuSans-97"/>
      <use x="499.902344" xlink:href="#DejaVuSans-116"/>
      <use x="539.111328" xlink:href="#DejaVuSans-105"/>
      <use x="566.894531" xlink:href="#DejaVuSans-111"/>
      <use x="628.076172" xlink:href="#DejaVuSans-110"/>
      <use x="691.455078" xlink:href="#DejaVuSans-43"/>
      <use x="775.244141" xlink:href="#DejaVuSans-102"/>
      <use x="810.449219" xlink:href="#DejaVuSans-114"/>
      <use x="851.5625" xlink:href="#DejaVuSans-97"/>
      <use x="912.841797" xlink:href="#DejaVuSans-109"/>
      <use x="1010.253906" xlink:href="#DejaVuSans-101"/>
      <use x="1071.777344" xlink:href="#DejaVuSans-43"/>
      <use x="1155.566406" xlink:href="#DejaVuSans-102"/>
      <use x="1190.771484" xlink:href="#DejaVuSans-111"/>
      <use x="1251.953125" xlink:href="#DejaVuSans-114"/>
      <use x="1291.316406" xlink:href="#DejaVuSans-109"/>
      <use x="1388.728516" xlink:href="#DejaVuSans-97"/>
      <use x="1450.007812" xlink:href="#DejaVuSans-110"/>
      <use x="1513.386719" xlink:href="#DejaVuSans-116"/>
     </g>
    </g>
   </g>
  </g>
 </g>
 <defs>
  <clipPath id="p10efd51938">
   <rect height="266.112" width="357.12" x="57.6" y="41.472"/>
  </clipPath>
 </defs>
</svg>
