<?xml version="1.0" encoding="utf-8" standalone="no"?>
<!DOCTYPE svg PUBLIC "-//W3C//DTD SVG 1.1//EN"
  "http://www.w3.org/Graphics/SVG/1.1/DTD/svg11.dtd">
<!-- Created with matplotlib (https://matplotlib.org/) -->
<svg height="345.6pt" version="1.1" viewBox="0 0 460.8 345.6" width="460.8pt" xmlns="http://www.w3.org/2000/svg" xmlns:xlink="http://www.w3.org/1999/xlink">
 <defs>
  <style type="text/css">
*{stroke-linecap:butt;stroke-linejoin:round;}
  </style>
 </defs>
 <g id="figure_1">
  <g id="patch_1">
   <path d="M 0 345.6 
L 460.8 345.6 
L 460.8 0 
L 0 0 
z
" style="fill:#ffffff;"/>
  </g>
  <g id="axes_1">
   <g id="patch_2">
    <path d="M 57.6 307.584 
L 414.72 307.584 
L 414.72 41.472 
L 57.6 41.472 
z
" style="fill:#e5e5e5;"/>
   </g>
   <g id="matplotlib.axis_1">
    <g id="xtick_1">
     <g id="line2d_1">
      <path clip-path="url(#pc6d7bc8052)" d="M 73.832727 307.584 
L 73.832727 41.472 
" style="fill:none;stroke:#ffffff;stroke-linecap:square;stroke-width:0.8;"/>
     </g>
     <g id="line2d_2">
      <defs>
       <path d="M 0 0 
L 0 3.5 
" id="ma8d31fcb08" style="stroke:#555555;stroke-width:0.8;"/>
      </defs>
      <g>
       <use style="fill:#555555;stroke:#555555;stroke-width:0.8;" x="73.832727" xlink:href="#ma8d31fcb08" y="307.584"/>
      </g>
     </g>
     <g id="text_1">
      <!-- 0 -->
      <defs>
       <path d="M 31.78125 66.40625 
Q 24.171875 66.40625 20.328125 58.90625 
Q 16.5 51.421875 16.5 36.375 
Q 16.5 21.390625 20.328125 13.890625 
Q 24.171875 6.390625 31.78125 6.390625 
Q 39.453125 6.390625 43.28125 13.890625 
Q 47.125 21.390625 47.125 36.375 
Q 47.125 51.421875 43.28125 58.90625 
Q 39.453125 66.40625 31.78125 66.40625 
z
M 31.78125 74.21875 
Q 44.046875 74.21875 50.515625 64.515625 
Q 56.984375 54.828125 56.984375 36.375 
Q 56.984375 17.96875 50.515625 8.265625 
Q 44.046875 -1.421875 31.78125 -1.421875 
Q 19.53125 -1.421875 13.0625 8.265625 
Q 6.59375 17.96875 6.59375 36.375 
Q 6.59375 54.828125 13.0625 64.515625 
Q 19.53125 74.21875 31.78125 74.21875 
z
" id="DejaVuSans-48"/>
      </defs>
      <g style="fill:#555555;" transform="translate(70.651477 322.182437)scale(0.1 -0.1)">
       <use xlink:href="#DejaVuSans-48"/>
      </g>
     </g>
    </g>
    <g id="xtick_2">
     <g id="line2d_3">
      <path clip-path="url(#pc6d7bc8052)" d="M 128.122785 307.584 
L 128.122785 41.472 
" style="fill:none;stroke:#ffffff;stroke-linecap:square;stroke-width:0.8;"/>
     </g>
     <g id="line2d_4">
      <g>
       <use style="fill:#555555;stroke:#555555;stroke-width:0.8;" x="128.122785" xlink:href="#ma8d31fcb08" y="307.584"/>
      </g>
     </g>
     <g id="text_2">
      <!-- 50 -->
      <defs>
       <path d="M 10.796875 72.90625 
L 49.515625 72.90625 
L 49.515625 64.59375 
L 19.828125 64.59375 
L 19.828125 46.734375 
Q 21.96875 47.46875 24.109375 47.828125 
Q 26.265625 48.1875 28.421875 48.1875 
Q 40.625 48.1875 47.75 41.5 
Q 54.890625 34.8125 54.890625 23.390625 
Q 54.890625 11.625 47.5625 5.09375 
Q 40.234375 -1.421875 26.90625 -1.421875 
Q 22.3125 -1.421875 17.546875 -0.640625 
Q 12.796875 0.140625 7.71875 1.703125 
L 7.71875 11.625 
Q 12.109375 9.234375 16.796875 8.0625 
Q 21.484375 6.890625 26.703125 6.890625 
Q 35.15625 6.890625 40.078125 11.328125 
Q 45.015625 15.765625 45.015625 23.390625 
Q 45.015625 31 40.078125 35.4375 
Q 35.15625 39.890625 26.703125 39.890625 
Q 22.75 39.890625 18.8125 39.015625 
Q 14.890625 38.140625 10.796875 36.28125 
z
" id="DejaVuSans-53"/>
      </defs>
      <g style="fill:#555555;" transform="translate(121.760285 322.182437)scale(0.1 -0.1)">
       <use xlink:href="#DejaVuSans-53"/>
       <use x="63.623047" xlink:href="#DejaVuSans-48"/>
      </g>
     </g>
    </g>
    <g id="xtick_3">
     <g id="line2d_5">
      <path clip-path="url(#pc6d7bc8052)" d="M 182.412843 307.584 
L 182.412843 41.472 
" style="fill:none;stroke:#ffffff;stroke-linecap:square;stroke-width:0.8;"/>
     </g>
     <g id="line2d_6">
      <g>
       <use style="fill:#555555;stroke:#555555;stroke-width:0.8;" x="182.412843" xlink:href="#ma8d31fcb08" y="307.584"/>
      </g>
     </g>
     <g id="text_3">
      <!-- 100 -->
      <defs>
       <path d="M 12.40625 8.296875 
L 28.515625 8.296875 
L 28.515625 63.921875 
L 10.984375 60.40625 
L 10.984375 69.390625 
L 28.421875 72.90625 
L 38.28125 72.90625 
L 38.28125 8.296875 
L 54.390625 8.296875 
L 54.390625 0 
L 12.40625 0 
z
" id="DejaVuSans-49"/>
      </defs>
      <g style="fill:#555555;" transform="translate(172.869093 322.182437)scale(0.1 -0.1)">
       <use xlink:href="#DejaVuSans-49"/>
       <use x="63.623047" xlink:href="#DejaVuSans-48"/>
       <use x="127.246094" xlink:href="#DejaVuSans-48"/>
      </g>
     </g>
    </g>
    <g id="xtick_4">
     <g id="line2d_7">
      <path clip-path="url(#pc6d7bc8052)" d="M 236.702901 307.584 
L 236.702901 41.472 
" style="fill:none;stroke:#ffffff;stroke-linecap:square;stroke-width:0.8;"/>
     </g>
     <g id="line2d_8">
      <g>
       <use style="fill:#555555;stroke:#555555;stroke-width:0.8;" x="236.702901" xlink:href="#ma8d31fcb08" y="307.584"/>
      </g>
     </g>
     <g id="text_4">
      <!-- 150 -->
      <g style="fill:#555555;" transform="translate(227.159151 322.182437)scale(0.1 -0.1)">
       <use xlink:href="#DejaVuSans-49"/>
       <use x="63.623047" xlink:href="#DejaVuSans-53"/>
       <use x="127.246094" xlink:href="#DejaVuSans-48"/>
      </g>
     </g>
    </g>
    <g id="xtick_5">
     <g id="line2d_9">
      <path clip-path="url(#pc6d7bc8052)" d="M 290.992958 307.584 
L 290.992958 41.472 
" style="fill:none;stroke:#ffffff;stroke-linecap:square;stroke-width:0.8;"/>
     </g>
     <g id="line2d_10">
      <g>
       <use style="fill:#555555;stroke:#555555;stroke-width:0.8;" x="290.992958" xlink:href="#ma8d31fcb08" y="307.584"/>
      </g>
     </g>
     <g id="text_5">
      <!-- 200 -->
      <defs>
       <path d="M 19.1875 8.296875 
L 53.609375 8.296875 
L 53.609375 0 
L 7.328125 0 
L 7.328125 8.296875 
Q 12.9375 14.109375 22.625 23.890625 
Q 32.328125 33.6875 34.8125 36.53125 
Q 39.546875 41.84375 41.421875 45.53125 
Q 43.3125 49.21875 43.3125 52.78125 
Q 43.3125 58.59375 39.234375 62.25 
Q 35.15625 65.921875 28.609375 65.921875 
Q 23.96875 65.921875 18.8125 64.3125 
Q 13.671875 62.703125 7.8125 59.421875 
L 7.8125 69.390625 
Q 13.765625 71.78125 18.9375 73 
Q 24.125 74.21875 28.421875 74.21875 
Q 39.75 74.21875 46.484375 68.546875 
Q 53.21875 62.890625 53.21875 53.421875 
Q 53.21875 48.921875 51.53125 44.890625 
Q 49.859375 40.875 45.40625 35.40625 
Q 44.1875 33.984375 37.640625 27.21875 
Q 31.109375 20.453125 19.1875 8.296875 
z
" id="DejaVuSans-50"/>
      </defs>
      <g style="fill:#555555;" transform="translate(281.449208 322.182437)scale(0.1 -0.1)">
       <use xlink:href="#DejaVuSans-50"/>
       <use x="63.623047" xlink:href="#DejaVuSans-48"/>
       <use x="127.246094" xlink:href="#DejaVuSans-48"/>
      </g>
     </g>
    </g>
    <g id="xtick_6">
     <g id="line2d_11">
      <path clip-path="url(#pc6d7bc8052)" d="M 345.283016 307.584 
L 345.283016 41.472 
" style="fill:none;stroke:#ffffff;stroke-linecap:square;stroke-width:0.8;"/>
     </g>
     <g id="line2d_12">
      <g>
       <use style="fill:#555555;stroke:#555555;stroke-width:0.8;" x="345.283016" xlink:href="#ma8d31fcb08" y="307.584"/>
      </g>
     </g>
     <g id="text_6">
      <!-- 250 -->
      <g style="fill:#555555;" transform="translate(335.739266 322.182437)scale(0.1 -0.1)">
       <use xlink:href="#DejaVuSans-50"/>
       <use x="63.623047" xlink:href="#DejaVuSans-53"/>
       <use x="127.246094" xlink:href="#DejaVuSans-48"/>
      </g>
     </g>
    </g>
    <g id="xtick_7">
     <g id="line2d_13">
      <path clip-path="url(#pc6d7bc8052)" d="M 399.573074 307.584 
L 399.573074 41.472 
" style="fill:none;stroke:#ffffff;stroke-linecap:square;stroke-width:0.8;"/>
     </g>
     <g id="line2d_14">
      <g>
       <use style="fill:#555555;stroke:#555555;stroke-width:0.8;" x="399.573074" xlink:href="#ma8d31fcb08" y="307.584"/>
      </g>
     </g>
     <g id="text_7">
      <!-- 300 -->
      <defs>
       <path d="M 40.578125 39.3125 
Q 47.65625 37.796875 51.625 33 
Q 55.609375 28.21875 55.609375 21.1875 
Q 55.609375 10.40625 48.1875 4.484375 
Q 40.765625 -1.421875 27.09375 -1.421875 
Q 22.515625 -1.421875 17.65625 -0.515625 
Q 12.796875 0.390625 7.625 2.203125 
L 7.625 11.71875 
Q 11.71875 9.328125 16.59375 8.109375 
Q 21.484375 6.890625 26.8125 6.890625 
Q 36.078125 6.890625 40.9375 10.546875 
Q 45.796875 14.203125 45.796875 21.1875 
Q 45.796875 27.640625 41.28125 31.265625 
Q 36.765625 34.90625 28.71875 34.90625 
L 20.21875 34.90625 
L 20.21875 43.015625 
L 29.109375 43.015625 
Q 36.375 43.015625 40.234375 45.921875 
Q 44.09375 48.828125 44.09375 54.296875 
Q 44.09375 59.90625 40.109375 62.90625 
Q 36.140625 65.921875 28.71875 65.921875 
Q 24.65625 65.921875 20.015625 65.03125 
Q 15.375 64.15625 9.8125 62.3125 
L 9.8125 71.09375 
Q 15.4375 72.65625 20.34375 73.4375 
Q 25.25 74.21875 29.59375 74.21875 
Q 40.828125 74.21875 47.359375 69.109375 
Q 53.90625 64.015625 53.90625 55.328125 
Q 53.90625 49.265625 50.4375 45.09375 
Q 46.96875 40.921875 40.578125 39.3125 
z
" id="DejaVuSans-51"/>
      </defs>
      <g style="fill:#555555;" transform="translate(390.029324 322.182437)scale(0.1 -0.1)">
       <use xlink:href="#DejaVuSans-51"/>
       <use x="63.623047" xlink:href="#DejaVuSans-48"/>
       <use x="127.246094" xlink:href="#DejaVuSans-48"/>
      </g>
     </g>
    </g>
    <g id="text_8">
     <!-- Epoch -->
     <defs>
      <path d="M 9.8125 72.90625 
L 55.90625 72.90625 
L 55.90625 64.59375 
L 19.671875 64.59375 
L 19.671875 43.015625 
L 54.390625 43.015625 
L 54.390625 34.71875 
L 19.671875 34.71875 
L 19.671875 8.296875 
L 56.78125 8.296875 
L 56.78125 0 
L 9.8125 0 
z
" id="DejaVuSans-69"/>
      <path d="M 18.109375 8.203125 
L 18.109375 -20.796875 
L 9.078125 -20.796875 
L 9.078125 54.6875 
L 18.109375 54.6875 
L 18.109375 46.390625 
Q 20.953125 51.265625 25.265625 53.625 
Q 29.59375 56 35.59375 56 
Q 45.5625 56 51.78125 48.09375 
Q 58.015625 40.1875 58.015625 27.296875 
Q 58.015625 14.40625 51.78125 6.484375 
Q 45.5625 -1.421875 35.59375 -1.421875 
Q 29.59375 -1.421875 25.265625 0.953125 
Q 20.953125 3.328125 18.109375 8.203125 
z
M 48.6875 27.296875 
Q 48.6875 37.203125 44.609375 42.84375 
Q 40.53125 48.484375 33.40625 48.484375 
Q 26.265625 48.484375 22.1875 42.84375 
Q 18.109375 37.203125 18.109375 27.296875 
Q 18.109375 17.390625 22.1875 11.75 
Q 26.265625 6.109375 33.40625 6.109375 
Q 40.53125 6.109375 44.609375 11.75 
Q 48.6875 17.390625 48.6875 27.296875 
z
" id="DejaVuSans-112"/>
      <path d="M 30.609375 48.390625 
Q 23.390625 48.390625 19.1875 42.75 
Q 14.984375 37.109375 14.984375 27.296875 
Q 14.984375 17.484375 19.15625 11.84375 
Q 23.34375 6.203125 30.609375 6.203125 
Q 37.796875 6.203125 41.984375 11.859375 
Q 46.1875 17.53125 46.1875 27.296875 
Q 46.1875 37.015625 41.984375 42.703125 
Q 37.796875 48.390625 30.609375 48.390625 
z
M 30.609375 56 
Q 42.328125 56 49.015625 48.375 
Q 55.71875 40.765625 55.71875 27.296875 
Q 55.71875 13.875 49.015625 6.21875 
Q 42.328125 -1.421875 30.609375 -1.421875 
Q 18.84375 -1.421875 12.171875 6.21875 
Q 5.515625 13.875 5.515625 27.296875 
Q 5.515625 40.765625 12.171875 48.375 
Q 18.84375 56 30.609375 56 
z
" id="DejaVuSans-111"/>
      <path d="M 48.78125 52.59375 
L 48.78125 44.1875 
Q 44.96875 46.296875 41.140625 47.34375 
Q 37.3125 48.390625 33.40625 48.390625 
Q 24.65625 48.390625 19.8125 42.84375 
Q 14.984375 37.3125 14.984375 27.296875 
Q 14.984375 17.28125 19.8125 11.734375 
Q 24.65625 6.203125 33.40625 6.203125 
Q 37.3125 6.203125 41.140625 7.25 
Q 44.96875 8.296875 48.78125 10.40625 
L 48.78125 2.09375 
Q 45.015625 0.34375 40.984375 -0.53125 
Q 36.96875 -1.421875 32.421875 -1.421875 
Q 20.0625 -1.421875 12.78125 6.34375 
Q 5.515625 14.109375 5.515625 27.296875 
Q 5.515625 40.671875 12.859375 48.328125 
Q 20.21875 56 33.015625 56 
Q 37.15625 56 41.109375 55.140625 
Q 45.0625 54.296875 48.78125 52.59375 
z
" id="DejaVuSans-99"/>
      <path d="M 54.890625 33.015625 
L 54.890625 0 
L 45.90625 0 
L 45.90625 32.71875 
Q 45.90625 40.484375 42.875 44.328125 
Q 39.84375 48.1875 33.796875 48.1875 
Q 26.515625 48.1875 22.3125 43.546875 
Q 18.109375 38.921875 18.109375 30.90625 
L 18.109375 0 
L 9.078125 0 
L 9.078125 75.984375 
L 18.109375 75.984375 
L 18.109375 46.1875 
Q 21.34375 51.125 25.703125 53.5625 
Q 30.078125 56 35.796875 56 
Q 45.21875 56 50.046875 50.171875 
Q 54.890625 44.34375 54.890625 33.015625 
z
" id="DejaVuSans-104"/>
     </defs>
     <g style="fill:#555555;" transform="translate(205.538125 343.459)scale(0.2 -0.2)">
      <use xlink:href="#DejaVuSans-69"/>
      <use x="63.183594" xlink:href="#DejaVuSans-112"/>
      <use x="126.660156" xlink:href="#DejaVuSans-111"/>
      <use x="187.841797" xlink:href="#DejaVuSans-99"/>
      <use x="242.822266" xlink:href="#DejaVuSans-104"/>
     </g>
    </g>
   </g>
   <g id="matplotlib.axis_2">
    <g id="ytick_1">
     <g id="line2d_15">
      <path clip-path="url(#pc6d7bc8052)" d="M 57.6 305.551647 
L 414.72 305.551647 
" style="fill:none;stroke:#ffffff;stroke-linecap:square;stroke-width:0.8;"/>
     </g>
     <g id="line2d_16">
      <defs>
       <path d="M 0 0 
L -3.5 0 
" id="m9294059d10" style="stroke:#555555;stroke-width:0.8;"/>
      </defs>
      <g>
       <use style="fill:#555555;stroke:#555555;stroke-width:0.8;" x="57.6" xlink:href="#m9294059d10" y="305.551647"/>
      </g>
     </g>
     <g id="text_9">
      <!-- 0.91 -->
      <defs>
       <path d="M 10.6875 12.40625 
L 21 12.40625 
L 21 0 
L 10.6875 0 
z
" id="DejaVuSans-46"/>
       <path d="M 10.984375 1.515625 
L 10.984375 10.5 
Q 14.703125 8.734375 18.5 7.8125 
Q 22.3125 6.890625 25.984375 6.890625 
Q 35.75 6.890625 40.890625 13.453125 
Q 46.046875 20.015625 46.78125 33.40625 
Q 43.953125 29.203125 39.59375 26.953125 
Q 35.25 24.703125 29.984375 24.703125 
Q 19.046875 24.703125 12.671875 31.3125 
Q 6.296875 37.9375 6.296875 49.421875 
Q 6.296875 60.640625 12.9375 67.421875 
Q 19.578125 74.21875 30.609375 74.21875 
Q 43.265625 74.21875 49.921875 64.515625 
Q 56.59375 54.828125 56.59375 36.375 
Q 56.59375 19.140625 48.40625 8.859375 
Q 40.234375 -1.421875 26.421875 -1.421875 
Q 22.703125 -1.421875 18.890625 -0.6875 
Q 15.09375 0.046875 10.984375 1.515625 
z
M 30.609375 32.421875 
Q 37.25 32.421875 41.125 36.953125 
Q 45.015625 41.5 45.015625 49.421875 
Q 45.015625 57.28125 41.125 61.84375 
Q 37.25 66.40625 30.609375 66.40625 
Q 23.96875 66.40625 20.09375 61.84375 
Q 16.21875 57.28125 16.21875 49.421875 
Q 16.21875 41.5 20.09375 36.953125 
Q 23.96875 32.421875 30.609375 32.421875 
z
" id="DejaVuSans-57"/>
      </defs>
      <g style="fill:#555555;" transform="translate(28.334375 309.350866)scale(0.1 -0.1)">
       <use xlink:href="#DejaVuSans-48"/>
       <use x="63.623047" xlink:href="#DejaVuSans-46"/>
       <use x="95.410156" xlink:href="#DejaVuSans-57"/>
       <use x="159.033203" xlink:href="#DejaVuSans-49"/>
      </g>
     </g>
    </g>
    <g id="ytick_2">
     <g id="line2d_17">
      <path clip-path="url(#pc6d7bc8052)" d="M 57.6 262.387111 
L 414.72 262.387111 
" style="fill:none;stroke:#ffffff;stroke-linecap:square;stroke-width:0.8;"/>
     </g>
     <g id="line2d_18">
      <g>
       <use style="fill:#555555;stroke:#555555;stroke-width:0.8;" x="57.6" xlink:href="#m9294059d10" y="262.387111"/>
      </g>
     </g>
     <g id="text_10">
      <!-- 0.92 -->
      <g style="fill:#555555;" transform="translate(28.334375 266.18633)scale(0.1 -0.1)">
       <use xlink:href="#DejaVuSans-48"/>
       <use x="63.623047" xlink:href="#DejaVuSans-46"/>
       <use x="95.410156" xlink:href="#DejaVuSans-57"/>
       <use x="159.033203" xlink:href="#DejaVuSans-50"/>
      </g>
     </g>
    </g>
    <g id="ytick_3">
     <g id="line2d_19">
      <path clip-path="url(#pc6d7bc8052)" d="M 57.6 219.222574 
L 414.72 219.222574 
" style="fill:none;stroke:#ffffff;stroke-linecap:square;stroke-width:0.8;"/>
     </g>
     <g id="line2d_20">
      <g>
       <use style="fill:#555555;stroke:#555555;stroke-width:0.8;" x="57.6" xlink:href="#m9294059d10" y="219.222574"/>
      </g>
     </g>
     <g id="text_11">
      <!-- 0.93 -->
      <g style="fill:#555555;" transform="translate(28.334375 223.021793)scale(0.1 -0.1)">
       <use xlink:href="#DejaVuSans-48"/>
       <use x="63.623047" xlink:href="#DejaVuSans-46"/>
       <use x="95.410156" xlink:href="#DejaVuSans-57"/>
       <use x="159.033203" xlink:href="#DejaVuSans-51"/>
      </g>
     </g>
    </g>
    <g id="ytick_4">
     <g id="line2d_21">
      <path clip-path="url(#pc6d7bc8052)" d="M 57.6 176.058038 
L 414.72 176.058038 
" style="fill:none;stroke:#ffffff;stroke-linecap:square;stroke-width:0.8;"/>
     </g>
     <g id="line2d_22">
      <g>
       <use style="fill:#555555;stroke:#555555;stroke-width:0.8;" x="57.6" xlink:href="#m9294059d10" y="176.058038"/>
      </g>
     </g>
     <g id="text_12">
      <!-- 0.94 -->
      <defs>
       <path d="M 37.796875 64.3125 
L 12.890625 25.390625 
L 37.796875 25.390625 
z
M 35.203125 72.90625 
L 47.609375 72.90625 
L 47.609375 25.390625 
L 58.015625 25.390625 
L 58.015625 17.1875 
L 47.609375 17.1875 
L 47.609375 0 
L 37.796875 0 
L 37.796875 17.1875 
L 4.890625 17.1875 
L 4.890625 26.703125 
z
" id="DejaVuSans-52"/>
      </defs>
      <g style="fill:#555555;" transform="translate(28.334375 179.857257)scale(0.1 -0.1)">
       <use xlink:href="#DejaVuSans-48"/>
       <use x="63.623047" xlink:href="#DejaVuSans-46"/>
       <use x="95.410156" xlink:href="#DejaVuSans-57"/>
       <use x="159.033203" xlink:href="#DejaVuSans-52"/>
      </g>
     </g>
    </g>
    <g id="ytick_5">
     <g id="line2d_23">
      <path clip-path="url(#pc6d7bc8052)" d="M 57.6 132.893502 
L 414.72 132.893502 
" style="fill:none;stroke:#ffffff;stroke-linecap:square;stroke-width:0.8;"/>
     </g>
     <g id="line2d_24">
      <g>
       <use style="fill:#555555;stroke:#555555;stroke-width:0.8;" x="57.6" xlink:href="#m9294059d10" y="132.893502"/>
      </g>
     </g>
     <g id="text_13">
      <!-- 0.95 -->
      <g style="fill:#555555;" transform="translate(28.334375 136.69272)scale(0.1 -0.1)">
       <use xlink:href="#DejaVuSans-48"/>
       <use x="63.623047" xlink:href="#DejaVuSans-46"/>
       <use x="95.410156" xlink:href="#DejaVuSans-57"/>
       <use x="159.033203" xlink:href="#DejaVuSans-53"/>
      </g>
     </g>
    </g>
    <g id="ytick_6">
     <g id="line2d_25">
      <path clip-path="url(#pc6d7bc8052)" d="M 57.6 89.728965 
L 414.72 89.728965 
" style="fill:none;stroke:#ffffff;stroke-linecap:square;stroke-width:0.8;"/>
     </g>
     <g id="line2d_26">
      <g>
       <use style="fill:#555555;stroke:#555555;stroke-width:0.8;" x="57.6" xlink:href="#m9294059d10" y="89.728965"/>
      </g>
     </g>
     <g id="text_14">
      <!-- 0.96 -->
      <defs>
       <path d="M 33.015625 40.375 
Q 26.375 40.375 22.484375 35.828125 
Q 18.609375 31.296875 18.609375 23.390625 
Q 18.609375 15.53125 22.484375 10.953125 
Q 26.375 6.390625 33.015625 6.390625 
Q 39.65625 6.390625 43.53125 10.953125 
Q 47.40625 15.53125 47.40625 23.390625 
Q 47.40625 31.296875 43.53125 35.828125 
Q 39.65625 40.375 33.015625 40.375 
z
M 52.59375 71.296875 
L 52.59375 62.3125 
Q 48.875 64.0625 45.09375 64.984375 
Q 41.3125 65.921875 37.59375 65.921875 
Q 27.828125 65.921875 22.671875 59.328125 
Q 17.53125 52.734375 16.796875 39.40625 
Q 19.671875 43.65625 24.015625 45.921875 
Q 28.375 48.1875 33.59375 48.1875 
Q 44.578125 48.1875 50.953125 41.515625 
Q 57.328125 34.859375 57.328125 23.390625 
Q 57.328125 12.15625 50.6875 5.359375 
Q 44.046875 -1.421875 33.015625 -1.421875 
Q 20.359375 -1.421875 13.671875 8.265625 
Q 6.984375 17.96875 6.984375 36.375 
Q 6.984375 53.65625 15.1875 63.9375 
Q 23.390625 74.21875 37.203125 74.21875 
Q 40.921875 74.21875 44.703125 73.484375 
Q 48.484375 72.75 52.59375 71.296875 
z
" id="DejaVuSans-54"/>
      </defs>
      <g style="fill:#555555;" transform="translate(28.334375 93.528184)scale(0.1 -0.1)">
       <use xlink:href="#DejaVuSans-48"/>
       <use x="63.623047" xlink:href="#DejaVuSans-46"/>
       <use x="95.410156" xlink:href="#DejaVuSans-57"/>
       <use x="159.033203" xlink:href="#DejaVuSans-54"/>
      </g>
     </g>
    </g>
    <g id="ytick_7">
     <g id="line2d_27">
      <path clip-path="url(#pc6d7bc8052)" d="M 57.6 46.564429 
L 414.72 46.564429 
" style="fill:none;stroke:#ffffff;stroke-linecap:square;stroke-width:0.8;"/>
     </g>
     <g id="line2d_28">
      <g>
       <use style="fill:#555555;stroke:#555555;stroke-width:0.8;" x="57.6" xlink:href="#m9294059d10" y="46.564429"/>
      </g>
     </g>
     <g id="text_15">
      <!-- 0.97 -->
      <defs>
       <path d="M 8.203125 72.90625 
L 55.078125 72.90625 
L 55.078125 68.703125 
L 28.609375 0 
L 18.3125 0 
L 43.21875 64.59375 
L 8.203125 64.59375 
z
" id="DejaVuSans-55"/>
      </defs>
      <g style="fill:#555555;" transform="translate(28.334375 50.363647)scale(0.1 -0.1)">
       <use xlink:href="#DejaVuSans-48"/>
       <use x="63.623047" xlink:href="#DejaVuSans-46"/>
       <use x="95.410156" xlink:href="#DejaVuSans-57"/>
       <use x="159.033203" xlink:href="#DejaVuSans-55"/>
      </g>
     </g>
    </g>
    <g id="text_16">
     <!-- Accuracy -->
     <defs>
      <path d="M 34.1875 63.1875 
L 20.796875 26.90625 
L 47.609375 26.90625 
z
M 28.609375 72.90625 
L 39.796875 72.90625 
L 67.578125 0 
L 57.328125 0 
L 50.6875 18.703125 
L 17.828125 18.703125 
L 11.1875 0 
L 0.78125 0 
z
" id="DejaVuSans-65"/>
      <path d="M 8.5 21.578125 
L 8.5 54.6875 
L 17.484375 54.6875 
L 17.484375 21.921875 
Q 17.484375 14.15625 20.5 10.265625 
Q 23.53125 6.390625 29.59375 6.390625 
Q 36.859375 6.390625 41.078125 11.03125 
Q 45.3125 15.671875 45.3125 23.6875 
L 45.3125 54.6875 
L 54.296875 54.6875 
L 54.296875 0 
L 45.3125 0 
L 45.3125 8.40625 
Q 42.046875 3.421875 37.71875 1 
Q 33.40625 -1.421875 27.6875 -1.421875 
Q 18.265625 -1.421875 13.375 4.4375 
Q 8.5 10.296875 8.5 21.578125 
z
M 31.109375 56 
z
" id="DejaVuSans-117"/>
      <path d="M 41.109375 46.296875 
Q 39.59375 47.171875 37.8125 47.578125 
Q 36.03125 48 33.890625 48 
Q 26.265625 48 22.1875 43.046875 
Q 18.109375 38.09375 18.109375 28.8125 
L 18.109375 0 
L 9.078125 0 
L 9.078125 54.6875 
L 18.109375 54.6875 
L 18.109375 46.1875 
Q 20.953125 51.171875 25.484375 53.578125 
Q 30.03125 56 36.53125 56 
Q 37.453125 56 38.578125 55.875 
Q 39.703125 55.765625 41.0625 55.515625 
z
" id="DejaVuSans-114"/>
      <path d="M 34.28125 27.484375 
Q 23.390625 27.484375 19.1875 25 
Q 14.984375 22.515625 14.984375 16.5 
Q 14.984375 11.71875 18.140625 8.90625 
Q 21.296875 6.109375 26.703125 6.109375 
Q 34.1875 6.109375 38.703125 11.40625 
Q 43.21875 16.703125 43.21875 25.484375 
L 43.21875 27.484375 
z
M 52.203125 31.203125 
L 52.203125 0 
L 43.21875 0 
L 43.21875 8.296875 
Q 40.140625 3.328125 35.546875 0.953125 
Q 30.953125 -1.421875 24.3125 -1.421875 
Q 15.921875 -1.421875 10.953125 3.296875 
Q 6 8.015625 6 15.921875 
Q 6 25.140625 12.171875 29.828125 
Q 18.359375 34.515625 30.609375 34.515625 
L 43.21875 34.515625 
L 43.21875 35.40625 
Q 43.21875 41.609375 39.140625 45 
Q 35.0625 48.390625 27.6875 48.390625 
Q 23 48.390625 18.546875 47.265625 
Q 14.109375 46.140625 10.015625 43.890625 
L 10.015625 52.203125 
Q 14.9375 54.109375 19.578125 55.046875 
Q 24.21875 56 28.609375 56 
Q 40.484375 56 46.34375 49.84375 
Q 52.203125 43.703125 52.203125 31.203125 
z
" id="DejaVuSans-97"/>
      <path d="M 32.171875 -5.078125 
Q 28.375 -14.84375 24.75 -17.8125 
Q 21.140625 -20.796875 15.09375 -20.796875 
L 7.90625 -20.796875 
L 7.90625 -13.28125 
L 13.1875 -13.28125 
Q 16.890625 -13.28125 18.9375 -11.515625 
Q 21 -9.765625 23.484375 -3.21875 
L 25.09375 0.875 
L 2.984375 54.6875 
L 12.5 54.6875 
L 29.59375 11.921875 
L 46.6875 54.6875 
L 56.203125 54.6875 
z
" id="DejaVuSans-121"/>
     </defs>
     <g style="fill:#555555;" transform="translate(20.175 220.18425)rotate(-90)scale(0.2 -0.2)">
      <use xlink:href="#DejaVuSans-65"/>
      <use x="66.658203" xlink:href="#DejaVuSans-99"/>
      <use x="121.638672" xlink:href="#DejaVuSans-99"/>
      <use x="176.619141" xlink:href="#DejaVuSans-117"/>
      <use x="239.998047" xlink:href="#DejaVuSans-114"/>
      <use x="281.111328" xlink:href="#DejaVuSans-97"/>
      <use x="342.390625" xlink:href="#DejaVuSans-99"/>
      <use x="397.371094" xlink:href="#DejaVuSans-121"/>
     </g>
    </g>
   </g>
   <g id="line2d_29">
    <path clip-path="url(#pc6d7bc8052)" d="M 73.832727 295.488 
L 74.918528 243.298098 
L 76.00433 254.323862 
L 77.090131 272.392685 
L 78.175932 285.426267 
L 79.261733 266.383894 
L 80.347534 241.288479 
L 81.433335 251.314964 
L 82.519137 253.324327 
L 83.604938 235.241868 
L 84.690739 259.333632 
L 85.77654 256.333482 
L 86.862341 245.291766 
L 87.948142 240.270419 
L 89.033943 246.300307 
L 90.119745 237.252002 
L 91.205546 247.297012 
L 92.291347 227.227832 
L 93.377148 237.256376 
L 94.462949 245.282247 
L 95.54875 250.303594 
L 96.634552 233.247686 
L 97.720353 231.240639 
L 98.806154 210.16755 
L 99.891955 237.263837 
L 100.977756 224.204269 
L 102.063557 231.252474 
L 103.149358 229.230505 
L 104.23516 221.206949 
L 105.320961 201.1141 
L 106.406762 209.151548 
L 107.492563 220.20304 
L 108.578364 221.199746 
L 109.664165 196.104587 
L 110.749967 207.13241 
L 111.835768 227.202361 
L 112.921569 218.176955 
L 114.00737 186.084791 
L 115.093171 198.123726 
L 116.178972 192.09847 
L 117.264773 171.015861 
L 118.350575 193.083083 
L 119.436376 178.040396 
L 120.522177 174.027075 
L 121.607978 196.103816 
L 122.693779 170.004491 
L 123.77958 186.056748 
L 124.865382 174.010609 
L 125.951183 182.043683 
L 127.036984 178.039881 
L 128.122785 178.032935 
L 129.208586 171.019978 
L 130.294387 176.011738 
L 131.380189 158.972295 
L 132.46599 176.023315 
L 133.551791 169.012931 
L 134.637592 188.071255 
L 135.723393 180.052331 
L 136.809194 143.919059 
L 138.980797 175.014775 
L 141.152399 154.963605 
L 142.2382 163.975118 
L 143.324001 164.981086 
L 144.409802 172.007936 
L 145.495604 158.979242 
L 146.581405 180.047957 
L 147.667206 143.907996 
L 148.753007 148.929344 
L 149.838808 148.921882 
L 150.924609 168.004391 
L 152.01041 144.920653 
L 153.096212 145.920189 
L 154.182013 159.95485 
L 155.267814 149.923476 
L 156.353615 150.936905 
L 157.439416 125.845606 
L 158.525217 148.924455 
L 159.611019 153.920589 
L 160.69682 122.836966 
L 161.782621 140.910419 
L 162.868422 134.870755 
L 163.954223 150.941536 
L 165.040024 158.96046 
L 166.125825 142.903573 
L 167.211627 143.917001 
L 168.297428 148.933717 
L 169.383229 121.834857 
L 170.46903 151.935926 
L 171.554831 126.83768 
L 172.640632 130.872356 
L 173.726434 145.934082 
L 174.812235 143.896162 
L 175.898036 140.9009 
L 176.983837 131.873435 
L 178.069638 129.856354 
L 179.155439 146.914321 
L 180.24124 149.920903 
L 181.327042 135.870033 
L 182.412843 126.83768 
L 183.498644 137.873221 
L 184.584445 128.852703 
L 185.670246 136.883205 
L 186.756047 152.930573 
L 187.841849 134.880017 
L 188.92765 130.867468 
L 190.013451 150.929444 
L 191.099252 128.850387 
L 192.185053 132.862937 
L 193.270854 114.796687 
L 194.356656 137.898434 
L 195.442457 137.889172 
L 196.528258 134.873071 
L 197.614059 108.785581 
L 198.69986 137.870648 
L 199.785661 124.839638 
L 200.871462 130.860264 
L 201.957264 96.737126 
L 203.043065 123.826467 
L 204.128866 125.843548 
L 205.214667 120.814997 
L 206.300468 104.758109 
L 207.386269 132.858563 
L 208.472071 122.836451 
L 209.557872 131.863916 
L 210.643673 106.779821 
L 211.729474 129.858927 
L 212.815275 141.888343 
L 213.901076 121.823022 
L 214.986877 129.863301 
L 216.072679 116.80219 
L 217.15848 124.846585 
L 218.244281 118.800232 
L 219.330082 118.791227 
L 220.415883 113.788147 
L 221.501684 104.774575 
L 222.587486 92.731266 
L 223.673287 128.862222 
L 224.759088 113.797409 
L 225.844889 126.828675 
L 226.93069 117.805842 
L 228.016491 114.789483 
L 229.102292 116.815826 
L 230.188094 123.845506 
L 231.273895 121.818906 
L 232.359696 120.824259 
L 233.445497 124.837066 
L 234.531298 103.75703 
L 235.617099 89.710276 
L 236.702901 113.80204 
L 237.788702 116.806564 
L 238.874503 112.788868 
L 239.960304 103.759088 
L 241.046105 115.814489 
L 242.131906 119.818291 
L 243.217708 104.75142 
L 244.303509 120.807793 
L 245.38931 121.820964 
L 246.475111 102.743601 
L 247.560912 119.794879 
L 248.646713 98.737741 
L 249.732514 122.826932 
L 250.818316 128.852703 
L 251.904117 93.725399 
L 252.989918 84.69356 
L 254.075719 120.810366 
L 255.16152 112.777033 
L 256.247321 105.776426 
L 257.333123 104.756051 
L 258.418924 97.726628 
L 259.504725 115.798023 
L 260.590526 95.731159 
L 261.676327 96.739699 
L 262.762128 131.840503 
L 263.847929 104.760939 
L 264.933731 87.698084 
L 266.019532 105.77411 
L 267.105333 98.737741 
L 268.191134 95.728586 
L 269.276935 115.779499 
L 270.362736 104.76557 
L 271.448538 99.736762 
L 272.534339 113.804612 
L 273.62014 131.86443 
L 274.705941 97.750555 
L 275.791742 77.666967 
L 276.877543 116.811195 
L 277.963344 87.690623 
L 279.049146 85.681003 
L 280.134947 97.736147 
L 281.220748 97.748239 
L 282.306549 98.740314 
L 283.39235 98.73311 
L 284.478151 92.719431 
L 285.563953 98.740314 
L 286.649754 82.664902 
L 287.735555 88.699163 
L 288.821356 108.762168 
L 289.907157 105.762533 
L 290.992958 89.69381 
L 292.07876 106.77519 
L 293.164561 98.742629 
L 294.250362 96.702651 
L 295.336163 96.73018 
L 296.421964 91.708833 
L 297.507765 105.769222 
L 298.593566 101.751784 
L 299.679368 95.733474 
L 300.765169 103.759088 
L 301.85097 79.672213 
L 302.936771 106.749719 
L 304.022572 102.745917 
L 305.108373 99.746281 
L 306.194175 76.667946 
L 307.279976 85.68795 
L 308.365777 105.757644 
L 309.451578 90.71187 
L 310.537379 84.67941 
L 311.62318 84.688929 
L 312.708981 95.723955 
L 313.794783 92.7148 
L 314.880584 90.716244 
L 315.966385 78.665731 
L 317.052186 79.65832 
L 318.137987 97.722254 
L 319.223788 79.667325 
L 320.30959 76.665631 
L 321.395391 94.726992 
L 322.481192 80.675865 
L 323.566993 68.627668 
L 324.652794 100.745817 
L 325.738595 104.751162 
L 326.824396 100.729351 
L 327.910198 86.703694 
L 328.995999 92.719431 
L 330.0818 92.707853 
L 331.167601 93.704816 
L 332.253402 81.677459 
L 333.339203 82.676737 
L 334.425005 80.675865 
L 335.510806 59.595572 
L 336.596607 88.709197 
L 337.682408 90.721389 
L 338.768209 86.684655 
L 339.85401 91.711405 
L 340.939811 60.599224 
L 342.025613 81.653789 
L 343.111414 82.667475 
L 344.197215 72.635843 
L 345.283016 83.687335 
L 346.368817 64.616919 
L 347.454618 87.707603 
L 348.54042 75.640625 
L 349.626221 87.684191 
L 350.712022 79.677101 
L 351.797823 85.687693 
L 352.883624 82.681368 
L 353.969425 77.654618 
L 355.055227 75.644998 
L 356.141028 79.667325 
L 357.226829 65.602047 
L 358.31263 77.638666 
L 359.398431 75.654518 
L 360.484232 77.65256 
L 361.570033 83.692481 
L 362.655835 54.583487 
L 363.741636 83.687335 
L 364.827437 74.645977 
L 365.913238 88.692217 
L 366.999039 86.69649 
L 368.08484 77.669026 
L 369.170642 84.690987 
L 370.256443 81.674886 
L 371.342244 65.606678 
L 372.428045 61.598759 
L 373.513846 76.661 
L 374.599647 83.682962 
L 375.685448 54.564448 
L 376.77125 71.63425 
L 377.857051 72.633528 
L 378.942852 74.650609 
L 380.028653 67.628132 
L 381.114454 58.596551 
L 382.200255 69.641096 
L 383.286057 73.653903 
L 384.371858 84.688672 
L 385.457659 69.633635 
L 386.54346 79.671698 
L 387.629261 82.678795 
L 388.715062 58.587032 
L 389.800863 79.643912 
L 390.886665 55.568615 
L 391.972466 60.601282 
L 393.058267 83.673442 
L 394.144068 56.567636 
L 395.229869 78.649265 
L 396.31567 54.57654 
L 397.401472 63.622529 
L 398.487273 71.641454 
L 398.487273 71.641454 
" style="fill:none;stroke:#e24a33;stroke-linecap:square;stroke-width:3;"/>
   </g>
   <g id="line2d_30">
    <path clip-path="url(#pc6d7bc8052)" d="M 73.832727 282.417112 
L 74.918528 287.454925 
L 76.00433 257.340478 
L 77.090131 255.334718 
L 78.175932 243.281632 
L 79.261733 251.30313 
L 80.347534 250.318002 
L 81.433335 242.280296 
L 82.519137 243.300671 
L 83.604938 241.276129 
L 84.690739 243.300157 
L 85.77654 270.394643 
L 86.862341 240.263215 
L 87.948142 273.378327 
L 89.033943 228.224023 
L 90.119745 262.366199 
L 91.205546 222.205713 
L 92.291347 213.17619 
L 94.462949 249.292996 
L 95.54875 231.226488 
L 96.634552 240.265531 
L 97.720353 225.205863 
L 98.806154 206.142651 
L 99.891955 226.22135 
L 100.977756 217.189254 
L 102.063557 203.147646 
L 103.149358 222.215232 
L 104.23516 189.091116 
L 105.320961 206.142393 
L 106.406762 202.124698 
L 107.492563 209.151548 
L 108.578364 217.189254 
L 109.664165 176.030262 
L 110.749967 190.077016 
L 111.835768 210.157516 
L 112.921569 180.050015 
L 114.00737 183.056597 
L 115.093171 176.03232 
L 116.178972 174.025016 
L 117.264773 183.04502 
L 118.350575 177.024394 
L 119.436376 172.014882 
L 120.522177 136.897098 
L 121.607978 189.074907 
L 122.693779 141.918959 
L 124.865382 171.013031 
L 125.951183 154.959231 
L 127.036984 180.050015 
L 128.122785 153.945545 
L 129.208586 168.993892 
L 130.294387 179.034786 
L 131.380189 160.97008 
L 132.46599 188.066367 
L 133.551791 184.06308 
L 134.637592 143.92189 
L 135.723393 140.907846 
L 136.809194 165.996315 
L 137.894995 139.896991 
L 138.980797 120.840725 
L 140.066598 148.931402 
L 141.152399 144.890551 
L 142.2382 145.925077 
L 143.324001 139.894418 
L 144.409802 155.96314 
L 145.495604 120.81937 
L 146.581405 127.853167 
L 147.667206 165.006556 
L 148.753007 124.844012 
L 149.838808 126.842569 
L 150.924609 156.957787 
L 152.01041 137.880167 
L 153.096212 139.885413 
L 154.182013 136.871627 
L 155.267814 118.816698 
L 156.353615 142.903573 
L 157.439416 136.878316 
L 158.525217 139.891845 
L 159.611019 146.916637 
L 160.69682 132.884548 
L 161.782621 134.873071 
L 162.868422 125.845606 
L 163.954223 156.962161 
L 165.040024 134.873071 
L 166.125825 127.830269 
L 167.211627 139.88284 
L 168.297428 133.865045 
L 169.383229 129.863301 
L 170.46903 104.770458 
L 171.554831 136.878574 
L 172.640632 138.890766 
L 173.726434 117.803269 
L 174.812235 119.813403 
L 175.898036 117.812788 
L 176.983837 128.859392 
L 178.069638 114.803633 
L 179.155439 145.9153 
L 180.24124 136.850787 
L 181.327042 128.850387 
L 182.412843 118.811809 
L 183.498644 123.824152 
L 184.584445 131.854396 
L 185.670246 122.829504 
L 186.756047 117.820249 
L 187.841849 113.80204 
L 188.92765 104.762997 
L 190.013451 126.83768 
L 191.099252 135.867718 
L 192.185053 118.802804 
L 193.270854 147.91823 
L 194.356656 112.798388 
L 195.442457 107.772152 
L 196.528258 121.814275 
L 197.614059 125.84329 
L 198.69986 135.876723 
L 199.785661 138.885877 
L 200.871462 111.796794 
L 201.957264 122.826932 
L 203.043065 117.815104 
L 204.128866 98.754207 
L 205.214667 132.868082 
L 206.300468 135.867718 
L 207.386269 119.813403 
L 208.472071 118.821329 
L 209.557872 114.798745 
L 210.643673 112.791441 
L 211.729474 101.758731 
L 212.815275 108.776319 
L 213.901076 121.818906 
L 214.986877 101.749469 
L 216.072679 103.766549 
L 217.15848 124.827546 
L 218.244281 128.850387 
L 220.415883 105.762018 
L 221.501684 129.858927 
L 222.587486 104.756051 
L 223.673287 105.769222 
L 224.759088 103.770923 
L 225.844889 91.708318 
L 226.93069 113.797409 
L 228.016491 123.833156 
L 229.102292 103.766549 
L 230.188094 105.767164 
L 231.273895 93.725913 
L 232.359696 117.805842 
L 233.445497 101.753842 
L 234.531298 103.770923 
L 235.617099 107.771895 
L 236.702901 99.743708 
L 237.788702 117.8079 
L 238.874503 85.700042 
L 239.960304 95.731159 
L 241.046105 111.791906 
L 242.131906 97.726628 
L 243.217708 103.750083 
L 244.303509 107.776783 
L 245.38931 103.766549 
L 246.475111 91.708318 
L 247.560912 94.713099 
L 248.646713 109.786917 
L 249.732514 99.73882 
L 250.818316 117.808157 
L 251.904117 82.678795 
L 252.989918 87.690623 
L 254.075719 89.70333 
L 255.16152 104.762997 
L 256.247321 114.787167 
L 257.333123 87.695768 
L 258.418924 95.735533 
L 259.504725 93.721025 
L 260.590526 106.749719 
L 261.676327 88.708683 
L 262.762128 99.743708 
L 263.847929 92.722261 
L 264.933731 86.696233 
L 266.019532 116.806564 
L 267.105333 85.683062 
L 268.191134 110.785938 
L 269.276935 87.700657 
L 270.362736 106.763612 
L 271.448538 113.793035 
L 273.62014 82.681368 
L 274.705941 85.704416 
L 275.791742 72.638416 
L 276.877543 96.73018 
L 277.963344 75.654518 
L 279.049146 81.672313 
L 280.134947 84.681982 
L 281.220748 95.735533 
L 282.306549 94.731881 
L 283.39235 112.790927 
L 285.563953 96.732495 
L 286.649754 108.780693 
L 287.735555 96.716029 
L 288.821356 99.729815 
L 289.907157 96.737126 
L 290.992958 82.675965 
L 292.07876 106.752034 
L 293.164561 96.723233 
L 294.250362 97.729715 
L 295.336163 82.667475 
L 296.421964 87.707089 
L 297.507765 70.644748 
L 298.593566 94.710526 
L 299.679368 79.66681 
L 300.765169 81.660993 
L 301.85097 78.666245 
L 302.936771 94.724677 
L 304.022572 80.671234 
L 305.108373 86.69366 
L 306.194175 85.678688 
L 307.279976 89.710276 
L 308.365777 100.75019 
L 309.451578 78.673192 
L 310.537379 90.726278 
L 311.62318 78.6611 
L 312.708981 83.680389 
L 313.794783 94.713099 
L 314.880584 74.662443 
L 315.966385 78.661614 
L 318.137987 80.685384 
L 319.223788 73.630491 
L 320.30959 93.725399 
L 321.395391 89.69381 
L 322.481192 100.735783 
L 323.566993 96.737126 
L 324.652794 91.713464 
L 325.738595 88.694789 
L 326.824396 79.66964 
L 327.910198 101.753842 
L 328.995999 78.673192 
L 330.0818 60.599224 
L 331.167601 75.654518 
L 332.253402 75.656576 
L 333.339203 62.611931 
L 334.425005 85.697469 
L 335.510806 79.66964 
L 336.596607 74.639031 
L 337.682408 90.704409 
L 338.768209 69.626689 
L 339.85401 88.713571 
L 340.939811 78.668304 
L 342.025613 77.641239 
L 343.111414 91.708833 
L 344.197215 98.745202 
L 345.283016 77.655647 
L 346.368817 73.653903 
L 347.454618 66.629626 
L 348.54042 90.704409 
L 349.626221 77.659763 
L 350.712022 72.633785 
L 351.797823 84.684555 
L 352.883624 77.662079 
L 353.969425 74.662443 
L 355.055227 62.616304 
L 357.226829 81.667939 
L 358.31263 73.644126 
L 359.398431 83.668554 
L 360.484232 79.662694 
L 362.655835 69.638781 
L 363.741636 72.645363 
L 364.827437 93.714336 
L 365.913238 72.650251 
L 366.999039 70.635229 
L 368.08484 75.659149 
L 369.170642 82.683426 
L 370.256443 75.659149 
L 371.342244 71.636823 
L 372.428045 83.668554 
L 373.513846 74.648036 
L 374.599647 56.581529 
L 375.685448 75.661207 
L 376.77125 54.581429 
L 377.857051 66.617276 
L 378.942852 56.57947 
L 380.028653 62.592892 
L 381.114454 73.65133 
L 382.200255 62.60447 
L 383.286057 53.568 
L 384.371858 76.646592 
L 385.457659 69.624373 
L 386.54346 60.608743 
L 387.629261 78.652095 
L 388.715062 62.611416 
L 389.800863 64.609458 
L 390.886665 92.702965 
L 391.972466 97.733832 
L 393.058267 60.596908 
L 394.144068 65.621086 
L 395.229869 68.623037 
L 396.31567 81.670255 
L 397.401472 58.584202 
L 398.487273 72.64279 
L 398.487273 72.64279 
" style="fill:none;stroke:#348abd;stroke-linecap:square;stroke-width:3;"/>
   </g>
   <g id="line2d_31">
    <path clip-path="url(#pc6d7bc8052)" d="M 73.832727 277.416605 
L 74.918528 272.390369 
L 76.00433 254.312284 
L 77.090131 281.408572 
L 78.175932 266.374375 
L 79.261733 259.326942 
L 80.347534 263.351327 
L 81.433335 271.370251 
L 82.519137 253.32021 
L 83.604938 269.357544 
L 84.690739 262.357194 
L 85.77654 250.297162 
L 86.862341 229.237451 
L 87.948142 269.390476 
L 89.033943 248.298863 
L 90.119745 253.315322 
L 91.205546 255.325456 
L 92.291347 246.290787 
L 93.377148 248.300664 
L 94.462949 235.267853 
L 95.54875 245.270927 
L 96.634552 223.205506 
L 97.720353 230.227468 
L 98.806154 211.173003 
L 99.891955 244.285284 
L 100.977756 230.217691 
L 102.063557 200.131545 
L 103.149358 220.200982 
L 104.23516 219.192442 
L 105.320961 221.18611 
L 106.406762 237.25406 
L 107.492563 231.254532 
L 108.578364 208.149955 
L 109.664165 215.169858 
L 110.749967 193.078709 
L 111.835768 183.054282 
L 112.921569 212.168164 
L 114.00737 189.07748 
L 115.093171 236.236258 
L 116.178972 194.091623 
L 117.264773 210.14388 
L 118.350575 182.041111 
L 119.436376 196.106646 
L 120.522177 185.061843 
L 121.607978 191.091988 
L 122.693779 184.058706 
L 123.77958 197.107982 
L 124.865382 184.05356 
L 125.951183 189.077737 
L 127.036984 193.085656 
L 128.122785 186.056748 
L 129.208586 174.022186 
L 130.294387 182.052946 
L 131.380189 176.025374 
L 132.46599 198.079474 
L 133.551791 170.983444 
L 134.637592 174.022186 
L 135.723393 178.028304 
L 136.809194 189.082368 
L 137.894995 185.048207 
L 138.980797 161.973989 
L 140.066598 173.006957 
L 141.152399 157.968386 
L 142.2382 146.918695 
L 143.324001 151.931037 
L 144.409802 158.950941 
L 145.495604 176.010966 
L 146.581405 158.974353 
L 147.667206 185.052838 
L 148.753007 160.974968 
L 149.838808 154.940192 
L 150.924609 162.975583 
L 152.01041 161.953406 
L 153.096212 177.036229 
L 154.182013 144.913707 
L 155.267814 162.970694 
L 156.353615 147.925177 
L 157.439416 147.922862 
L 158.525217 146.921782 
L 159.611019 133.857584 
L 161.782621 155.958252 
L 162.868422 156.950326 
L 163.954223 138.895654 
L 165.040024 152.951413 
L 166.125825 151.935668 
L 167.211627 138.890508 
L 168.297428 147.908711 
L 169.383229 149.92785 
L 170.46903 159.957423 
L 171.554831 145.910669 
L 172.640632 134.875129 
L 173.726434 134.884648 
L 174.812235 150.929444 
L 175.898036 144.904187 
L 176.983837 140.879803 
L 178.069638 139.901879 
L 179.155439 146.918695 
L 180.24124 158.94631 
L 181.327042 136.885263 
L 182.412843 150.912978 
L 183.498644 143.896162 
L 184.584445 159.973374 
L 185.670246 130.864895 
L 186.756047 134.875129 
L 187.841849 152.930573 
L 188.92765 116.816083 
L 190.013451 138.897712 
L 191.099252 134.868697 
L 192.185053 128.838809 
L 193.270854 121.818391 
L 194.356656 139.892359 
L 195.442457 130.857948 
L 196.528258 143.907482 
L 197.614059 159.957423 
L 198.69986 147.904337 
L 199.785661 119.808772 
L 200.871462 116.799617 
L 201.957264 133.871477 
L 203.043065 117.796322 
L 204.128866 126.844627 
L 205.214667 129.854296 
L 206.300468 123.821579 
L 207.386269 139.880782 
L 209.557872 129.858927 
L 210.643673 152.918481 
L 211.729474 120.826832 
L 212.815275 121.825595 
L 213.901076 128.838295 
L 214.986877 125.833771 
L 216.072679 119.824981 
L 217.15848 132.865509 
L 218.244281 119.815461 
L 219.330082 123.838045 
L 220.415883 120.819885 
L 221.501684 129.842461 
L 222.587486 111.789847 
L 223.673287 131.856969 
L 224.759088 136.880632 
L 225.844889 123.828525 
L 226.93069 125.834028 
L 228.016491 115.805227 
L 229.102292 136.866739 
L 230.188094 123.826467 
L 231.273895 121.811959 
L 232.359696 109.770451 
L 233.445497 129.842461 
L 234.531298 131.854396 
L 235.617099 134.859177 
L 236.702901 125.831713 
L 237.788702 114.798745 
L 238.874503 119.806714 
L 239.960304 123.82621 
L 241.046105 113.797409 
L 242.131906 109.782286 
L 243.217708 136.867253 
L 244.303509 113.79535 
L 245.38931 118.816698 
L 246.475111 97.726628 
L 247.560912 113.783515 
L 248.646713 98.744688 
L 249.732514 124.83475 
L 250.818316 95.723955 
L 251.904117 117.798638 
L 252.989918 98.744688 
L 254.075719 133.860157 
L 255.16152 122.827446 
L 256.247321 100.735783 
L 257.333123 109.794121 
L 258.418924 111.796537 
L 259.504725 117.803269 
L 260.590526 139.875894 
L 261.676327 110.78388 
L 262.762128 123.82621 
L 263.847929 118.813867 
L 264.933731 108.785324 
L 266.019532 117.808157 
L 267.105333 97.710676 
L 268.191134 120.814997 
L 269.276935 107.781672 
L 270.362736 131.852081 
L 271.448538 114.787425 
L 272.534339 108.778377 
L 273.62014 90.709297 
L 274.705941 137.863701 
L 275.791742 109.782286 
L 276.877543 107.772152 
L 277.963344 101.760789 
L 279.049146 87.683676 
L 280.134947 109.786917 
L 281.220748 104.762997 
L 282.306549 128.847814 
L 283.39235 101.744838 
L 284.478151 111.775954 
L 285.563953 118.807693 
L 286.649754 126.842569 
L 287.735555 93.716394 
L 288.821356 94.724934 
L 289.907157 126.844627 
L 290.992958 104.753478 
L 292.07876 118.802804 
L 293.164561 89.703587 
L 294.250362 90.709812 
L 295.336163 131.850023 
L 296.421964 102.743858 
L 297.507765 101.748954 
L 299.679368 101.742265 
L 300.765169 106.754607 
L 301.85097 90.706982 
L 302.936771 104.767628 
L 304.022572 110.793399 
L 305.108373 86.689286 
L 306.194175 113.79535 
L 307.279976 103.761404 
L 308.365777 90.693346 
L 309.451578 98.740314 
L 310.537379 100.742987 
L 311.62318 112.788611 
L 312.708981 81.665366 
L 313.794783 85.681003 
L 314.880584 115.800596 
L 315.966385 94.720046 
L 317.052186 108.780693 
L 318.137987 89.707703 
L 319.223788 91.703944 
L 320.30959 96.728121 
L 321.395391 111.784959 
L 322.481192 99.732388 
L 323.566993 84.674521 
L 324.652794 104.770458 
L 325.738595 100.738356 
L 326.824396 108.778634 
L 327.910198 106.763612 
L 328.995999 98.74726 
L 330.0818 104.760682 
L 331.167601 85.678688 
L 332.253402 96.729665 
L 333.339203 100.752763 
L 334.425005 106.775704 
L 335.510806 107.758259 
L 336.596607 81.677459 
L 337.682408 119.799252 
L 338.768209 92.707853 
L 339.85401 102.74849 
L 340.939811 87.684191 
L 342.025613 82.66696 
L 343.111414 98.749576 
L 344.197215 107.772152 
L 345.283016 82.681368 
L 346.368817 95.733217 
L 347.454618 78.672678 
L 348.54042 105.764591 
L 349.626221 78.663673 
L 350.712022 85.685892 
L 351.797823 91.708833 
L 352.883624 74.6344 
L 353.969425 95.716751 
L 355.055227 102.74849 
L 356.141028 79.662694 
L 357.226829 88.704309 
L 358.31263 84.681982 
L 359.398431 81.672828 
L 360.484232 87.693196 
L 361.570033 95.714693 
L 362.655835 87.681618 
L 363.741636 87.700142 
L 364.827437 91.710891 
L 365.913238 99.725184 
L 366.999039 77.657191 
L 368.08484 68.594736 
L 369.170642 96.73018 
L 370.256443 83.678331 
L 371.342244 92.719431 
L 372.428045 95.714693 
L 373.513846 104.744473 
L 374.599647 88.692217 
L 375.685448 83.68502 
L 376.77125 83.661607 
L 377.857051 92.709912 
L 378.942852 74.650609 
L 380.028653 66.615475 
L 381.114454 92.712485 
L 382.200255 98.723848 
L 383.286057 86.689544 
L 384.371858 78.658784 
L 385.457659 82.681368 
L 386.54346 83.68785 
L 387.629261 97.729201 
L 388.715062 91.713464 
L 389.800863 94.72056 
L 390.886665 100.745302 
L 391.972466 84.674521 
L 394.144068 76.639646 
L 395.229869 87.686249 
L 396.31567 74.64855 
L 397.401472 89.708218 
L 398.487273 81.677459 
L 398.487273 81.677459 
" style="fill:none;stroke:#988ed5;stroke-linecap:square;stroke-width:3;"/>
   </g>
   <g id="patch_3">
    <path d="M 57.6 307.584 
L 57.6 41.472 
" style="fill:none;stroke:#ffffff;stroke-linecap:square;stroke-linejoin:miter;"/>
   </g>
   <g id="patch_4">
    <path d="M 414.72 307.584 
L 414.72 41.472 
" style="fill:none;stroke:#ffffff;stroke-linecap:square;stroke-linejoin:miter;"/>
   </g>
   <g id="patch_5">
    <path d="M 57.6 307.584 
L 414.72 307.584 
" style="fill:none;stroke:#ffffff;stroke-linecap:square;stroke-linejoin:miter;"/>
   </g>
   <g id="patch_6">
    <path d="M 57.6 41.472 
L 414.72 41.472 
" style="fill:none;stroke:#ffffff;stroke-linecap:square;stroke-linejoin:miter;"/>
   </g>
   <g id="text_17">
    <!-- max  = 96.84%, segmentation+mfcc+frame, 285epoch -->
    <defs>
     <path d="M 52 44.1875 
Q 55.375 50.25 60.0625 53.125 
Q 64.75 56 71.09375 56 
Q 79.640625 56 84.28125 50.015625 
Q 88.921875 44.046875 88.921875 33.015625 
L 88.921875 0 
L 79.890625 0 
L 79.890625 32.71875 
Q 79.890625 40.578125 77.09375 44.375 
Q 74.3125 48.1875 68.609375 48.1875 
Q 61.625 48.1875 57.5625 43.546875 
Q 53.515625 38.921875 53.515625 30.90625 
L 53.515625 0 
L 44.484375 0 
L 44.484375 32.71875 
Q 44.484375 40.625 41.703125 44.40625 
Q 38.921875 48.1875 33.109375 48.1875 
Q 26.21875 48.1875 22.15625 43.53125 
Q 18.109375 38.875 18.109375 30.90625 
L 18.109375 0 
L 9.078125 0 
L 9.078125 54.6875 
L 18.109375 54.6875 
L 18.109375 46.1875 
Q 21.1875 51.21875 25.484375 53.609375 
Q 29.78125 56 35.6875 56 
Q 41.65625 56 45.828125 52.96875 
Q 50 49.953125 52 44.1875 
z
" id="DejaVuSans-109"/>
     <path d="M 54.890625 54.6875 
L 35.109375 28.078125 
L 55.90625 0 
L 45.3125 0 
L 29.390625 21.484375 
L 13.484375 0 
L 2.875 0 
L 24.125 28.609375 
L 4.6875 54.6875 
L 15.28125 54.6875 
L 29.78125 35.203125 
L 44.28125 54.6875 
z
" id="DejaVuSans-120"/>
     <path id="DejaVuSans-32"/>
     <path d="M 10.59375 45.40625 
L 73.1875 45.40625 
L 73.1875 37.203125 
L 10.59375 37.203125 
z
M 10.59375 25.484375 
L 73.1875 25.484375 
L 73.1875 17.1875 
L 10.59375 17.1875 
z
" id="DejaVuSans-61"/>
     <path d="M 31.78125 34.625 
Q 24.75 34.625 20.71875 30.859375 
Q 16.703125 27.09375 16.703125 20.515625 
Q 16.703125 13.921875 20.71875 10.15625 
Q 24.75 6.390625 31.78125 6.390625 
Q 38.8125 6.390625 42.859375 10.171875 
Q 46.921875 13.96875 46.921875 20.515625 
Q 46.921875 27.09375 42.890625 30.859375 
Q 38.875 34.625 31.78125 34.625 
z
M 21.921875 38.8125 
Q 15.578125 40.375 12.03125 44.71875 
Q 8.5 49.078125 8.5 55.328125 
Q 8.5 64.0625 14.71875 69.140625 
Q 20.953125 74.21875 31.78125 74.21875 
Q 42.671875 74.21875 48.875 69.140625 
Q 55.078125 64.0625 55.078125 55.328125 
Q 55.078125 49.078125 51.53125 44.71875 
Q 48 40.375 41.703125 38.8125 
Q 48.828125 37.15625 52.796875 32.3125 
Q 56.78125 27.484375 56.78125 20.515625 
Q 56.78125 9.90625 50.3125 4.234375 
Q 43.84375 -1.421875 31.78125 -1.421875 
Q 19.734375 -1.421875 13.25 4.234375 
Q 6.78125 9.90625 6.78125 20.515625 
Q 6.78125 27.484375 10.78125 32.3125 
Q 14.796875 37.15625 21.921875 38.8125 
z
M 18.3125 54.390625 
Q 18.3125 48.734375 21.84375 45.5625 
Q 25.390625 42.390625 31.78125 42.390625 
Q 38.140625 42.390625 41.71875 45.5625 
Q 45.3125 48.734375 45.3125 54.390625 
Q 45.3125 60.0625 41.71875 63.234375 
Q 38.140625 66.40625 31.78125 66.40625 
Q 25.390625 66.40625 21.84375 63.234375 
Q 18.3125 60.0625 18.3125 54.390625 
z
" id="DejaVuSans-56"/>
     <path d="M 72.703125 32.078125 
Q 68.453125 32.078125 66.03125 28.46875 
Q 63.625 24.859375 63.625 18.40625 
Q 63.625 12.0625 66.03125 8.421875 
Q 68.453125 4.78125 72.703125 4.78125 
Q 76.859375 4.78125 79.265625 8.421875 
Q 81.6875 12.0625 81.6875 18.40625 
Q 81.6875 24.8125 79.265625 28.4375 
Q 76.859375 32.078125 72.703125 32.078125 
z
M 72.703125 38.28125 
Q 80.421875 38.28125 84.953125 32.90625 
Q 89.5 27.546875 89.5 18.40625 
Q 89.5 9.28125 84.9375 3.921875 
Q 80.375 -1.421875 72.703125 -1.421875 
Q 64.890625 -1.421875 60.34375 3.921875 
Q 55.8125 9.28125 55.8125 18.40625 
Q 55.8125 27.59375 60.375 32.9375 
Q 64.9375 38.28125 72.703125 38.28125 
z
M 22.3125 68.015625 
Q 18.109375 68.015625 15.6875 64.375 
Q 13.28125 60.75 13.28125 54.390625 
Q 13.28125 47.953125 15.671875 44.328125 
Q 18.0625 40.71875 22.3125 40.71875 
Q 26.5625 40.71875 28.96875 44.328125 
Q 31.390625 47.953125 31.390625 54.390625 
Q 31.390625 60.6875 28.953125 64.34375 
Q 26.515625 68.015625 22.3125 68.015625 
z
M 66.40625 74.21875 
L 74.21875 74.21875 
L 28.609375 -1.421875 
L 20.796875 -1.421875 
z
M 22.3125 74.21875 
Q 30.03125 74.21875 34.609375 68.875 
Q 39.203125 63.53125 39.203125 54.390625 
Q 39.203125 45.171875 34.640625 39.84375 
Q 30.078125 34.515625 22.3125 34.515625 
Q 14.546875 34.515625 10.03125 39.859375 
Q 5.515625 45.21875 5.515625 54.390625 
Q 5.515625 63.484375 10.046875 68.84375 
Q 14.59375 74.21875 22.3125 74.21875 
z
" id="DejaVuSans-37"/>
     <path d="M 11.71875 12.40625 
L 22.015625 12.40625 
L 22.015625 4 
L 14.015625 -11.625 
L 7.71875 -11.625 
L 11.71875 4 
z
" id="DejaVuSans-44"/>
     <path d="M 44.28125 53.078125 
L 44.28125 44.578125 
Q 40.484375 46.53125 36.375 47.5 
Q 32.28125 48.484375 27.875 48.484375 
Q 21.1875 48.484375 17.84375 46.4375 
Q 14.5 44.390625 14.5 40.28125 
Q 14.5 37.15625 16.890625 35.375 
Q 19.28125 33.59375 26.515625 31.984375 
L 29.59375 31.296875 
Q 39.15625 29.25 43.1875 25.515625 
Q 47.21875 21.78125 47.21875 15.09375 
Q 47.21875 7.46875 41.1875 3.015625 
Q 35.15625 -1.421875 24.609375 -1.421875 
Q 20.21875 -1.421875 15.453125 -0.5625 
Q 10.6875 0.296875 5.421875 2 
L 5.421875 11.28125 
Q 10.40625 8.6875 15.234375 7.390625 
Q 20.0625 6.109375 24.8125 6.109375 
Q 31.15625 6.109375 34.5625 8.28125 
Q 37.984375 10.453125 37.984375 14.40625 
Q 37.984375 18.0625 35.515625 20.015625 
Q 33.0625 21.96875 24.703125 23.78125 
L 21.578125 24.515625 
Q 13.234375 26.265625 9.515625 29.90625 
Q 5.8125 33.546875 5.8125 39.890625 
Q 5.8125 47.609375 11.28125 51.796875 
Q 16.75 56 26.8125 56 
Q 31.78125 56 36.171875 55.265625 
Q 40.578125 54.546875 44.28125 53.078125 
z
" id="DejaVuSans-115"/>
     <path d="M 56.203125 29.59375 
L 56.203125 25.203125 
L 14.890625 25.203125 
Q 15.484375 15.921875 20.484375 11.0625 
Q 25.484375 6.203125 34.421875 6.203125 
Q 39.59375 6.203125 44.453125 7.46875 
Q 49.3125 8.734375 54.109375 11.28125 
L 54.109375 2.78125 
Q 49.265625 0.734375 44.1875 -0.34375 
Q 39.109375 -1.421875 33.890625 -1.421875 
Q 20.796875 -1.421875 13.15625 6.1875 
Q 5.515625 13.8125 5.515625 26.8125 
Q 5.515625 40.234375 12.765625 48.109375 
Q 20.015625 56 32.328125 56 
Q 43.359375 56 49.78125 48.890625 
Q 56.203125 41.796875 56.203125 29.59375 
z
M 47.21875 32.234375 
Q 47.125 39.59375 43.09375 43.984375 
Q 39.0625 48.390625 32.421875 48.390625 
Q 24.90625 48.390625 20.390625 44.140625 
Q 15.875 39.890625 15.1875 32.171875 
z
" id="DejaVuSans-101"/>
     <path d="M 45.40625 27.984375 
Q 45.40625 37.75 41.375 43.109375 
Q 37.359375 48.484375 30.078125 48.484375 
Q 22.859375 48.484375 18.828125 43.109375 
Q 14.796875 37.75 14.796875 27.984375 
Q 14.796875 18.265625 18.828125 12.890625 
Q 22.859375 7.515625 30.078125 7.515625 
Q 37.359375 7.515625 41.375 12.890625 
Q 45.40625 18.265625 45.40625 27.984375 
z
M 54.390625 6.78125 
Q 54.390625 -7.171875 48.1875 -13.984375 
Q 42 -20.796875 29.203125 -20.796875 
Q 24.46875 -20.796875 20.265625 -20.09375 
Q 16.0625 -19.390625 12.109375 -17.921875 
L 12.109375 -9.1875 
Q 16.0625 -11.328125 19.921875 -12.34375 
Q 23.78125 -13.375 27.78125 -13.375 
Q 36.625 -13.375 41.015625 -8.765625 
Q 45.40625 -4.15625 45.40625 5.171875 
L 45.40625 9.625 
Q 42.625 4.78125 38.28125 2.390625 
Q 33.9375 0 27.875 0 
Q 17.828125 0 11.671875 7.65625 
Q 5.515625 15.328125 5.515625 27.984375 
Q 5.515625 40.671875 11.671875 48.328125 
Q 17.828125 56 27.875 56 
Q 33.9375 56 38.28125 53.609375 
Q 42.625 51.21875 45.40625 46.390625 
L 45.40625 54.6875 
L 54.390625 54.6875 
z
" id="DejaVuSans-103"/>
     <path d="M 54.890625 33.015625 
L 54.890625 0 
L 45.90625 0 
L 45.90625 32.71875 
Q 45.90625 40.484375 42.875 44.328125 
Q 39.84375 48.1875 33.796875 48.1875 
Q 26.515625 48.1875 22.3125 43.546875 
Q 18.109375 38.921875 18.109375 30.90625 
L 18.109375 0 
L 9.078125 0 
L 9.078125 54.6875 
L 18.109375 54.6875 
L 18.109375 46.1875 
Q 21.34375 51.125 25.703125 53.5625 
Q 30.078125 56 35.796875 56 
Q 45.21875 56 50.046875 50.171875 
Q 54.890625 44.34375 54.890625 33.015625 
z
" id="DejaVuSans-110"/>
     <path d="M 18.3125 70.21875 
L 18.3125 54.6875 
L 36.8125 54.6875 
L 36.8125 47.703125 
L 18.3125 47.703125 
L 18.3125 18.015625 
Q 18.3125 11.328125 20.140625 9.421875 
Q 21.96875 7.515625 27.59375 7.515625 
L 36.8125 7.515625 
L 36.8125 0 
L 27.59375 0 
Q 17.1875 0 13.234375 3.875 
Q 9.28125 7.765625 9.28125 18.015625 
L 9.28125 47.703125 
L 2.6875 47.703125 
L 2.6875 54.6875 
L 9.28125 54.6875 
L 9.28125 70.21875 
z
" id="DejaVuSans-116"/>
     <path d="M 9.421875 54.6875 
L 18.40625 54.6875 
L 18.40625 0 
L 9.421875 0 
z
M 9.421875 75.984375 
L 18.40625 75.984375 
L 18.40625 64.59375 
L 9.421875 64.59375 
z
" id="DejaVuSans-105"/>
     <path d="M 46 62.703125 
L 46 35.5 
L 73.1875 35.5 
L 73.1875 27.203125 
L 46 27.203125 
L 46 0 
L 37.796875 0 
L 37.796875 27.203125 
L 10.59375 27.203125 
L 10.59375 35.5 
L 37.796875 35.5 
L 37.796875 62.703125 
z
" id="DejaVuSans-43"/>
     <path d="M 37.109375 75.984375 
L 37.109375 68.5 
L 28.515625 68.5 
Q 23.6875 68.5 21.796875 66.546875 
Q 19.921875 64.59375 19.921875 59.515625 
L 19.921875 54.6875 
L 34.71875 54.6875 
L 34.71875 47.703125 
L 19.921875 47.703125 
L 19.921875 0 
L 10.890625 0 
L 10.890625 47.703125 
L 2.296875 47.703125 
L 2.296875 54.6875 
L 10.890625 54.6875 
L 10.890625 58.5 
Q 10.890625 67.625 15.140625 71.796875 
Q 19.390625 75.984375 28.609375 75.984375 
z
" id="DejaVuSans-102"/>
    </defs>
    <g transform="translate(73.941307 53.568)scale(0.1 -0.1)">
     <use xlink:href="#DejaVuSans-109"/>
     <use x="97.412109" xlink:href="#DejaVuSans-97"/>
     <use x="158.691406" xlink:href="#DejaVuSans-120"/>
     <use x="217.871094" xlink:href="#DejaVuSans-32"/>
     <use x="249.658203" xlink:href="#DejaVuSans-32"/>
     <use x="281.445312" xlink:href="#DejaVuSans-61"/>
     <use x="365.234375" xlink:href="#DejaVuSans-32"/>
     <use x="397.021484" xlink:href="#DejaVuSans-57"/>
     <use x="460.644531" xlink:href="#DejaVuSans-54"/>
     <use x="524.267578" xlink:href="#DejaVuSans-46"/>
     <use x="556.054688" xlink:href="#DejaVuSans-56"/>
     <use x="619.677734" xlink:href="#DejaVuSans-52"/>
     <use x="683.300781" xlink:href="#DejaVuSans-37"/>
     <use x="778.320312" xlink:href="#DejaVuSans-44"/>
     <use x="810.107422" xlink:href="#DejaVuSans-32"/>
     <use x="841.894531" xlink:href="#DejaVuSans-115"/>
     <use x="893.994141" xlink:href="#DejaVuSans-101"/>
     <use x="955.517578" xlink:href="#DejaVuSans-103"/>
     <use x="1018.994141" xlink:href="#DejaVuSans-109"/>
     <use x="1116.40625" xlink:href="#DejaVuSans-101"/>
     <use x="1177.929688" xlink:href="#DejaVuSans-110"/>
     <use x="1241.308594" xlink:href="#DejaVuSans-116"/>
     <use x="1280.517578" xlink:href="#DejaVuSans-97"/>
     <use x="1341.796875" xlink:href="#DejaVuSans-116"/>
     <use x="1381.005859" xlink:href="#DejaVuSans-105"/>
     <use x="1408.789062" xlink:href="#DejaVuSans-111"/>
     <use x="1469.970703" xlink:href="#DejaVuSans-110"/>
     <use x="1533.349609" xlink:href="#DejaVuSans-43"/>
     <use x="1617.138672" xlink:href="#DejaVuSans-109"/>
     <use x="1714.550781" xlink:href="#DejaVuSans-102"/>
     <use x="1749.755859" xlink:href="#DejaVuSans-99"/>
     <use x="1804.736328" xlink:href="#DejaVuSans-99"/>
     <use x="1859.716797" xlink:href="#DejaVuSans-43"/>
     <use x="1943.505859" xlink:href="#DejaVuSans-102"/>
     <use x="1978.710938" xlink:href="#DejaVuSans-114"/>
     <use x="2019.824219" xlink:href="#DejaVuSans-97"/>
     <use x="2081.103516" xlink:href="#DejaVuSans-109"/>
     <use x="2178.515625" xlink:href="#DejaVuSans-101"/>
     <use x="2240.039062" xlink:href="#DejaVuSans-44"/>
     <use x="2271.826172" xlink:href="#DejaVuSans-32"/>
     <use x="2303.613281" xlink:href="#DejaVuSans-50"/>
     <use x="2367.236328" xlink:href="#DejaVuSans-56"/>
     <use x="2430.859375" xlink:href="#DejaVuSans-53"/>
     <use x="2494.482422" xlink:href="#DejaVuSans-101"/>
     <use x="2556.005859" xlink:href="#DejaVuSans-112"/>
     <use x="2619.482422" xlink:href="#DejaVuSans-111"/>
     <use x="2680.664062" xlink:href="#DejaVuSans-99"/>
     <use x="2735.644531" xlink:href="#DejaVuSans-104"/>
    </g>
   </g>
   <g id="text_18">
    <!-- binary train accuracy of ekutsu -->
    <defs>
     <path d="M 48.6875 27.296875 
Q 48.6875 37.203125 44.609375 42.84375 
Q 40.53125 48.484375 33.40625 48.484375 
Q 26.265625 48.484375 22.1875 42.84375 
Q 18.109375 37.203125 18.109375 27.296875 
Q 18.109375 17.390625 22.1875 11.75 
Q 26.265625 6.109375 33.40625 6.109375 
Q 40.53125 6.109375 44.609375 11.75 
Q 48.6875 17.390625 48.6875 27.296875 
z
M 18.109375 46.390625 
Q 20.953125 51.265625 25.265625 53.625 
Q 29.59375 56 35.59375 56 
Q 45.5625 56 51.78125 48.09375 
Q 58.015625 40.1875 58.015625 27.296875 
Q 58.015625 14.40625 51.78125 6.484375 
Q 45.5625 -1.421875 35.59375 -1.421875 
Q 29.59375 -1.421875 25.265625 0.953125 
Q 20.953125 3.328125 18.109375 8.203125 
L 18.109375 0 
L 9.078125 0 
L 9.078125 75.984375 
L 18.109375 75.984375 
z
" id="DejaVuSans-98"/>
     <path d="M 9.078125 75.984375 
L 18.109375 75.984375 
L 18.109375 31.109375 
L 44.921875 54.6875 
L 56.390625 54.6875 
L 27.390625 29.109375 
L 57.625 0 
L 45.90625 0 
L 18.109375 26.703125 
L 18.109375 0 
L 9.078125 0 
z
" id="DejaVuSans-107"/>
    </defs>
    <g transform="translate(80.356875 35.472)scale(0.2 -0.2)">
     <use xlink:href="#DejaVuSans-98"/>
     <use x="63.476562" xlink:href="#DejaVuSans-105"/>
     <use x="91.259766" xlink:href="#DejaVuSans-110"/>
     <use x="154.638672" xlink:href="#DejaVuSans-97"/>
     <use x="215.917969" xlink:href="#DejaVuSans-114"/>
     <use x="257.03125" xlink:href="#DejaVuSans-121"/>
     <use x="316.210938" xlink:href="#DejaVuSans-32"/>
     <use x="347.998047" xlink:href="#DejaVuSans-116"/>
     <use x="387.207031" xlink:href="#DejaVuSans-114"/>
     <use x="428.320312" xlink:href="#DejaVuSans-97"/>
     <use x="489.599609" xlink:href="#DejaVuSans-105"/>
     <use x="517.382812" xlink:href="#DejaVuSans-110"/>
     <use x="580.761719" xlink:href="#DejaVuSans-32"/>
     <use x="612.548828" xlink:href="#DejaVuSans-97"/>
     <use x="673.828125" xlink:href="#DejaVuSans-99"/>
     <use x="728.808594" xlink:href="#DejaVuSans-99"/>
     <use x="783.789062" xlink:href="#DejaVuSans-117"/>
     <use x="847.167969" xlink:href="#DejaVuSans-114"/>
     <use x="888.28125" xlink:href="#DejaVuSans-97"/>
     <use x="949.560547" xlink:href="#DejaVuSans-99"/>
     <use x="1004.541016" xlink:href="#DejaVuSans-121"/>
     <use x="1063.720703" xlink:href="#DejaVuSans-32"/>
     <use x="1095.507812" xlink:href="#DejaVuSans-111"/>
     <use x="1156.689453" xlink:href="#DejaVuSans-102"/>
     <use x="1191.894531" xlink:href="#DejaVuSans-32"/>
     <use x="1223.681641" xlink:href="#DejaVuSans-101"/>
     <use x="1285.205078" xlink:href="#DejaVuSans-107"/>
     <use x="1339.990234" xlink:href="#DejaVuSans-117"/>
     <use x="1403.369141" xlink:href="#DejaVuSans-116"/>
     <use x="1442.578125" xlink:href="#DejaVuSans-115"/>
     <use x="1494.677734" xlink:href="#DejaVuSans-117"/>
    </g>
   </g>
   <g id="legend_1">
    <g id="patch_7">
     <path d="M 200.659062 302.584 
L 407.72 302.584 
Q 409.72 302.584 409.72 300.584 
L 409.72 257.549625 
Q 409.72 255.549625 407.72 255.549625 
L 200.659062 255.549625 
Q 198.659062 255.549625 198.659062 257.549625 
L 198.659062 300.584 
Q 198.659062 302.584 200.659062 302.584 
z
" style="fill:#e5e5e5;opacity:0.8;stroke:#cccccc;stroke-linejoin:miter;stroke-width:0.5;"/>
    </g>
    <g id="line2d_32">
     <path d="M 202.659062 263.648062 
L 222.659062 263.648062 
" style="fill:none;stroke:#e24a33;stroke-linecap:square;stroke-width:3;"/>
    </g>
    <g id="line2d_33"/>
    <g id="text_19">
     <!-- segmentation+mfcc+frame+score -->
     <g transform="translate(230.659062 267.148062)scale(0.1 -0.1)">
      <use xlink:href="#DejaVuSans-115"/>
      <use x="52.099609" xlink:href="#DejaVuSans-101"/>
      <use x="113.623047" xlink:href="#DejaVuSans-103"/>
      <use x="177.099609" xlink:href="#DejaVuSans-109"/>
      <use x="274.511719" xlink:href="#DejaVuSans-101"/>
      <use x="336.035156" xlink:href="#DejaVuSans-110"/>
      <use x="399.414062" xlink:href="#DejaVuSans-116"/>
      <use x="438.623047" xlink:href="#DejaVuSans-97"/>
      <use x="499.902344" xlink:href="#DejaVuSans-116"/>
      <use x="539.111328" xlink:href="#DejaVuSans-105"/>
      <use x="566.894531" xlink:href="#DejaVuSans-111"/>
      <use x="628.076172" xlink:href="#DejaVuSans-110"/>
      <use x="691.455078" xlink:href="#DejaVuSans-43"/>
      <use x="775.244141" xlink:href="#DejaVuSans-109"/>
      <use x="872.65625" xlink:href="#DejaVuSans-102"/>
      <use x="907.861328" xlink:href="#DejaVuSans-99"/>
      <use x="962.841797" xlink:href="#DejaVuSans-99"/>
      <use x="1017.822266" xlink:href="#DejaVuSans-43"/>
      <use x="1101.611328" xlink:href="#DejaVuSans-102"/>
      <use x="1136.816406" xlink:href="#DejaVuSans-114"/>
      <use x="1177.929688" xlink:href="#DejaVuSans-97"/>
      <use x="1239.208984" xlink:href="#DejaVuSans-109"/>
      <use x="1336.621094" xlink:href="#DejaVuSans-101"/>
      <use x="1398.144531" xlink:href="#DejaVuSans-43"/>
      <use x="1481.933594" xlink:href="#DejaVuSans-115"/>
      <use x="1534.033203" xlink:href="#DejaVuSans-99"/>
      <use x="1589.013672" xlink:href="#DejaVuSans-111"/>
      <use x="1650.195312" xlink:href="#DejaVuSans-114"/>
      <use x="1689.058594" xlink:href="#DejaVuSans-101"/>
     </g>
    </g>
    <g id="line2d_34">
     <path d="M 202.659062 278.326188 
L 222.659062 278.326188 
" style="fill:none;stroke:#348abd;stroke-linecap:square;stroke-width:3;"/>
    </g>
    <g id="line2d_35"/>
    <g id="text_20">
     <!-- segmentation+mfcc+frame -->
     <g transform="translate(230.659062 281.826188)scale(0.1 -0.1)">
      <use xlink:href="#DejaVuSans-115"/>
      <use x="52.099609" xlink:href="#DejaVuSans-101"/>
      <use x="113.623047" xlink:href="#DejaVuSans-103"/>
      <use x="177.099609" xlink:href="#DejaVuSans-109"/>
      <use x="274.511719" xlink:href="#DejaVuSans-101"/>
      <use x="336.035156" xlink:href="#DejaVuSans-110"/>
      <use x="399.414062" xlink:href="#DejaVuSans-116"/>
      <use x="438.623047" xlink:href="#DejaVuSans-97"/>
      <use x="499.902344" xlink:href="#DejaVuSans-116"/>
      <use x="539.111328" xlink:href="#DejaVuSans-105"/>
      <use x="566.894531" xlink:href="#DejaVuSans-111"/>
      <use x="628.076172" xlink:href="#DejaVuSans-110"/>
      <use x="691.455078" xlink:href="#DejaVuSans-43"/>
      <use x="775.244141" xlink:href="#DejaVuSans-109"/>
      <use x="872.65625" xlink:href="#DejaVuSans-102"/>
      <use x="907.861328" xlink:href="#DejaVuSans-99"/>
      <use x="962.841797" xlink:href="#DejaVuSans-99"/>
      <use x="1017.822266" xlink:href="#DejaVuSans-43"/>
      <use x="1101.611328" xlink:href="#DejaVuSans-102"/>
      <use x="1136.816406" xlink:href="#DejaVuSans-114"/>
      <use x="1177.929688" xlink:href="#DejaVuSans-97"/>
      <use x="1239.208984" xlink:href="#DejaVuSans-109"/>
      <use x="1336.621094" xlink:href="#DejaVuSans-101"/>
     </g>
    </g>
    <g id="line2d_36">
     <path d="M 202.659062 293.004312 
L 222.659062 293.004312 
" style="fill:none;stroke:#988ed5;stroke-linecap:square;stroke-width:3;"/>
    </g>
    <g id="line2d_37"/>
    <g id="text_21">
     <!-- segmentation+mfcc -->
     <g transform="translate(230.659062 296.504312)scale(0.1 -0.1)">
      <use xlink:href="#DejaVuSans-115"/>
      <use x="52.099609" xlink:href="#DejaVuSans-101"/>
      <use x="113.623047" xlink:href="#DejaVuSans-103"/>
      <use x="177.099609" xlink:href="#DejaVuSans-109"/>
      <use x="274.511719" xlink:href="#DejaVuSans-101"/>
      <use x="336.035156" xlink:href="#DejaVuSans-110"/>
      <use x="399.414062" xlink:href="#DejaVuSans-116"/>
      <use x="438.623047" xlink:href="#DejaVuSans-97"/>
      <use x="499.902344" xlink:href="#DejaVuSans-116"/>
      <use x="539.111328" xlink:href="#DejaVuSans-105"/>
      <use x="566.894531" xlink:href="#DejaVuSans-111"/>
      <use x="628.076172" xlink:href="#DejaVuSans-110"/>
      <use x="691.455078" xlink:href="#DejaVuSans-43"/>
      <use x="775.244141" xlink:href="#DejaVuSans-109"/>
      <use x="872.65625" xlink:href="#DejaVuSans-102"/>
      <use x="907.861328" xlink:href="#DejaVuSans-99"/>
      <use x="962.841797" xlink:href="#DejaVuSans-99"/>
     </g>
    </g>
   </g>
  </g>
 </g>
 <defs>
  <clipPath id="pc6d7bc8052">
   <rect height="266.112" width="357.12" x="57.6" y="41.472"/>
  </clipPath>
 </defs>
</svg>
