<?xml version="1.0" encoding="utf-8" standalone="no"?>
<!DOCTYPE svg PUBLIC "-//W3C//DTD SVG 1.1//EN"
  "http://www.w3.org/Graphics/SVG/1.1/DTD/svg11.dtd">
<!-- Created with matplotlib (https://matplotlib.org/) -->
<svg height="345.6pt" version="1.1" viewBox="0 0 460.8 345.6" width="460.8pt" xmlns="http://www.w3.org/2000/svg" xmlns:xlink="http://www.w3.org/1999/xlink">
 <defs>
  <style type="text/css">
*{stroke-linecap:butt;stroke-linejoin:round;}
  </style>
 </defs>
 <g id="figure_1">
  <g id="patch_1">
   <path d="M 0 345.6 
L 460.8 345.6 
L 460.8 0 
L 0 0 
z
" style="fill:#ffffff;"/>
  </g>
  <g id="axes_1">
   <g id="patch_2">
    <path d="M 57.6 307.584 
L 414.72 307.584 
L 414.72 41.472 
L 57.6 41.472 
z
" style="fill:#e5e5e5;"/>
   </g>
   <g id="matplotlib.axis_1">
    <g id="xtick_1">
     <g id="line2d_1">
      <path clip-path="url(#p928cfe2e06)" d="M 73.832727 307.584 
L 73.832727 41.472 
" style="fill:none;stroke:#ffffff;stroke-linecap:square;stroke-width:0.8;"/>
     </g>
     <g id="line2d_2">
      <defs>
       <path d="M 0 0 
L 0 3.5 
" id="mdd89fe4be8" style="stroke:#555555;stroke-width:0.8;"/>
      </defs>
      <g>
       <use style="fill:#555555;stroke:#555555;stroke-width:0.8;" x="73.832727" xlink:href="#mdd89fe4be8" y="307.584"/>
      </g>
     </g>
     <g id="text_1">
      <!-- 0 -->
      <defs>
       <path d="M 31.78125 66.40625 
Q 24.171875 66.40625 20.328125 58.90625 
Q 16.5 51.421875 16.5 36.375 
Q 16.5 21.390625 20.328125 13.890625 
Q 24.171875 6.390625 31.78125 6.390625 
Q 39.453125 6.390625 43.28125 13.890625 
Q 47.125 21.390625 47.125 36.375 
Q 47.125 51.421875 43.28125 58.90625 
Q 39.453125 66.40625 31.78125 66.40625 
z
M 31.78125 74.21875 
Q 44.046875 74.21875 50.515625 64.515625 
Q 56.984375 54.828125 56.984375 36.375 
Q 56.984375 17.96875 50.515625 8.265625 
Q 44.046875 -1.421875 31.78125 -1.421875 
Q 19.53125 -1.421875 13.0625 8.265625 
Q 6.59375 17.96875 6.59375 36.375 
Q 6.59375 54.828125 13.0625 64.515625 
Q 19.53125 74.21875 31.78125 74.21875 
z
" id="DejaVuSans-48"/>
      </defs>
      <g style="fill:#555555;" transform="translate(70.651477 322.182437)scale(0.1 -0.1)">
       <use xlink:href="#DejaVuSans-48"/>
      </g>
     </g>
    </g>
    <g id="xtick_2">
     <g id="line2d_3">
      <path clip-path="url(#p928cfe2e06)" d="M 138.893758 307.584 
L 138.893758 41.472 
" style="fill:none;stroke:#ffffff;stroke-linecap:square;stroke-width:0.8;"/>
     </g>
     <g id="line2d_4">
      <g>
       <use style="fill:#555555;stroke:#555555;stroke-width:0.8;" x="138.893758" xlink:href="#mdd89fe4be8" y="307.584"/>
      </g>
     </g>
     <g id="text_2">
      <!-- 100 -->
      <defs>
       <path d="M 12.40625 8.296875 
L 28.515625 8.296875 
L 28.515625 63.921875 
L 10.984375 60.40625 
L 10.984375 69.390625 
L 28.421875 72.90625 
L 38.28125 72.90625 
L 38.28125 8.296875 
L 54.390625 8.296875 
L 54.390625 0 
L 12.40625 0 
z
" id="DejaVuSans-49"/>
      </defs>
      <g style="fill:#555555;" transform="translate(129.350008 322.182437)scale(0.1 -0.1)">
       <use xlink:href="#DejaVuSans-49"/>
       <use x="63.623047" xlink:href="#DejaVuSans-48"/>
       <use x="127.246094" xlink:href="#DejaVuSans-48"/>
      </g>
     </g>
    </g>
    <g id="xtick_3">
     <g id="line2d_5">
      <path clip-path="url(#p928cfe2e06)" d="M 203.95479 307.584 
L 203.95479 41.472 
" style="fill:none;stroke:#ffffff;stroke-linecap:square;stroke-width:0.8;"/>
     </g>
     <g id="line2d_6">
      <g>
       <use style="fill:#555555;stroke:#555555;stroke-width:0.8;" x="203.95479" xlink:href="#mdd89fe4be8" y="307.584"/>
      </g>
     </g>
     <g id="text_3">
      <!-- 200 -->
      <defs>
       <path d="M 19.1875 8.296875 
L 53.609375 8.296875 
L 53.609375 0 
L 7.328125 0 
L 7.328125 8.296875 
Q 12.9375 14.109375 22.625 23.890625 
Q 32.328125 33.6875 34.8125 36.53125 
Q 39.546875 41.84375 41.421875 45.53125 
Q 43.3125 49.21875 43.3125 52.78125 
Q 43.3125 58.59375 39.234375 62.25 
Q 35.15625 65.921875 28.609375 65.921875 
Q 23.96875 65.921875 18.8125 64.3125 
Q 13.671875 62.703125 7.8125 59.421875 
L 7.8125 69.390625 
Q 13.765625 71.78125 18.9375 73 
Q 24.125 74.21875 28.421875 74.21875 
Q 39.75 74.21875 46.484375 68.546875 
Q 53.21875 62.890625 53.21875 53.421875 
Q 53.21875 48.921875 51.53125 44.890625 
Q 49.859375 40.875 45.40625 35.40625 
Q 44.1875 33.984375 37.640625 27.21875 
Q 31.109375 20.453125 19.1875 8.296875 
z
" id="DejaVuSans-50"/>
      </defs>
      <g style="fill:#555555;" transform="translate(194.41104 322.182437)scale(0.1 -0.1)">
       <use xlink:href="#DejaVuSans-50"/>
       <use x="63.623047" xlink:href="#DejaVuSans-48"/>
       <use x="127.246094" xlink:href="#DejaVuSans-48"/>
      </g>
     </g>
    </g>
    <g id="xtick_4">
     <g id="line2d_7">
      <path clip-path="url(#p928cfe2e06)" d="M 269.015821 307.584 
L 269.015821 41.472 
" style="fill:none;stroke:#ffffff;stroke-linecap:square;stroke-width:0.8;"/>
     </g>
     <g id="line2d_8">
      <g>
       <use style="fill:#555555;stroke:#555555;stroke-width:0.8;" x="269.015821" xlink:href="#mdd89fe4be8" y="307.584"/>
      </g>
     </g>
     <g id="text_4">
      <!-- 300 -->
      <defs>
       <path d="M 40.578125 39.3125 
Q 47.65625 37.796875 51.625 33 
Q 55.609375 28.21875 55.609375 21.1875 
Q 55.609375 10.40625 48.1875 4.484375 
Q 40.765625 -1.421875 27.09375 -1.421875 
Q 22.515625 -1.421875 17.65625 -0.515625 
Q 12.796875 0.390625 7.625 2.203125 
L 7.625 11.71875 
Q 11.71875 9.328125 16.59375 8.109375 
Q 21.484375 6.890625 26.8125 6.890625 
Q 36.078125 6.890625 40.9375 10.546875 
Q 45.796875 14.203125 45.796875 21.1875 
Q 45.796875 27.640625 41.28125 31.265625 
Q 36.765625 34.90625 28.71875 34.90625 
L 20.21875 34.90625 
L 20.21875 43.015625 
L 29.109375 43.015625 
Q 36.375 43.015625 40.234375 45.921875 
Q 44.09375 48.828125 44.09375 54.296875 
Q 44.09375 59.90625 40.109375 62.90625 
Q 36.140625 65.921875 28.71875 65.921875 
Q 24.65625 65.921875 20.015625 65.03125 
Q 15.375 64.15625 9.8125 62.3125 
L 9.8125 71.09375 
Q 15.4375 72.65625 20.34375 73.4375 
Q 25.25 74.21875 29.59375 74.21875 
Q 40.828125 74.21875 47.359375 69.109375 
Q 53.90625 64.015625 53.90625 55.328125 
Q 53.90625 49.265625 50.4375 45.09375 
Q 46.96875 40.921875 40.578125 39.3125 
z
" id="DejaVuSans-51"/>
      </defs>
      <g style="fill:#555555;" transform="translate(259.472071 322.182437)scale(0.1 -0.1)">
       <use xlink:href="#DejaVuSans-51"/>
       <use x="63.623047" xlink:href="#DejaVuSans-48"/>
       <use x="127.246094" xlink:href="#DejaVuSans-48"/>
      </g>
     </g>
    </g>
    <g id="xtick_5">
     <g id="line2d_9">
      <path clip-path="url(#p928cfe2e06)" d="M 334.076852 307.584 
L 334.076852 41.472 
" style="fill:none;stroke:#ffffff;stroke-linecap:square;stroke-width:0.8;"/>
     </g>
     <g id="line2d_10">
      <g>
       <use style="fill:#555555;stroke:#555555;stroke-width:0.8;" x="334.076852" xlink:href="#mdd89fe4be8" y="307.584"/>
      </g>
     </g>
     <g id="text_5">
      <!-- 400 -->
      <defs>
       <path d="M 37.796875 64.3125 
L 12.890625 25.390625 
L 37.796875 25.390625 
z
M 35.203125 72.90625 
L 47.609375 72.90625 
L 47.609375 25.390625 
L 58.015625 25.390625 
L 58.015625 17.1875 
L 47.609375 17.1875 
L 47.609375 0 
L 37.796875 0 
L 37.796875 17.1875 
L 4.890625 17.1875 
L 4.890625 26.703125 
z
" id="DejaVuSans-52"/>
      </defs>
      <g style="fill:#555555;" transform="translate(324.533102 322.182437)scale(0.1 -0.1)">
       <use xlink:href="#DejaVuSans-52"/>
       <use x="63.623047" xlink:href="#DejaVuSans-48"/>
       <use x="127.246094" xlink:href="#DejaVuSans-48"/>
      </g>
     </g>
    </g>
    <g id="xtick_6">
     <g id="line2d_11">
      <path clip-path="url(#p928cfe2e06)" d="M 399.137883 307.584 
L 399.137883 41.472 
" style="fill:none;stroke:#ffffff;stroke-linecap:square;stroke-width:0.8;"/>
     </g>
     <g id="line2d_12">
      <g>
       <use style="fill:#555555;stroke:#555555;stroke-width:0.8;" x="399.137883" xlink:href="#mdd89fe4be8" y="307.584"/>
      </g>
     </g>
     <g id="text_6">
      <!-- 500 -->
      <defs>
       <path d="M 10.796875 72.90625 
L 49.515625 72.90625 
L 49.515625 64.59375 
L 19.828125 64.59375 
L 19.828125 46.734375 
Q 21.96875 47.46875 24.109375 47.828125 
Q 26.265625 48.1875 28.421875 48.1875 
Q 40.625 48.1875 47.75 41.5 
Q 54.890625 34.8125 54.890625 23.390625 
Q 54.890625 11.625 47.5625 5.09375 
Q 40.234375 -1.421875 26.90625 -1.421875 
Q 22.3125 -1.421875 17.546875 -0.640625 
Q 12.796875 0.140625 7.71875 1.703125 
L 7.71875 11.625 
Q 12.109375 9.234375 16.796875 8.0625 
Q 21.484375 6.890625 26.703125 6.890625 
Q 35.15625 6.890625 40.078125 11.328125 
Q 45.015625 15.765625 45.015625 23.390625 
Q 45.015625 31 40.078125 35.4375 
Q 35.15625 39.890625 26.703125 39.890625 
Q 22.75 39.890625 18.8125 39.015625 
Q 14.890625 38.140625 10.796875 36.28125 
z
" id="DejaVuSans-53"/>
      </defs>
      <g style="fill:#555555;" transform="translate(389.594133 322.182437)scale(0.1 -0.1)">
       <use xlink:href="#DejaVuSans-53"/>
       <use x="63.623047" xlink:href="#DejaVuSans-48"/>
       <use x="127.246094" xlink:href="#DejaVuSans-48"/>
      </g>
     </g>
    </g>
    <g id="text_7">
     <!-- Epoch -->
     <defs>
      <path d="M 9.8125 72.90625 
L 55.90625 72.90625 
L 55.90625 64.59375 
L 19.671875 64.59375 
L 19.671875 43.015625 
L 54.390625 43.015625 
L 54.390625 34.71875 
L 19.671875 34.71875 
L 19.671875 8.296875 
L 56.78125 8.296875 
L 56.78125 0 
L 9.8125 0 
z
" id="DejaVuSans-69"/>
      <path d="M 18.109375 8.203125 
L 18.109375 -20.796875 
L 9.078125 -20.796875 
L 9.078125 54.6875 
L 18.109375 54.6875 
L 18.109375 46.390625 
Q 20.953125 51.265625 25.265625 53.625 
Q 29.59375 56 35.59375 56 
Q 45.5625 56 51.78125 48.09375 
Q 58.015625 40.1875 58.015625 27.296875 
Q 58.015625 14.40625 51.78125 6.484375 
Q 45.5625 -1.421875 35.59375 -1.421875 
Q 29.59375 -1.421875 25.265625 0.953125 
Q 20.953125 3.328125 18.109375 8.203125 
z
M 48.6875 27.296875 
Q 48.6875 37.203125 44.609375 42.84375 
Q 40.53125 48.484375 33.40625 48.484375 
Q 26.265625 48.484375 22.1875 42.84375 
Q 18.109375 37.203125 18.109375 27.296875 
Q 18.109375 17.390625 22.1875 11.75 
Q 26.265625 6.109375 33.40625 6.109375 
Q 40.53125 6.109375 44.609375 11.75 
Q 48.6875 17.390625 48.6875 27.296875 
z
" id="DejaVuSans-112"/>
      <path d="M 30.609375 48.390625 
Q 23.390625 48.390625 19.1875 42.75 
Q 14.984375 37.109375 14.984375 27.296875 
Q 14.984375 17.484375 19.15625 11.84375 
Q 23.34375 6.203125 30.609375 6.203125 
Q 37.796875 6.203125 41.984375 11.859375 
Q 46.1875 17.53125 46.1875 27.296875 
Q 46.1875 37.015625 41.984375 42.703125 
Q 37.796875 48.390625 30.609375 48.390625 
z
M 30.609375 56 
Q 42.328125 56 49.015625 48.375 
Q 55.71875 40.765625 55.71875 27.296875 
Q 55.71875 13.875 49.015625 6.21875 
Q 42.328125 -1.421875 30.609375 -1.421875 
Q 18.84375 -1.421875 12.171875 6.21875 
Q 5.515625 13.875 5.515625 27.296875 
Q 5.515625 40.765625 12.171875 48.375 
Q 18.84375 56 30.609375 56 
z
" id="DejaVuSans-111"/>
      <path d="M 48.78125 52.59375 
L 48.78125 44.1875 
Q 44.96875 46.296875 41.140625 47.34375 
Q 37.3125 48.390625 33.40625 48.390625 
Q 24.65625 48.390625 19.8125 42.84375 
Q 14.984375 37.3125 14.984375 27.296875 
Q 14.984375 17.28125 19.8125 11.734375 
Q 24.65625 6.203125 33.40625 6.203125 
Q 37.3125 6.203125 41.140625 7.25 
Q 44.96875 8.296875 48.78125 10.40625 
L 48.78125 2.09375 
Q 45.015625 0.34375 40.984375 -0.53125 
Q 36.96875 -1.421875 32.421875 -1.421875 
Q 20.0625 -1.421875 12.78125 6.34375 
Q 5.515625 14.109375 5.515625 27.296875 
Q 5.515625 40.671875 12.859375 48.328125 
Q 20.21875 56 33.015625 56 
Q 37.15625 56 41.109375 55.140625 
Q 45.0625 54.296875 48.78125 52.59375 
z
" id="DejaVuSans-99"/>
      <path d="M 54.890625 33.015625 
L 54.890625 0 
L 45.90625 0 
L 45.90625 32.71875 
Q 45.90625 40.484375 42.875 44.328125 
Q 39.84375 48.1875 33.796875 48.1875 
Q 26.515625 48.1875 22.3125 43.546875 
Q 18.109375 38.921875 18.109375 30.90625 
L 18.109375 0 
L 9.078125 0 
L 9.078125 75.984375 
L 18.109375 75.984375 
L 18.109375 46.1875 
Q 21.34375 51.125 25.703125 53.5625 
Q 30.078125 56 35.796875 56 
Q 45.21875 56 50.046875 50.171875 
Q 54.890625 44.34375 54.890625 33.015625 
z
" id="DejaVuSans-104"/>
     </defs>
     <g style="fill:#555555;" transform="translate(205.538125 343.459)scale(0.2 -0.2)">
      <use xlink:href="#DejaVuSans-69"/>
      <use x="63.183594" xlink:href="#DejaVuSans-112"/>
      <use x="126.660156" xlink:href="#DejaVuSans-111"/>
      <use x="187.841797" xlink:href="#DejaVuSans-99"/>
      <use x="242.822266" xlink:href="#DejaVuSans-104"/>
     </g>
    </g>
   </g>
   <g id="matplotlib.axis_2">
    <g id="ytick_1">
     <g id="line2d_13">
      <path clip-path="url(#p928cfe2e06)" d="M 57.6 268.401737 
L 414.72 268.401737 
" style="fill:none;stroke:#ffffff;stroke-linecap:square;stroke-width:0.8;"/>
     </g>
     <g id="line2d_14">
      <defs>
       <path d="M 0 0 
L -3.5 0 
" id="m63b12c513e" style="stroke:#555555;stroke-width:0.8;"/>
      </defs>
      <g>
       <use style="fill:#555555;stroke:#555555;stroke-width:0.8;" x="57.6" xlink:href="#m63b12c513e" y="268.401737"/>
      </g>
     </g>
     <g id="text_8">
      <!-- 0.94 -->
      <defs>
       <path d="M 10.6875 12.40625 
L 21 12.40625 
L 21 0 
L 10.6875 0 
z
" id="DejaVuSans-46"/>
       <path d="M 10.984375 1.515625 
L 10.984375 10.5 
Q 14.703125 8.734375 18.5 7.8125 
Q 22.3125 6.890625 25.984375 6.890625 
Q 35.75 6.890625 40.890625 13.453125 
Q 46.046875 20.015625 46.78125 33.40625 
Q 43.953125 29.203125 39.59375 26.953125 
Q 35.25 24.703125 29.984375 24.703125 
Q 19.046875 24.703125 12.671875 31.3125 
Q 6.296875 37.9375 6.296875 49.421875 
Q 6.296875 60.640625 12.9375 67.421875 
Q 19.578125 74.21875 30.609375 74.21875 
Q 43.265625 74.21875 49.921875 64.515625 
Q 56.59375 54.828125 56.59375 36.375 
Q 56.59375 19.140625 48.40625 8.859375 
Q 40.234375 -1.421875 26.421875 -1.421875 
Q 22.703125 -1.421875 18.890625 -0.6875 
Q 15.09375 0.046875 10.984375 1.515625 
z
M 30.609375 32.421875 
Q 37.25 32.421875 41.125 36.953125 
Q 45.015625 41.5 45.015625 49.421875 
Q 45.015625 57.28125 41.125 61.84375 
Q 37.25 66.40625 30.609375 66.40625 
Q 23.96875 66.40625 20.09375 61.84375 
Q 16.21875 57.28125 16.21875 49.421875 
Q 16.21875 41.5 20.09375 36.953125 
Q 23.96875 32.421875 30.609375 32.421875 
z
" id="DejaVuSans-57"/>
      </defs>
      <g style="fill:#555555;" transform="translate(28.334375 272.200956)scale(0.1 -0.1)">
       <use xlink:href="#DejaVuSans-48"/>
       <use x="63.623047" xlink:href="#DejaVuSans-46"/>
       <use x="95.410156" xlink:href="#DejaVuSans-57"/>
       <use x="159.033203" xlink:href="#DejaVuSans-52"/>
      </g>
     </g>
    </g>
    <g id="ytick_2">
     <g id="line2d_15">
      <path clip-path="url(#p928cfe2e06)" d="M 57.6 221.301075 
L 414.72 221.301075 
" style="fill:none;stroke:#ffffff;stroke-linecap:square;stroke-width:0.8;"/>
     </g>
     <g id="line2d_16">
      <g>
       <use style="fill:#555555;stroke:#555555;stroke-width:0.8;" x="57.6" xlink:href="#m63b12c513e" y="221.301075"/>
      </g>
     </g>
     <g id="text_9">
      <!-- 0.95 -->
      <g style="fill:#555555;" transform="translate(28.334375 225.100294)scale(0.1 -0.1)">
       <use xlink:href="#DejaVuSans-48"/>
       <use x="63.623047" xlink:href="#DejaVuSans-46"/>
       <use x="95.410156" xlink:href="#DejaVuSans-57"/>
       <use x="159.033203" xlink:href="#DejaVuSans-53"/>
      </g>
     </g>
    </g>
    <g id="ytick_3">
     <g id="line2d_17">
      <path clip-path="url(#p928cfe2e06)" d="M 57.6 174.200414 
L 414.72 174.200414 
" style="fill:none;stroke:#ffffff;stroke-linecap:square;stroke-width:0.8;"/>
     </g>
     <g id="line2d_18">
      <g>
       <use style="fill:#555555;stroke:#555555;stroke-width:0.8;" x="57.6" xlink:href="#m63b12c513e" y="174.200414"/>
      </g>
     </g>
     <g id="text_10">
      <!-- 0.96 -->
      <defs>
       <path d="M 33.015625 40.375 
Q 26.375 40.375 22.484375 35.828125 
Q 18.609375 31.296875 18.609375 23.390625 
Q 18.609375 15.53125 22.484375 10.953125 
Q 26.375 6.390625 33.015625 6.390625 
Q 39.65625 6.390625 43.53125 10.953125 
Q 47.40625 15.53125 47.40625 23.390625 
Q 47.40625 31.296875 43.53125 35.828125 
Q 39.65625 40.375 33.015625 40.375 
z
M 52.59375 71.296875 
L 52.59375 62.3125 
Q 48.875 64.0625 45.09375 64.984375 
Q 41.3125 65.921875 37.59375 65.921875 
Q 27.828125 65.921875 22.671875 59.328125 
Q 17.53125 52.734375 16.796875 39.40625 
Q 19.671875 43.65625 24.015625 45.921875 
Q 28.375 48.1875 33.59375 48.1875 
Q 44.578125 48.1875 50.953125 41.515625 
Q 57.328125 34.859375 57.328125 23.390625 
Q 57.328125 12.15625 50.6875 5.359375 
Q 44.046875 -1.421875 33.015625 -1.421875 
Q 20.359375 -1.421875 13.671875 8.265625 
Q 6.984375 17.96875 6.984375 36.375 
Q 6.984375 53.65625 15.1875 63.9375 
Q 23.390625 74.21875 37.203125 74.21875 
Q 40.921875 74.21875 44.703125 73.484375 
Q 48.484375 72.75 52.59375 71.296875 
z
" id="DejaVuSans-54"/>
      </defs>
      <g style="fill:#555555;" transform="translate(28.334375 177.999632)scale(0.1 -0.1)">
       <use xlink:href="#DejaVuSans-48"/>
       <use x="63.623047" xlink:href="#DejaVuSans-46"/>
       <use x="95.410156" xlink:href="#DejaVuSans-57"/>
       <use x="159.033203" xlink:href="#DejaVuSans-54"/>
      </g>
     </g>
    </g>
    <g id="ytick_4">
     <g id="line2d_19">
      <path clip-path="url(#p928cfe2e06)" d="M 57.6 127.099752 
L 414.72 127.099752 
" style="fill:none;stroke:#ffffff;stroke-linecap:square;stroke-width:0.8;"/>
     </g>
     <g id="line2d_20">
      <g>
       <use style="fill:#555555;stroke:#555555;stroke-width:0.8;" x="57.6" xlink:href="#m63b12c513e" y="127.099752"/>
      </g>
     </g>
     <g id="text_11">
      <!-- 0.97 -->
      <defs>
       <path d="M 8.203125 72.90625 
L 55.078125 72.90625 
L 55.078125 68.703125 
L 28.609375 0 
L 18.3125 0 
L 43.21875 64.59375 
L 8.203125 64.59375 
z
" id="DejaVuSans-55"/>
      </defs>
      <g style="fill:#555555;" transform="translate(28.334375 130.898971)scale(0.1 -0.1)">
       <use xlink:href="#DejaVuSans-48"/>
       <use x="63.623047" xlink:href="#DejaVuSans-46"/>
       <use x="95.410156" xlink:href="#DejaVuSans-57"/>
       <use x="159.033203" xlink:href="#DejaVuSans-55"/>
      </g>
     </g>
    </g>
    <g id="ytick_5">
     <g id="line2d_21">
      <path clip-path="url(#p928cfe2e06)" d="M 57.6 79.99909 
L 414.72 79.99909 
" style="fill:none;stroke:#ffffff;stroke-linecap:square;stroke-width:0.8;"/>
     </g>
     <g id="line2d_22">
      <g>
       <use style="fill:#555555;stroke:#555555;stroke-width:0.8;" x="57.6" xlink:href="#m63b12c513e" y="79.99909"/>
      </g>
     </g>
     <g id="text_12">
      <!-- 0.98 -->
      <defs>
       <path d="M 31.78125 34.625 
Q 24.75 34.625 20.71875 30.859375 
Q 16.703125 27.09375 16.703125 20.515625 
Q 16.703125 13.921875 20.71875 10.15625 
Q 24.75 6.390625 31.78125 6.390625 
Q 38.8125 6.390625 42.859375 10.171875 
Q 46.921875 13.96875 46.921875 20.515625 
Q 46.921875 27.09375 42.890625 30.859375 
Q 38.875 34.625 31.78125 34.625 
z
M 21.921875 38.8125 
Q 15.578125 40.375 12.03125 44.71875 
Q 8.5 49.078125 8.5 55.328125 
Q 8.5 64.0625 14.71875 69.140625 
Q 20.953125 74.21875 31.78125 74.21875 
Q 42.671875 74.21875 48.875 69.140625 
Q 55.078125 64.0625 55.078125 55.328125 
Q 55.078125 49.078125 51.53125 44.71875 
Q 48 40.375 41.703125 38.8125 
Q 48.828125 37.15625 52.796875 32.3125 
Q 56.78125 27.484375 56.78125 20.515625 
Q 56.78125 9.90625 50.3125 4.234375 
Q 43.84375 -1.421875 31.78125 -1.421875 
Q 19.734375 -1.421875 13.25 4.234375 
Q 6.78125 9.90625 6.78125 20.515625 
Q 6.78125 27.484375 10.78125 32.3125 
Q 14.796875 37.15625 21.921875 38.8125 
z
M 18.3125 54.390625 
Q 18.3125 48.734375 21.84375 45.5625 
Q 25.390625 42.390625 31.78125 42.390625 
Q 38.140625 42.390625 41.71875 45.5625 
Q 45.3125 48.734375 45.3125 54.390625 
Q 45.3125 60.0625 41.71875 63.234375 
Q 38.140625 66.40625 31.78125 66.40625 
Q 25.390625 66.40625 21.84375 63.234375 
Q 18.3125 60.0625 18.3125 54.390625 
z
" id="DejaVuSans-56"/>
      </defs>
      <g style="fill:#555555;" transform="translate(28.334375 83.798309)scale(0.1 -0.1)">
       <use xlink:href="#DejaVuSans-48"/>
       <use x="63.623047" xlink:href="#DejaVuSans-46"/>
       <use x="95.410156" xlink:href="#DejaVuSans-57"/>
       <use x="159.033203" xlink:href="#DejaVuSans-56"/>
      </g>
     </g>
    </g>
    <g id="text_13">
     <!-- Accuracy -->
     <defs>
      <path d="M 34.1875 63.1875 
L 20.796875 26.90625 
L 47.609375 26.90625 
z
M 28.609375 72.90625 
L 39.796875 72.90625 
L 67.578125 0 
L 57.328125 0 
L 50.6875 18.703125 
L 17.828125 18.703125 
L 11.1875 0 
L 0.78125 0 
z
" id="DejaVuSans-65"/>
      <path d="M 8.5 21.578125 
L 8.5 54.6875 
L 17.484375 54.6875 
L 17.484375 21.921875 
Q 17.484375 14.15625 20.5 10.265625 
Q 23.53125 6.390625 29.59375 6.390625 
Q 36.859375 6.390625 41.078125 11.03125 
Q 45.3125 15.671875 45.3125 23.6875 
L 45.3125 54.6875 
L 54.296875 54.6875 
L 54.296875 0 
L 45.3125 0 
L 45.3125 8.40625 
Q 42.046875 3.421875 37.71875 1 
Q 33.40625 -1.421875 27.6875 -1.421875 
Q 18.265625 -1.421875 13.375 4.4375 
Q 8.5 10.296875 8.5 21.578125 
z
M 31.109375 56 
z
" id="DejaVuSans-117"/>
      <path d="M 41.109375 46.296875 
Q 39.59375 47.171875 37.8125 47.578125 
Q 36.03125 48 33.890625 48 
Q 26.265625 48 22.1875 43.046875 
Q 18.109375 38.09375 18.109375 28.8125 
L 18.109375 0 
L 9.078125 0 
L 9.078125 54.6875 
L 18.109375 54.6875 
L 18.109375 46.1875 
Q 20.953125 51.171875 25.484375 53.578125 
Q 30.03125 56 36.53125 56 
Q 37.453125 56 38.578125 55.875 
Q 39.703125 55.765625 41.0625 55.515625 
z
" id="DejaVuSans-114"/>
      <path d="M 34.28125 27.484375 
Q 23.390625 27.484375 19.1875 25 
Q 14.984375 22.515625 14.984375 16.5 
Q 14.984375 11.71875 18.140625 8.90625 
Q 21.296875 6.109375 26.703125 6.109375 
Q 34.1875 6.109375 38.703125 11.40625 
Q 43.21875 16.703125 43.21875 25.484375 
L 43.21875 27.484375 
z
M 52.203125 31.203125 
L 52.203125 0 
L 43.21875 0 
L 43.21875 8.296875 
Q 40.140625 3.328125 35.546875 0.953125 
Q 30.953125 -1.421875 24.3125 -1.421875 
Q 15.921875 -1.421875 10.953125 3.296875 
Q 6 8.015625 6 15.921875 
Q 6 25.140625 12.171875 29.828125 
Q 18.359375 34.515625 30.609375 34.515625 
L 43.21875 34.515625 
L 43.21875 35.40625 
Q 43.21875 41.609375 39.140625 45 
Q 35.0625 48.390625 27.6875 48.390625 
Q 23 48.390625 18.546875 47.265625 
Q 14.109375 46.140625 10.015625 43.890625 
L 10.015625 52.203125 
Q 14.9375 54.109375 19.578125 55.046875 
Q 24.21875 56 28.609375 56 
Q 40.484375 56 46.34375 49.84375 
Q 52.203125 43.703125 52.203125 31.203125 
z
" id="DejaVuSans-97"/>
      <path d="M 32.171875 -5.078125 
Q 28.375 -14.84375 24.75 -17.8125 
Q 21.140625 -20.796875 15.09375 -20.796875 
L 7.90625 -20.796875 
L 7.90625 -13.28125 
L 13.1875 -13.28125 
Q 16.890625 -13.28125 18.9375 -11.515625 
Q 21 -9.765625 23.484375 -3.21875 
L 25.09375 0.875 
L 2.984375 54.6875 
L 12.5 54.6875 
L 29.59375 11.921875 
L 46.6875 54.6875 
L 56.203125 54.6875 
z
" id="DejaVuSans-121"/>
     </defs>
     <g style="fill:#555555;" transform="translate(20.175 220.18425)rotate(-90)scale(0.2 -0.2)">
      <use xlink:href="#DejaVuSans-65"/>
      <use x="66.658203" xlink:href="#DejaVuSans-99"/>
      <use x="121.638672" xlink:href="#DejaVuSans-99"/>
      <use x="176.619141" xlink:href="#DejaVuSans-117"/>
      <use x="239.998047" xlink:href="#DejaVuSans-114"/>
      <use x="281.111328" xlink:href="#DejaVuSans-97"/>
      <use x="342.390625" xlink:href="#DejaVuSans-99"/>
      <use x="397.371094" xlink:href="#DejaVuSans-121"/>
     </g>
    </g>
   </g>
   <g id="line2d_23">
    <path clip-path="url(#p928cfe2e06)" d="M 73.832727 280.316993 
L 74.483338 295.488 
L 75.133948 270.943866 
L 75.784558 232.383976 
L 76.435169 255.747311 
L 77.085779 240.570689 
L 77.736389 242.908426 
L 78.386999 231.214967 
L 79.68822 240.564793 
L 80.33883 223.036397 
L 80.989441 233.5586 
L 81.640051 207.846018 
L 82.290661 218.361484 
L 82.941272 212.526546 
L 83.591882 239.390731 
L 84.242492 224.208213 
L 84.893103 224.211301 
L 85.543713 212.517562 
L 86.194323 189.15142 
L 86.844934 212.527107 
L 87.495544 227.723662 
L 88.146154 211.355291 
L 88.796764 207.846018 
L 89.447375 200.830842 
L 90.097985 209.000148 
L 90.748595 194.983551 
L 91.399206 218.358396 
L 92.049816 211.346307 
L 92.700426 213.686852 
L 93.351037 197.321288 
L 94.001647 196.155648 
L 94.652257 204.33085 
L 95.302868 210.180948 
L 95.953478 180.964989 
L 96.604088 173.945882 
L 97.254698 221.867949 
L 97.905309 192.657886 
L 98.555919 206.682624 
L 99.206529 176.289795 
L 99.85714 177.461331 
L 100.50775 168.111505 
L 101.15836 180.973411 
L 101.808971 207.837596 
L 102.459581 168.119928 
L 103.110191 185.636533 
L 103.760802 178.621075 
L 104.411412 214.840981 
L 105.062022 186.802734 
L 105.712633 190.317622 
L 106.363243 213.677868 
L 107.013853 186.799927 
L 107.664463 179.804683 
L 108.315074 164.601952 
L 108.965684 206.671394 
L 109.616294 180.947583 
L 110.266905 184.473981 
L 110.917515 158.749608 
L 111.568125 169.279953 
L 112.218736 191.474559 
L 113.519956 184.450679 
L 114.170567 183.284478 
L 114.821177 185.639621 
L 115.471787 177.458243 
L 116.122398 157.589302 
L 116.773008 184.456013 
L 117.423618 168.114313 
L 118.074228 168.108417 
L 118.724839 178.626971 
L 119.375449 179.798787 
L 120.026059 184.473981 
L 120.67667 166.933793 
L 121.32728 161.098855 
L 121.97789 165.75917 
L 122.628501 156.424223 
L 123.279111 158.767014 
L 123.929721 168.117401 
L 125.230942 141.230476 
L 125.881552 156.420854 
L 126.532163 175.117417 
L 127.182773 163.430135 
L 127.833383 147.070748 
L 128.483993 171.617409 
L 129.134604 142.396116 
L 129.785214 175.114891 
L 130.435824 175.114891 
L 131.086435 161.087064 
L 131.737045 157.583406 
L 132.387655 138.898634 
L 133.038266 179.798787 
L 133.688876 122.533071 
L 134.339486 151.731062 
L 134.990097 154.083398 
L 135.640707 140.067363 
L 136.291317 152.911582 
L 136.941927 159.918336 
L 137.592538 143.564844 
L 138.243148 150.560088 
L 138.893758 150.586478 
L 139.544369 154.086486 
L 140.194979 137.712219 
L 140.845589 163.433224 
L 141.4962 150.571318 
L 142.14681 151.751556 
L 142.79742 136.552194 
L 143.448031 158.763926 
L 144.098641 157.601093 
L 145.399862 128.379519 
L 146.050472 131.871105 
L 147.351692 156.424223 
L 148.002303 150.580302 
L 148.652913 140.061467 
L 149.303523 134.223441 
L 149.954134 148.228247 
L 150.604744 151.728255 
L 151.255354 149.4141 
L 151.905965 152.917196 
L 152.556575 150.574406 
L 153.207185 135.386554 
L 153.857796 140.07017 
L 154.508406 119.023798 
L 155.159016 137.723449 
L 155.809627 148.240038 
L 156.460237 141.233003 
L 157.110847 117.849174 
L 157.761457 142.401731 
L 159.062678 149.408204 
L 159.713288 142.396116 
L 160.363899 159.892227 
L 161.014509 122.515384 
L 161.665119 127.201807 
L 162.31573 130.710799 
L 162.96634 116.692518 
L 163.61695 117.861527 
L 164.267561 152.923092 
L 164.918171 131.877001 
L 165.568781 150.562615 
L 166.219392 140.052483 
L 166.870002 142.370007 
L 167.520612 136.554721 
L 168.171222 137.715588 
L 168.821833 140.052202 
L 169.472443 135.389642 
L 170.123053 133.025515 
L 170.773664 140.046868 
L 171.424274 130.699289 
L 172.074884 117.85507 
L 172.725495 123.692815 
L 173.376105 137.720922 
L 174.026715 145.902301 
L 174.677326 130.704904 
L 176.629156 130.705465 
L 177.279767 129.536737 
L 177.930377 117.864053 
L 179.231598 147.064852 
L 179.882208 140.055852 
L 180.532818 135.386554 
L 181.183429 116.686341 
L 181.834039 114.348885 
L 183.13526 136.557528 
L 183.78587 137.718115 
L 184.43648 154.077502 
L 185.087091 115.502734 
L 185.737701 121.366869 
L 186.388311 121.355078 
L 187.038921 107.338762 
L 187.689532 119.029413 
L 188.340142 113.177349 
L 188.990752 129.524946 
L 189.641363 149.391079 
L 190.942583 121.361535 
L 191.593194 127.199 
L 192.243804 147.05643 
L 192.894414 122.530263 
L 193.545025 109.670603 
L 194.846245 129.539264 
L 195.496856 114.3545 
L 196.147466 120.183823 
L 196.798076 113.168366 
L 197.448686 121.360974 
L 198.099297 103.832858 
L 198.749907 121.364062 
L 199.400517 110.851403 
L 200.051128 106.170876 
L 200.701738 115.514806 
L 201.352348 109.673691 
L 202.002959 110.84242 
L 202.653569 120.18635 
L 203.304179 124.875861 
L 203.95479 124.853121 
L 205.25601 110.828102 
L 205.906621 89.796328 
L 207.207841 128.379519 
L 207.858451 130.708272 
L 208.509062 108.49626 
L 209.159672 102.655146 
L 209.810282 121.360974 
L 211.111503 116.67427 
L 211.762113 113.1737 
L 212.412724 102.652339 
L 213.063334 113.179876 
L 213.713944 112.011148 
L 214.364555 116.683534 
L 215.015165 108.513947 
L 215.665775 108.502156 
L 216.316385 106.158804 
L 216.966996 126.024937 
L 217.617606 109.664989 
L 218.268216 97.983041 
L 218.918827 115.511718 
L 219.569437 96.820208 
L 220.220047 120.195333 
L 220.870658 121.355639 
L 221.521268 113.176788 
L 222.171878 101.489506 
L 222.822489 117.851981 
L 223.473099 99.149242 
L 224.123709 101.495682 
L 224.77432 135.371675 
L 225.42493 115.496838 
L 226.07554 127.181594 
L 226.72615 112.020132 
L 227.376761 133.033938 
L 228.027371 94.491455 
L 228.677981 110.851403 
L 229.328592 103.83005 
L 229.979202 103.833419 
L 230.629812 100.320778 
L 231.280423 119.009199 
L 231.931033 109.673691 
L 232.581643 106.170314 
L 233.232254 99.157664 
L 233.882864 110.828102 
L 234.533474 97.992024 
L 235.184085 120.195895 
L 235.834695 128.347795 
L 236.485305 113.165278 
L 237.135915 110.833997 
L 237.786526 95.65176 
L 239.087746 109.673691 
L 240.388967 97.983041 
L 241.039577 108.51114 
L 241.690188 99.149242 
L 242.340798 110.837086 
L 242.991408 85.130119 
L 243.642019 95.642777 
L 244.292629 108.508332 
L 244.943239 108.508051 
L 245.59385 101.492594 
L 246.24446 110.84242 
L 246.89507 102.655427 
L 247.54568 99.140258 
L 248.196291 101.478276 
L 248.846901 109.673691 
L 249.497511 97.992024 
L 250.148122 109.662462 
L 250.798732 99.151769 
L 251.449342 100.314882 
L 252.099953 88.639111 
L 252.750563 88.642199 
L 253.401173 82.801365 
L 254.051784 85.124223 
L 254.702394 88.630127 
L 255.353004 110.839612 
L 256.003615 90.968145 
L 256.654225 95.660463 
L 257.955445 90.976567 
L 258.606056 87.450169 
L 259.256666 93.319638 
L 259.907276 92.142768 
L 260.557887 97.992024 
L 261.208497 87.470663 
L 261.859107 86.304742 
L 262.509718 106.158804 
L 263.810938 79.289285 
L 264.461549 96.800275 
L 265.112159 76.945933 
L 265.762769 94.488366 
L 266.413379 102.646443 
L 267.06399 93.319638 
L 267.7146 81.632637 
L 269.015821 102.655427 
L 269.666431 103.821067 
L 270.317041 113.183245 
L 270.967652 94.479383 
L 271.618262 101.489506 
L 272.268872 81.626461 
L 272.919483 89.813734 
L 273.570093 102.646443 
L 274.220703 80.449029 
L 274.871314 95.654568 
L 275.521924 90.973479 
L 276.172534 96.820489 
L 277.473755 87.47347 
L 278.124365 79.283389 
L 278.774975 92.127889 
L 279.425586 89.793521 
L 280.076196 82.786767 
L 280.726806 88.627319 
L 281.377417 86.301935 
L 282.028027 103.832858 
L 282.678637 115.499927 
L 283.329248 110.825014 
L 283.979858 97.992024 
L 284.630468 90.959161 
L 285.281079 103.821067 
L 285.931689 94.479944 
L 286.582299 79.292373 
L 287.232909 95.622563 
L 287.88352 93.288195 
L 288.53413 96.808978 
L 289.18474 88.647533 
L 289.835351 89.790433 
L 290.485961 89.798855 
L 291.136571 100.326954 
L 291.787182 90.968145 
L 292.437792 73.448451 
L 293.088402 76.954355 
L 293.739013 78.111573 
L 294.389623 81.621126 
L 295.040233 87.455503 
L 295.690844 90.970391 
L 296.341454 87.470663 
L 296.992064 86.295759 
L 297.642674 93.30532 
L 298.293285 103.835946 
L 298.943895 78.105677 
L 299.594505 87.467575 
L 300.245116 80.449029 
L 300.895726 66.426818 
L 301.546336 69.944793 
L 302.196947 97.983041 
L 302.847557 83.970374 
L 303.498167 89.801662 
L 304.148778 107.333428 
L 304.799388 73.442556 
L 305.449998 83.946511 
L 306.100608 78.123645 
L 306.751219 82.795189 
L 307.401829 81.632637 
L 308.052439 90.985551 
L 308.70305 94.476856 
L 309.35366 71.104538 
L 310.00427 71.108188 
L 310.654881 95.622563 
L 311.305491 59.417817 
L 312.606712 79.292092 
L 313.257322 81.621126 
L 313.907932 92.136592 
L 314.558543 69.929914 
L 315.209153 72.267932 
L 315.859763 82.783398 
L 316.510373 74.611003 
L 317.160984 90.973479 
L 317.811594 85.130119 
L 319.112815 87.470382 
L 319.763425 94.474049 
L 320.414035 92.127889 
L 321.064646 74.599212 
L 321.715256 80.451837 
L 322.365866 82.798838 
L 323.016477 73.445925 
L 324.317697 68.767643 
L 324.968308 85.132645 
L 325.618918 82.792381 
L 326.269528 83.96139 
L 326.920138 87.450169 
L 327.570749 76.945933 
L 328.221359 87.476278 
L 328.871969 74.605669 
L 329.52258 83.96139 
L 330.17319 90.968145 
L 330.8238 67.587124 
L 332.125021 83.963917 
L 332.775631 79.269072 
L 333.426242 80.437519 
L 334.076852 65.267073 
L 334.727462 83.958021 
L 335.378073 87.476559 
L 336.028683 88.627319 
L 336.679293 78.120837 
L 337.329903 83.946792 
L 337.980514 90.967583 
L 338.631124 71.099204 
L 339.281734 82.772729 
L 339.932345 72.265405 
L 340.582955 79.283389 
L 341.884176 88.627319 
L 342.534786 67.587404 
L 343.836007 89.798855 
L 344.486617 66.432994 
L 345.137227 62.926809 
L 345.787837 60.589072 
L 346.438448 79.286197 
L 347.089058 80.443134 
L 347.739668 62.920914 
L 348.390279 85.118327 
L 349.040889 80.445941 
L 349.691499 97.983041 
L 350.34211 75.773836 
L 350.99272 64.095538 
L 351.64333 64.094976 
L 352.293941 62.932143 
L 352.944551 80.457732 
L 353.595161 65.258089 
L 354.245772 71.104538 
L 354.896382 67.598634 
L 355.546992 73.445363 
L 356.197602 74.616899 
L 356.848213 68.767081 
L 357.498823 94.471241 
L 358.149433 71.104538 
L 358.800044 54.7488 
L 359.450654 78.123083 
L 360.101264 79.283389 
L 360.751875 69.930476 
L 361.402485 81.617758 
L 362.053095 78.10287 
L 362.703706 64.086554 
L 363.354316 72.273547 
L 364.004926 58.240386 
L 364.655537 53.582879 
L 365.306147 64.086554 
L 365.956757 61.743202 
L 366.607367 85.127311 
L 367.257978 86.298847 
L 367.908588 66.423729 
L 368.559198 54.742624 
L 369.209809 65.258089 
L 369.860419 64.10396 
L 370.511029 76.943126 
L 371.16164 68.761186 
L 371.81225 85.121135 
L 372.46286 61.749097 
L 373.113471 58.257792 
L 373.764081 61.754712 
L 374.414691 67.60453 
L 375.065302 66.429906 
L 375.715912 69.927387 
L 376.366522 69.939459 
L 377.017132 68.767081 
L 377.667743 60.594968 
L 378.318353 69.939459 
L 378.968963 58.237298 
L 379.619574 78.119995 
L 380.270184 62.935232 
L 380.920794 61.74629 
L 381.571405 76.94846 
L 382.222015 60.585984 
L 382.872625 66.421484 
L 383.523236 74.59079 
L 384.173846 57.076992 
L 384.824456 80.454925 
L 385.475066 59.408834 
L 386.125677 53.568 
L 386.776287 78.117749 
L 387.426897 66.429625 
L 388.077508 58.242632 
L 388.728118 72.270739 
L 389.378728 62.920352 
L 390.029339 73.448451 
L 390.679949 62.926809 
L 391.330559 61.751624 
L 391.98117 78.108485 
L 392.63178 62.920914 
L 393.933001 53.570527 
L 394.583611 54.74515 
L 395.234221 69.939459 
L 395.884831 64.089642 
L 396.535442 82.792381 
L 397.186052 79.274406 
L 397.836662 68.75529 
L 398.487273 60.589072 
L 398.487273 60.589072 
" style="fill:none;stroke:#e24a33;stroke-linecap:square;stroke-width:3;"/>
   </g>
   <g id="patch_3">
    <path d="M 57.6 307.584 
L 57.6 41.472 
" style="fill:none;stroke:#ffffff;stroke-linecap:square;stroke-linejoin:miter;"/>
   </g>
   <g id="patch_4">
    <path d="M 414.72 307.584 
L 414.72 41.472 
" style="fill:none;stroke:#ffffff;stroke-linecap:square;stroke-linejoin:miter;"/>
   </g>
   <g id="patch_5">
    <path d="M 57.6 307.584 
L 414.72 307.584 
" style="fill:none;stroke:#ffffff;stroke-linecap:square;stroke-linejoin:miter;"/>
   </g>
   <g id="patch_6">
    <path d="M 57.6 41.472 
L 414.72 41.472 
" style="fill:none;stroke:#ffffff;stroke-linecap:square;stroke-linejoin:miter;"/>
   </g>
   <g id="text_14">
    <!-- max  = 98.5611617565155%, segmentation+frame+score+dtw+mfcc, 480epoch -->
    <defs>
     <path d="M 52 44.1875 
Q 55.375 50.25 60.0625 53.125 
Q 64.75 56 71.09375 56 
Q 79.640625 56 84.28125 50.015625 
Q 88.921875 44.046875 88.921875 33.015625 
L 88.921875 0 
L 79.890625 0 
L 79.890625 32.71875 
Q 79.890625 40.578125 77.09375 44.375 
Q 74.3125 48.1875 68.609375 48.1875 
Q 61.625 48.1875 57.5625 43.546875 
Q 53.515625 38.921875 53.515625 30.90625 
L 53.515625 0 
L 44.484375 0 
L 44.484375 32.71875 
Q 44.484375 40.625 41.703125 44.40625 
Q 38.921875 48.1875 33.109375 48.1875 
Q 26.21875 48.1875 22.15625 43.53125 
Q 18.109375 38.875 18.109375 30.90625 
L 18.109375 0 
L 9.078125 0 
L 9.078125 54.6875 
L 18.109375 54.6875 
L 18.109375 46.1875 
Q 21.1875 51.21875 25.484375 53.609375 
Q 29.78125 56 35.6875 56 
Q 41.65625 56 45.828125 52.96875 
Q 50 49.953125 52 44.1875 
z
" id="DejaVuSans-109"/>
     <path d="M 54.890625 54.6875 
L 35.109375 28.078125 
L 55.90625 0 
L 45.3125 0 
L 29.390625 21.484375 
L 13.484375 0 
L 2.875 0 
L 24.125 28.609375 
L 4.6875 54.6875 
L 15.28125 54.6875 
L 29.78125 35.203125 
L 44.28125 54.6875 
z
" id="DejaVuSans-120"/>
     <path id="DejaVuSans-32"/>
     <path d="M 10.59375 45.40625 
L 73.1875 45.40625 
L 73.1875 37.203125 
L 10.59375 37.203125 
z
M 10.59375 25.484375 
L 73.1875 25.484375 
L 73.1875 17.1875 
L 10.59375 17.1875 
z
" id="DejaVuSans-61"/>
     <path d="M 72.703125 32.078125 
Q 68.453125 32.078125 66.03125 28.46875 
Q 63.625 24.859375 63.625 18.40625 
Q 63.625 12.0625 66.03125 8.421875 
Q 68.453125 4.78125 72.703125 4.78125 
Q 76.859375 4.78125 79.265625 8.421875 
Q 81.6875 12.0625 81.6875 18.40625 
Q 81.6875 24.8125 79.265625 28.4375 
Q 76.859375 32.078125 72.703125 32.078125 
z
M 72.703125 38.28125 
Q 80.421875 38.28125 84.953125 32.90625 
Q 89.5 27.546875 89.5 18.40625 
Q 89.5 9.28125 84.9375 3.921875 
Q 80.375 -1.421875 72.703125 -1.421875 
Q 64.890625 -1.421875 60.34375 3.921875 
Q 55.8125 9.28125 55.8125 18.40625 
Q 55.8125 27.59375 60.375 32.9375 
Q 64.9375 38.28125 72.703125 38.28125 
z
M 22.3125 68.015625 
Q 18.109375 68.015625 15.6875 64.375 
Q 13.28125 60.75 13.28125 54.390625 
Q 13.28125 47.953125 15.671875 44.328125 
Q 18.0625 40.71875 22.3125 40.71875 
Q 26.5625 40.71875 28.96875 44.328125 
Q 31.390625 47.953125 31.390625 54.390625 
Q 31.390625 60.6875 28.953125 64.34375 
Q 26.515625 68.015625 22.3125 68.015625 
z
M 66.40625 74.21875 
L 74.21875 74.21875 
L 28.609375 -1.421875 
L 20.796875 -1.421875 
z
M 22.3125 74.21875 
Q 30.03125 74.21875 34.609375 68.875 
Q 39.203125 63.53125 39.203125 54.390625 
Q 39.203125 45.171875 34.640625 39.84375 
Q 30.078125 34.515625 22.3125 34.515625 
Q 14.546875 34.515625 10.03125 39.859375 
Q 5.515625 45.21875 5.515625 54.390625 
Q 5.515625 63.484375 10.046875 68.84375 
Q 14.59375 74.21875 22.3125 74.21875 
z
" id="DejaVuSans-37"/>
     <path d="M 11.71875 12.40625 
L 22.015625 12.40625 
L 22.015625 4 
L 14.015625 -11.625 
L 7.71875 -11.625 
L 11.71875 4 
z
" id="DejaVuSans-44"/>
     <path d="M 44.28125 53.078125 
L 44.28125 44.578125 
Q 40.484375 46.53125 36.375 47.5 
Q 32.28125 48.484375 27.875 48.484375 
Q 21.1875 48.484375 17.84375 46.4375 
Q 14.5 44.390625 14.5 40.28125 
Q 14.5 37.15625 16.890625 35.375 
Q 19.28125 33.59375 26.515625 31.984375 
L 29.59375 31.296875 
Q 39.15625 29.25 43.1875 25.515625 
Q 47.21875 21.78125 47.21875 15.09375 
Q 47.21875 7.46875 41.1875 3.015625 
Q 35.15625 -1.421875 24.609375 -1.421875 
Q 20.21875 -1.421875 15.453125 -0.5625 
Q 10.6875 0.296875 5.421875 2 
L 5.421875 11.28125 
Q 10.40625 8.6875 15.234375 7.390625 
Q 20.0625 6.109375 24.8125 6.109375 
Q 31.15625 6.109375 34.5625 8.28125 
Q 37.984375 10.453125 37.984375 14.40625 
Q 37.984375 18.0625 35.515625 20.015625 
Q 33.0625 21.96875 24.703125 23.78125 
L 21.578125 24.515625 
Q 13.234375 26.265625 9.515625 29.90625 
Q 5.8125 33.546875 5.8125 39.890625 
Q 5.8125 47.609375 11.28125 51.796875 
Q 16.75 56 26.8125 56 
Q 31.78125 56 36.171875 55.265625 
Q 40.578125 54.546875 44.28125 53.078125 
z
" id="DejaVuSans-115"/>
     <path d="M 56.203125 29.59375 
L 56.203125 25.203125 
L 14.890625 25.203125 
Q 15.484375 15.921875 20.484375 11.0625 
Q 25.484375 6.203125 34.421875 6.203125 
Q 39.59375 6.203125 44.453125 7.46875 
Q 49.3125 8.734375 54.109375 11.28125 
L 54.109375 2.78125 
Q 49.265625 0.734375 44.1875 -0.34375 
Q 39.109375 -1.421875 33.890625 -1.421875 
Q 20.796875 -1.421875 13.15625 6.1875 
Q 5.515625 13.8125 5.515625 26.8125 
Q 5.515625 40.234375 12.765625 48.109375 
Q 20.015625 56 32.328125 56 
Q 43.359375 56 49.78125 48.890625 
Q 56.203125 41.796875 56.203125 29.59375 
z
M 47.21875 32.234375 
Q 47.125 39.59375 43.09375 43.984375 
Q 39.0625 48.390625 32.421875 48.390625 
Q 24.90625 48.390625 20.390625 44.140625 
Q 15.875 39.890625 15.1875 32.171875 
z
" id="DejaVuSans-101"/>
     <path d="M 45.40625 27.984375 
Q 45.40625 37.75 41.375 43.109375 
Q 37.359375 48.484375 30.078125 48.484375 
Q 22.859375 48.484375 18.828125 43.109375 
Q 14.796875 37.75 14.796875 27.984375 
Q 14.796875 18.265625 18.828125 12.890625 
Q 22.859375 7.515625 30.078125 7.515625 
Q 37.359375 7.515625 41.375 12.890625 
Q 45.40625 18.265625 45.40625 27.984375 
z
M 54.390625 6.78125 
Q 54.390625 -7.171875 48.1875 -13.984375 
Q 42 -20.796875 29.203125 -20.796875 
Q 24.46875 -20.796875 20.265625 -20.09375 
Q 16.0625 -19.390625 12.109375 -17.921875 
L 12.109375 -9.1875 
Q 16.0625 -11.328125 19.921875 -12.34375 
Q 23.78125 -13.375 27.78125 -13.375 
Q 36.625 -13.375 41.015625 -8.765625 
Q 45.40625 -4.15625 45.40625 5.171875 
L 45.40625 9.625 
Q 42.625 4.78125 38.28125 2.390625 
Q 33.9375 0 27.875 0 
Q 17.828125 0 11.671875 7.65625 
Q 5.515625 15.328125 5.515625 27.984375 
Q 5.515625 40.671875 11.671875 48.328125 
Q 17.828125 56 27.875 56 
Q 33.9375 56 38.28125 53.609375 
Q 42.625 51.21875 45.40625 46.390625 
L 45.40625 54.6875 
L 54.390625 54.6875 
z
" id="DejaVuSans-103"/>
     <path d="M 54.890625 33.015625 
L 54.890625 0 
L 45.90625 0 
L 45.90625 32.71875 
Q 45.90625 40.484375 42.875 44.328125 
Q 39.84375 48.1875 33.796875 48.1875 
Q 26.515625 48.1875 22.3125 43.546875 
Q 18.109375 38.921875 18.109375 30.90625 
L 18.109375 0 
L 9.078125 0 
L 9.078125 54.6875 
L 18.109375 54.6875 
L 18.109375 46.1875 
Q 21.34375 51.125 25.703125 53.5625 
Q 30.078125 56 35.796875 56 
Q 45.21875 56 50.046875 50.171875 
Q 54.890625 44.34375 54.890625 33.015625 
z
" id="DejaVuSans-110"/>
     <path d="M 18.3125 70.21875 
L 18.3125 54.6875 
L 36.8125 54.6875 
L 36.8125 47.703125 
L 18.3125 47.703125 
L 18.3125 18.015625 
Q 18.3125 11.328125 20.140625 9.421875 
Q 21.96875 7.515625 27.59375 7.515625 
L 36.8125 7.515625 
L 36.8125 0 
L 27.59375 0 
Q 17.1875 0 13.234375 3.875 
Q 9.28125 7.765625 9.28125 18.015625 
L 9.28125 47.703125 
L 2.6875 47.703125 
L 2.6875 54.6875 
L 9.28125 54.6875 
L 9.28125 70.21875 
z
" id="DejaVuSans-116"/>
     <path d="M 9.421875 54.6875 
L 18.40625 54.6875 
L 18.40625 0 
L 9.421875 0 
z
M 9.421875 75.984375 
L 18.40625 75.984375 
L 18.40625 64.59375 
L 9.421875 64.59375 
z
" id="DejaVuSans-105"/>
     <path d="M 46 62.703125 
L 46 35.5 
L 73.1875 35.5 
L 73.1875 27.203125 
L 46 27.203125 
L 46 0 
L 37.796875 0 
L 37.796875 27.203125 
L 10.59375 27.203125 
L 10.59375 35.5 
L 37.796875 35.5 
L 37.796875 62.703125 
z
" id="DejaVuSans-43"/>
     <path d="M 37.109375 75.984375 
L 37.109375 68.5 
L 28.515625 68.5 
Q 23.6875 68.5 21.796875 66.546875 
Q 19.921875 64.59375 19.921875 59.515625 
L 19.921875 54.6875 
L 34.71875 54.6875 
L 34.71875 47.703125 
L 19.921875 47.703125 
L 19.921875 0 
L 10.890625 0 
L 10.890625 47.703125 
L 2.296875 47.703125 
L 2.296875 54.6875 
L 10.890625 54.6875 
L 10.890625 58.5 
Q 10.890625 67.625 15.140625 71.796875 
Q 19.390625 75.984375 28.609375 75.984375 
z
" id="DejaVuSans-102"/>
     <path d="M 45.40625 46.390625 
L 45.40625 75.984375 
L 54.390625 75.984375 
L 54.390625 0 
L 45.40625 0 
L 45.40625 8.203125 
Q 42.578125 3.328125 38.25 0.953125 
Q 33.9375 -1.421875 27.875 -1.421875 
Q 17.96875 -1.421875 11.734375 6.484375 
Q 5.515625 14.40625 5.515625 27.296875 
Q 5.515625 40.1875 11.734375 48.09375 
Q 17.96875 56 27.875 56 
Q 33.9375 56 38.25 53.625 
Q 42.578125 51.265625 45.40625 46.390625 
z
M 14.796875 27.296875 
Q 14.796875 17.390625 18.875 11.75 
Q 22.953125 6.109375 30.078125 6.109375 
Q 37.203125 6.109375 41.296875 11.75 
Q 45.40625 17.390625 45.40625 27.296875 
Q 45.40625 37.203125 41.296875 42.84375 
Q 37.203125 48.484375 30.078125 48.484375 
Q 22.953125 48.484375 18.875 42.84375 
Q 14.796875 37.203125 14.796875 27.296875 
z
" id="DejaVuSans-100"/>
     <path d="M 4.203125 54.6875 
L 13.1875 54.6875 
L 24.421875 12.015625 
L 35.59375 54.6875 
L 46.1875 54.6875 
L 57.421875 12.015625 
L 68.609375 54.6875 
L 77.59375 54.6875 
L 63.28125 0 
L 52.6875 0 
L 40.921875 44.828125 
L 29.109375 0 
L 18.5 0 
z
" id="DejaVuSans-119"/>
    </defs>
    <g transform="translate(73.897788 53.568)scale(0.1 -0.1)">
     <use xlink:href="#DejaVuSans-109"/>
     <use x="97.412109" xlink:href="#DejaVuSans-97"/>
     <use x="158.691406" xlink:href="#DejaVuSans-120"/>
     <use x="217.871094" xlink:href="#DejaVuSans-32"/>
     <use x="249.658203" xlink:href="#DejaVuSans-32"/>
     <use x="281.445312" xlink:href="#DejaVuSans-61"/>
     <use x="365.234375" xlink:href="#DejaVuSans-32"/>
     <use x="397.021484" xlink:href="#DejaVuSans-57"/>
     <use x="460.644531" xlink:href="#DejaVuSans-56"/>
     <use x="524.267578" xlink:href="#DejaVuSans-46"/>
     <use x="556.054688" xlink:href="#DejaVuSans-53"/>
     <use x="619.677734" xlink:href="#DejaVuSans-54"/>
     <use x="683.300781" xlink:href="#DejaVuSans-49"/>
     <use x="746.923828" xlink:href="#DejaVuSans-49"/>
     <use x="810.546875" xlink:href="#DejaVuSans-54"/>
     <use x="874.169922" xlink:href="#DejaVuSans-49"/>
     <use x="937.792969" xlink:href="#DejaVuSans-55"/>
     <use x="1001.416016" xlink:href="#DejaVuSans-53"/>
     <use x="1065.039062" xlink:href="#DejaVuSans-54"/>
     <use x="1128.662109" xlink:href="#DejaVuSans-53"/>
     <use x="1192.285156" xlink:href="#DejaVuSans-49"/>
     <use x="1255.908203" xlink:href="#DejaVuSans-53"/>
     <use x="1319.53125" xlink:href="#DejaVuSans-53"/>
     <use x="1383.154297" xlink:href="#DejaVuSans-37"/>
     <use x="1478.173828" xlink:href="#DejaVuSans-44"/>
     <use x="1509.960938" xlink:href="#DejaVuSans-32"/>
     <use x="1541.748047" xlink:href="#DejaVuSans-115"/>
     <use x="1593.847656" xlink:href="#DejaVuSans-101"/>
     <use x="1655.371094" xlink:href="#DejaVuSans-103"/>
     <use x="1718.847656" xlink:href="#DejaVuSans-109"/>
     <use x="1816.259766" xlink:href="#DejaVuSans-101"/>
     <use x="1877.783203" xlink:href="#DejaVuSans-110"/>
     <use x="1941.162109" xlink:href="#DejaVuSans-116"/>
     <use x="1980.371094" xlink:href="#DejaVuSans-97"/>
     <use x="2041.650391" xlink:href="#DejaVuSans-116"/>
     <use x="2080.859375" xlink:href="#DejaVuSans-105"/>
     <use x="2108.642578" xlink:href="#DejaVuSans-111"/>
     <use x="2169.824219" xlink:href="#DejaVuSans-110"/>
     <use x="2233.203125" xlink:href="#DejaVuSans-43"/>
     <use x="2316.992188" xlink:href="#DejaVuSans-102"/>
     <use x="2352.197266" xlink:href="#DejaVuSans-114"/>
     <use x="2393.310547" xlink:href="#DejaVuSans-97"/>
     <use x="2454.589844" xlink:href="#DejaVuSans-109"/>
     <use x="2552.001953" xlink:href="#DejaVuSans-101"/>
     <use x="2613.525391" xlink:href="#DejaVuSans-43"/>
     <use x="2697.314453" xlink:href="#DejaVuSans-115"/>
     <use x="2749.414062" xlink:href="#DejaVuSans-99"/>
     <use x="2804.394531" xlink:href="#DejaVuSans-111"/>
     <use x="2865.576172" xlink:href="#DejaVuSans-114"/>
     <use x="2904.439453" xlink:href="#DejaVuSans-101"/>
     <use x="2965.962891" xlink:href="#DejaVuSans-43"/>
     <use x="3049.751953" xlink:href="#DejaVuSans-100"/>
     <use x="3113.228516" xlink:href="#DejaVuSans-116"/>
     <use x="3152.4375" xlink:href="#DejaVuSans-119"/>
     <use x="3234.224609" xlink:href="#DejaVuSans-43"/>
     <use x="3318.013672" xlink:href="#DejaVuSans-109"/>
     <use x="3415.425781" xlink:href="#DejaVuSans-102"/>
     <use x="3450.630859" xlink:href="#DejaVuSans-99"/>
     <use x="3505.611328" xlink:href="#DejaVuSans-99"/>
     <use x="3560.591797" xlink:href="#DejaVuSans-44"/>
     <use x="3592.378906" xlink:href="#DejaVuSans-32"/>
     <use x="3624.166016" xlink:href="#DejaVuSans-52"/>
     <use x="3687.789062" xlink:href="#DejaVuSans-56"/>
     <use x="3751.412109" xlink:href="#DejaVuSans-48"/>
     <use x="3815.035156" xlink:href="#DejaVuSans-101"/>
     <use x="3876.558594" xlink:href="#DejaVuSans-112"/>
     <use x="3940.035156" xlink:href="#DejaVuSans-111"/>
     <use x="4001.216797" xlink:href="#DejaVuSans-99"/>
     <use x="4056.197266" xlink:href="#DejaVuSans-104"/>
    </g>
   </g>
   <g id="text_15">
    <!-- binary train accuracy of ekutsu -->
    <defs>
     <path d="M 48.6875 27.296875 
Q 48.6875 37.203125 44.609375 42.84375 
Q 40.53125 48.484375 33.40625 48.484375 
Q 26.265625 48.484375 22.1875 42.84375 
Q 18.109375 37.203125 18.109375 27.296875 
Q 18.109375 17.390625 22.1875 11.75 
Q 26.265625 6.109375 33.40625 6.109375 
Q 40.53125 6.109375 44.609375 11.75 
Q 48.6875 17.390625 48.6875 27.296875 
z
M 18.109375 46.390625 
Q 20.953125 51.265625 25.265625 53.625 
Q 29.59375 56 35.59375 56 
Q 45.5625 56 51.78125 48.09375 
Q 58.015625 40.1875 58.015625 27.296875 
Q 58.015625 14.40625 51.78125 6.484375 
Q 45.5625 -1.421875 35.59375 -1.421875 
Q 29.59375 -1.421875 25.265625 0.953125 
Q 20.953125 3.328125 18.109375 8.203125 
L 18.109375 0 
L 9.078125 0 
L 9.078125 75.984375 
L 18.109375 75.984375 
z
" id="DejaVuSans-98"/>
     <path d="M 9.078125 75.984375 
L 18.109375 75.984375 
L 18.109375 31.109375 
L 44.921875 54.6875 
L 56.390625 54.6875 
L 27.390625 29.109375 
L 57.625 0 
L 45.90625 0 
L 18.109375 26.703125 
L 18.109375 0 
L 9.078125 0 
z
" id="DejaVuSans-107"/>
    </defs>
    <g transform="translate(80.356875 35.472)scale(0.2 -0.2)">
     <use xlink:href="#DejaVuSans-98"/>
     <use x="63.476562" xlink:href="#DejaVuSans-105"/>
     <use x="91.259766" xlink:href="#DejaVuSans-110"/>
     <use x="154.638672" xlink:href="#DejaVuSans-97"/>
     <use x="215.917969" xlink:href="#DejaVuSans-114"/>
     <use x="257.03125" xlink:href="#DejaVuSans-121"/>
     <use x="316.210938" xlink:href="#DejaVuSans-32"/>
     <use x="347.998047" xlink:href="#DejaVuSans-116"/>
     <use x="387.207031" xlink:href="#DejaVuSans-114"/>
     <use x="428.320312" xlink:href="#DejaVuSans-97"/>
     <use x="489.599609" xlink:href="#DejaVuSans-105"/>
     <use x="517.382812" xlink:href="#DejaVuSans-110"/>
     <use x="580.761719" xlink:href="#DejaVuSans-32"/>
     <use x="612.548828" xlink:href="#DejaVuSans-97"/>
     <use x="673.828125" xlink:href="#DejaVuSans-99"/>
     <use x="728.808594" xlink:href="#DejaVuSans-99"/>
     <use x="783.789062" xlink:href="#DejaVuSans-117"/>
     <use x="847.167969" xlink:href="#DejaVuSans-114"/>
     <use x="888.28125" xlink:href="#DejaVuSans-97"/>
     <use x="949.560547" xlink:href="#DejaVuSans-99"/>
     <use x="1004.541016" xlink:href="#DejaVuSans-121"/>
     <use x="1063.720703" xlink:href="#DejaVuSans-32"/>
     <use x="1095.507812" xlink:href="#DejaVuSans-111"/>
     <use x="1156.689453" xlink:href="#DejaVuSans-102"/>
     <use x="1191.894531" xlink:href="#DejaVuSans-32"/>
     <use x="1223.681641" xlink:href="#DejaVuSans-101"/>
     <use x="1285.205078" xlink:href="#DejaVuSans-107"/>
     <use x="1339.990234" xlink:href="#DejaVuSans-117"/>
     <use x="1403.369141" xlink:href="#DejaVuSans-116"/>
     <use x="1442.578125" xlink:href="#DejaVuSans-115"/>
     <use x="1494.677734" xlink:href="#DejaVuSans-117"/>
    </g>
   </g>
   <g id="legend_1">
    <g id="patch_7">
     <path d="M 64.6 64.150125 
L 298.4875 64.150125 
Q 300.4875 64.150125 300.4875 62.150125 
L 300.4875 48.472 
Q 300.4875 46.472 298.4875 46.472 
L 64.6 46.472 
Q 62.6 46.472 62.6 48.472 
L 62.6 62.150125 
Q 62.6 64.150125 64.6 64.150125 
z
" style="fill:#e5e5e5;opacity:0.8;stroke:#cccccc;stroke-linejoin:miter;stroke-width:0.5;"/>
    </g>
    <g id="line2d_24">
     <path d="M 66.6 54.570438 
L 86.6 54.570438 
" style="fill:none;stroke:#e24a33;stroke-linecap:square;stroke-width:3;"/>
    </g>
    <g id="line2d_25"/>
    <g id="text_16">
     <!-- segmentation+frame+score+dtw+mfcc -->
     <g transform="translate(94.6 58.070438)scale(0.1 -0.1)">
      <use xlink:href="#DejaVuSans-115"/>
      <use x="52.099609" xlink:href="#DejaVuSans-101"/>
      <use x="113.623047" xlink:href="#DejaVuSans-103"/>
      <use x="177.099609" xlink:href="#DejaVuSans-109"/>
      <use x="274.511719" xlink:href="#DejaVuSans-101"/>
      <use x="336.035156" xlink:href="#DejaVuSans-110"/>
      <use x="399.414062" xlink:href="#DejaVuSans-116"/>
      <use x="438.623047" xlink:href="#DejaVuSans-97"/>
      <use x="499.902344" xlink:href="#DejaVuSans-116"/>
      <use x="539.111328" xlink:href="#DejaVuSans-105"/>
      <use x="566.894531" xlink:href="#DejaVuSans-111"/>
      <use x="628.076172" xlink:href="#DejaVuSans-110"/>
      <use x="691.455078" xlink:href="#DejaVuSans-43"/>
      <use x="775.244141" xlink:href="#DejaVuSans-102"/>
      <use x="810.449219" xlink:href="#DejaVuSans-114"/>
      <use x="851.5625" xlink:href="#DejaVuSans-97"/>
      <use x="912.841797" xlink:href="#DejaVuSans-109"/>
      <use x="1010.253906" xlink:href="#DejaVuSans-101"/>
      <use x="1071.777344" xlink:href="#DejaVuSans-43"/>
      <use x="1155.566406" xlink:href="#DejaVuSans-115"/>
      <use x="1207.666016" xlink:href="#DejaVuSans-99"/>
      <use x="1262.646484" xlink:href="#DejaVuSans-111"/>
      <use x="1323.828125" xlink:href="#DejaVuSans-114"/>
      <use x="1362.691406" xlink:href="#DejaVuSans-101"/>
      <use x="1424.214844" xlink:href="#DejaVuSans-43"/>
      <use x="1508.003906" xlink:href="#DejaVuSans-100"/>
      <use x="1571.480469" xlink:href="#DejaVuSans-116"/>
      <use x="1610.689453" xlink:href="#DejaVuSans-119"/>
      <use x="1692.476562" xlink:href="#DejaVuSans-43"/>
      <use x="1776.265625" xlink:href="#DejaVuSans-109"/>
      <use x="1873.677734" xlink:href="#DejaVuSans-102"/>
      <use x="1908.882812" xlink:href="#DejaVuSans-99"/>
      <use x="1963.863281" xlink:href="#DejaVuSans-99"/>
     </g>
    </g>
   </g>
  </g>
 </g>
 <defs>
  <clipPath id="p928cfe2e06">
   <rect height="266.112" width="357.12" x="57.6" y="41.472"/>
  </clipPath>
 </defs>
</svg>
