<?xml version="1.0" encoding="utf-8" standalone="no"?>
<!DOCTYPE svg PUBLIC "-//W3C//DTD SVG 1.1//EN"
  "http://www.w3.org/Graphics/SVG/1.1/DTD/svg11.dtd">
<!-- Created with matplotlib (https://matplotlib.org/) -->
<svg height="345.6pt" version="1.1" viewBox="0 0 460.8 345.6" width="460.8pt" xmlns="http://www.w3.org/2000/svg" xmlns:xlink="http://www.w3.org/1999/xlink">
 <defs>
  <style type="text/css">
*{stroke-linecap:butt;stroke-linejoin:round;}
  </style>
 </defs>
 <g id="figure_1">
  <g id="patch_1">
   <path d="M 0 345.6 
L 460.8 345.6 
L 460.8 0 
L 0 0 
z
" style="fill:#ffffff;"/>
  </g>
  <g id="axes_1">
   <g id="patch_2">
    <path d="M 57.6 307.584 
L 414.72 307.584 
L 414.72 41.472 
L 57.6 41.472 
z
" style="fill:#e5e5e5;"/>
   </g>
   <g id="matplotlib.axis_1">
    <g id="xtick_1">
     <g id="line2d_1">
      <path clip-path="url(#p82eddbdb18)" d="M 73.832727 307.584 
L 73.832727 41.472 
" style="fill:none;stroke:#ffffff;stroke-linecap:square;stroke-width:0.8;"/>
     </g>
     <g id="line2d_2">
      <defs>
       <path d="M 0 0 
L 0 3.5 
" id="m92229e4754" style="stroke:#555555;stroke-width:0.8;"/>
      </defs>
      <g>
       <use style="fill:#555555;stroke:#555555;stroke-width:0.8;" x="73.832727" xlink:href="#m92229e4754" y="307.584"/>
      </g>
     </g>
     <g id="text_1">
      <!-- 0 -->
      <defs>
       <path d="M 31.78125 66.40625 
Q 24.171875 66.40625 20.328125 58.90625 
Q 16.5 51.421875 16.5 36.375 
Q 16.5 21.390625 20.328125 13.890625 
Q 24.171875 6.390625 31.78125 6.390625 
Q 39.453125 6.390625 43.28125 13.890625 
Q 47.125 21.390625 47.125 36.375 
Q 47.125 51.421875 43.28125 58.90625 
Q 39.453125 66.40625 31.78125 66.40625 
z
M 31.78125 74.21875 
Q 44.046875 74.21875 50.515625 64.515625 
Q 56.984375 54.828125 56.984375 36.375 
Q 56.984375 17.96875 50.515625 8.265625 
Q 44.046875 -1.421875 31.78125 -1.421875 
Q 19.53125 -1.421875 13.0625 8.265625 
Q 6.59375 17.96875 6.59375 36.375 
Q 6.59375 54.828125 13.0625 64.515625 
Q 19.53125 74.21875 31.78125 74.21875 
z
" id="DejaVuSans-48"/>
      </defs>
      <g style="fill:#555555;" transform="translate(70.651477 322.182437)scale(0.1 -0.1)">
       <use xlink:href="#DejaVuSans-48"/>
      </g>
     </g>
    </g>
    <g id="xtick_2">
     <g id="line2d_3">
      <path clip-path="url(#p82eddbdb18)" d="M 128.122785 307.584 
L 128.122785 41.472 
" style="fill:none;stroke:#ffffff;stroke-linecap:square;stroke-width:0.8;"/>
     </g>
     <g id="line2d_4">
      <g>
       <use style="fill:#555555;stroke:#555555;stroke-width:0.8;" x="128.122785" xlink:href="#m92229e4754" y="307.584"/>
      </g>
     </g>
     <g id="text_2">
      <!-- 50 -->
      <defs>
       <path d="M 10.796875 72.90625 
L 49.515625 72.90625 
L 49.515625 64.59375 
L 19.828125 64.59375 
L 19.828125 46.734375 
Q 21.96875 47.46875 24.109375 47.828125 
Q 26.265625 48.1875 28.421875 48.1875 
Q 40.625 48.1875 47.75 41.5 
Q 54.890625 34.8125 54.890625 23.390625 
Q 54.890625 11.625 47.5625 5.09375 
Q 40.234375 -1.421875 26.90625 -1.421875 
Q 22.3125 -1.421875 17.546875 -0.640625 
Q 12.796875 0.140625 7.71875 1.703125 
L 7.71875 11.625 
Q 12.109375 9.234375 16.796875 8.0625 
Q 21.484375 6.890625 26.703125 6.890625 
Q 35.15625 6.890625 40.078125 11.328125 
Q 45.015625 15.765625 45.015625 23.390625 
Q 45.015625 31 40.078125 35.4375 
Q 35.15625 39.890625 26.703125 39.890625 
Q 22.75 39.890625 18.8125 39.015625 
Q 14.890625 38.140625 10.796875 36.28125 
z
" id="DejaVuSans-53"/>
      </defs>
      <g style="fill:#555555;" transform="translate(121.760285 322.182437)scale(0.1 -0.1)">
       <use xlink:href="#DejaVuSans-53"/>
       <use x="63.623047" xlink:href="#DejaVuSans-48"/>
      </g>
     </g>
    </g>
    <g id="xtick_3">
     <g id="line2d_5">
      <path clip-path="url(#p82eddbdb18)" d="M 182.412843 307.584 
L 182.412843 41.472 
" style="fill:none;stroke:#ffffff;stroke-linecap:square;stroke-width:0.8;"/>
     </g>
     <g id="line2d_6">
      <g>
       <use style="fill:#555555;stroke:#555555;stroke-width:0.8;" x="182.412843" xlink:href="#m92229e4754" y="307.584"/>
      </g>
     </g>
     <g id="text_3">
      <!-- 100 -->
      <defs>
       <path d="M 12.40625 8.296875 
L 28.515625 8.296875 
L 28.515625 63.921875 
L 10.984375 60.40625 
L 10.984375 69.390625 
L 28.421875 72.90625 
L 38.28125 72.90625 
L 38.28125 8.296875 
L 54.390625 8.296875 
L 54.390625 0 
L 12.40625 0 
z
" id="DejaVuSans-49"/>
      </defs>
      <g style="fill:#555555;" transform="translate(172.869093 322.182437)scale(0.1 -0.1)">
       <use xlink:href="#DejaVuSans-49"/>
       <use x="63.623047" xlink:href="#DejaVuSans-48"/>
       <use x="127.246094" xlink:href="#DejaVuSans-48"/>
      </g>
     </g>
    </g>
    <g id="xtick_4">
     <g id="line2d_7">
      <path clip-path="url(#p82eddbdb18)" d="M 236.702901 307.584 
L 236.702901 41.472 
" style="fill:none;stroke:#ffffff;stroke-linecap:square;stroke-width:0.8;"/>
     </g>
     <g id="line2d_8">
      <g>
       <use style="fill:#555555;stroke:#555555;stroke-width:0.8;" x="236.702901" xlink:href="#m92229e4754" y="307.584"/>
      </g>
     </g>
     <g id="text_4">
      <!-- 150 -->
      <g style="fill:#555555;" transform="translate(227.159151 322.182437)scale(0.1 -0.1)">
       <use xlink:href="#DejaVuSans-49"/>
       <use x="63.623047" xlink:href="#DejaVuSans-53"/>
       <use x="127.246094" xlink:href="#DejaVuSans-48"/>
      </g>
     </g>
    </g>
    <g id="xtick_5">
     <g id="line2d_9">
      <path clip-path="url(#p82eddbdb18)" d="M 290.992958 307.584 
L 290.992958 41.472 
" style="fill:none;stroke:#ffffff;stroke-linecap:square;stroke-width:0.8;"/>
     </g>
     <g id="line2d_10">
      <g>
       <use style="fill:#555555;stroke:#555555;stroke-width:0.8;" x="290.992958" xlink:href="#m92229e4754" y="307.584"/>
      </g>
     </g>
     <g id="text_5">
      <!-- 200 -->
      <defs>
       <path d="M 19.1875 8.296875 
L 53.609375 8.296875 
L 53.609375 0 
L 7.328125 0 
L 7.328125 8.296875 
Q 12.9375 14.109375 22.625 23.890625 
Q 32.328125 33.6875 34.8125 36.53125 
Q 39.546875 41.84375 41.421875 45.53125 
Q 43.3125 49.21875 43.3125 52.78125 
Q 43.3125 58.59375 39.234375 62.25 
Q 35.15625 65.921875 28.609375 65.921875 
Q 23.96875 65.921875 18.8125 64.3125 
Q 13.671875 62.703125 7.8125 59.421875 
L 7.8125 69.390625 
Q 13.765625 71.78125 18.9375 73 
Q 24.125 74.21875 28.421875 74.21875 
Q 39.75 74.21875 46.484375 68.546875 
Q 53.21875 62.890625 53.21875 53.421875 
Q 53.21875 48.921875 51.53125 44.890625 
Q 49.859375 40.875 45.40625 35.40625 
Q 44.1875 33.984375 37.640625 27.21875 
Q 31.109375 20.453125 19.1875 8.296875 
z
" id="DejaVuSans-50"/>
      </defs>
      <g style="fill:#555555;" transform="translate(281.449208 322.182437)scale(0.1 -0.1)">
       <use xlink:href="#DejaVuSans-50"/>
       <use x="63.623047" xlink:href="#DejaVuSans-48"/>
       <use x="127.246094" xlink:href="#DejaVuSans-48"/>
      </g>
     </g>
    </g>
    <g id="xtick_6">
     <g id="line2d_11">
      <path clip-path="url(#p82eddbdb18)" d="M 345.283016 307.584 
L 345.283016 41.472 
" style="fill:none;stroke:#ffffff;stroke-linecap:square;stroke-width:0.8;"/>
     </g>
     <g id="line2d_12">
      <g>
       <use style="fill:#555555;stroke:#555555;stroke-width:0.8;" x="345.283016" xlink:href="#m92229e4754" y="307.584"/>
      </g>
     </g>
     <g id="text_6">
      <!-- 250 -->
      <g style="fill:#555555;" transform="translate(335.739266 322.182437)scale(0.1 -0.1)">
       <use xlink:href="#DejaVuSans-50"/>
       <use x="63.623047" xlink:href="#DejaVuSans-53"/>
       <use x="127.246094" xlink:href="#DejaVuSans-48"/>
      </g>
     </g>
    </g>
    <g id="xtick_7">
     <g id="line2d_13">
      <path clip-path="url(#p82eddbdb18)" d="M 399.573074 307.584 
L 399.573074 41.472 
" style="fill:none;stroke:#ffffff;stroke-linecap:square;stroke-width:0.8;"/>
     </g>
     <g id="line2d_14">
      <g>
       <use style="fill:#555555;stroke:#555555;stroke-width:0.8;" x="399.573074" xlink:href="#m92229e4754" y="307.584"/>
      </g>
     </g>
     <g id="text_7">
      <!-- 300 -->
      <defs>
       <path d="M 40.578125 39.3125 
Q 47.65625 37.796875 51.625 33 
Q 55.609375 28.21875 55.609375 21.1875 
Q 55.609375 10.40625 48.1875 4.484375 
Q 40.765625 -1.421875 27.09375 -1.421875 
Q 22.515625 -1.421875 17.65625 -0.515625 
Q 12.796875 0.390625 7.625 2.203125 
L 7.625 11.71875 
Q 11.71875 9.328125 16.59375 8.109375 
Q 21.484375 6.890625 26.8125 6.890625 
Q 36.078125 6.890625 40.9375 10.546875 
Q 45.796875 14.203125 45.796875 21.1875 
Q 45.796875 27.640625 41.28125 31.265625 
Q 36.765625 34.90625 28.71875 34.90625 
L 20.21875 34.90625 
L 20.21875 43.015625 
L 29.109375 43.015625 
Q 36.375 43.015625 40.234375 45.921875 
Q 44.09375 48.828125 44.09375 54.296875 
Q 44.09375 59.90625 40.109375 62.90625 
Q 36.140625 65.921875 28.71875 65.921875 
Q 24.65625 65.921875 20.015625 65.03125 
Q 15.375 64.15625 9.8125 62.3125 
L 9.8125 71.09375 
Q 15.4375 72.65625 20.34375 73.4375 
Q 25.25 74.21875 29.59375 74.21875 
Q 40.828125 74.21875 47.359375 69.109375 
Q 53.90625 64.015625 53.90625 55.328125 
Q 53.90625 49.265625 50.4375 45.09375 
Q 46.96875 40.921875 40.578125 39.3125 
z
" id="DejaVuSans-51"/>
      </defs>
      <g style="fill:#555555;" transform="translate(390.029324 322.182437)scale(0.1 -0.1)">
       <use xlink:href="#DejaVuSans-51"/>
       <use x="63.623047" xlink:href="#DejaVuSans-48"/>
       <use x="127.246094" xlink:href="#DejaVuSans-48"/>
      </g>
     </g>
    </g>
    <g id="text_8">
     <!-- Epoch -->
     <defs>
      <path d="M 9.8125 72.90625 
L 55.90625 72.90625 
L 55.90625 64.59375 
L 19.671875 64.59375 
L 19.671875 43.015625 
L 54.390625 43.015625 
L 54.390625 34.71875 
L 19.671875 34.71875 
L 19.671875 8.296875 
L 56.78125 8.296875 
L 56.78125 0 
L 9.8125 0 
z
" id="DejaVuSans-69"/>
      <path d="M 18.109375 8.203125 
L 18.109375 -20.796875 
L 9.078125 -20.796875 
L 9.078125 54.6875 
L 18.109375 54.6875 
L 18.109375 46.390625 
Q 20.953125 51.265625 25.265625 53.625 
Q 29.59375 56 35.59375 56 
Q 45.5625 56 51.78125 48.09375 
Q 58.015625 40.1875 58.015625 27.296875 
Q 58.015625 14.40625 51.78125 6.484375 
Q 45.5625 -1.421875 35.59375 -1.421875 
Q 29.59375 -1.421875 25.265625 0.953125 
Q 20.953125 3.328125 18.109375 8.203125 
z
M 48.6875 27.296875 
Q 48.6875 37.203125 44.609375 42.84375 
Q 40.53125 48.484375 33.40625 48.484375 
Q 26.265625 48.484375 22.1875 42.84375 
Q 18.109375 37.203125 18.109375 27.296875 
Q 18.109375 17.390625 22.1875 11.75 
Q 26.265625 6.109375 33.40625 6.109375 
Q 40.53125 6.109375 44.609375 11.75 
Q 48.6875 17.390625 48.6875 27.296875 
z
" id="DejaVuSans-112"/>
      <path d="M 30.609375 48.390625 
Q 23.390625 48.390625 19.1875 42.75 
Q 14.984375 37.109375 14.984375 27.296875 
Q 14.984375 17.484375 19.15625 11.84375 
Q 23.34375 6.203125 30.609375 6.203125 
Q 37.796875 6.203125 41.984375 11.859375 
Q 46.1875 17.53125 46.1875 27.296875 
Q 46.1875 37.015625 41.984375 42.703125 
Q 37.796875 48.390625 30.609375 48.390625 
z
M 30.609375 56 
Q 42.328125 56 49.015625 48.375 
Q 55.71875 40.765625 55.71875 27.296875 
Q 55.71875 13.875 49.015625 6.21875 
Q 42.328125 -1.421875 30.609375 -1.421875 
Q 18.84375 -1.421875 12.171875 6.21875 
Q 5.515625 13.875 5.515625 27.296875 
Q 5.515625 40.765625 12.171875 48.375 
Q 18.84375 56 30.609375 56 
z
" id="DejaVuSans-111"/>
      <path d="M 48.78125 52.59375 
L 48.78125 44.1875 
Q 44.96875 46.296875 41.140625 47.34375 
Q 37.3125 48.390625 33.40625 48.390625 
Q 24.65625 48.390625 19.8125 42.84375 
Q 14.984375 37.3125 14.984375 27.296875 
Q 14.984375 17.28125 19.8125 11.734375 
Q 24.65625 6.203125 33.40625 6.203125 
Q 37.3125 6.203125 41.140625 7.25 
Q 44.96875 8.296875 48.78125 10.40625 
L 48.78125 2.09375 
Q 45.015625 0.34375 40.984375 -0.53125 
Q 36.96875 -1.421875 32.421875 -1.421875 
Q 20.0625 -1.421875 12.78125 6.34375 
Q 5.515625 14.109375 5.515625 27.296875 
Q 5.515625 40.671875 12.859375 48.328125 
Q 20.21875 56 33.015625 56 
Q 37.15625 56 41.109375 55.140625 
Q 45.0625 54.296875 48.78125 52.59375 
z
" id="DejaVuSans-99"/>
      <path d="M 54.890625 33.015625 
L 54.890625 0 
L 45.90625 0 
L 45.90625 32.71875 
Q 45.90625 40.484375 42.875 44.328125 
Q 39.84375 48.1875 33.796875 48.1875 
Q 26.515625 48.1875 22.3125 43.546875 
Q 18.109375 38.921875 18.109375 30.90625 
L 18.109375 0 
L 9.078125 0 
L 9.078125 75.984375 
L 18.109375 75.984375 
L 18.109375 46.1875 
Q 21.34375 51.125 25.703125 53.5625 
Q 30.078125 56 35.796875 56 
Q 45.21875 56 50.046875 50.171875 
Q 54.890625 44.34375 54.890625 33.015625 
z
" id="DejaVuSans-104"/>
     </defs>
     <g style="fill:#555555;" transform="translate(205.538125 343.459)scale(0.2 -0.2)">
      <use xlink:href="#DejaVuSans-69"/>
      <use x="63.183594" xlink:href="#DejaVuSans-112"/>
      <use x="126.660156" xlink:href="#DejaVuSans-111"/>
      <use x="187.841797" xlink:href="#DejaVuSans-99"/>
      <use x="242.822266" xlink:href="#DejaVuSans-104"/>
     </g>
    </g>
   </g>
   <g id="matplotlib.axis_2">
    <g id="ytick_1">
     <g id="line2d_15">
      <path clip-path="url(#p82eddbdb18)" d="M 57.6 300.64073 
L 414.72 300.64073 
" style="fill:none;stroke:#ffffff;stroke-linecap:square;stroke-width:0.8;"/>
     </g>
     <g id="line2d_16">
      <defs>
       <path d="M 0 0 
L -3.5 0 
" id="m224f9d6723" style="stroke:#555555;stroke-width:0.8;"/>
      </defs>
      <g>
       <use style="fill:#555555;stroke:#555555;stroke-width:0.8;" x="57.6" xlink:href="#m224f9d6723" y="300.64073"/>
      </g>
     </g>
     <g id="text_9">
      <!-- 0.10 -->
      <defs>
       <path d="M 10.6875 12.40625 
L 21 12.40625 
L 21 0 
L 10.6875 0 
z
" id="DejaVuSans-46"/>
      </defs>
      <g style="fill:#555555;" transform="translate(28.334375 304.439949)scale(0.1 -0.1)">
       <use xlink:href="#DejaVuSans-48"/>
       <use x="63.623047" xlink:href="#DejaVuSans-46"/>
       <use x="95.410156" xlink:href="#DejaVuSans-49"/>
       <use x="159.033203" xlink:href="#DejaVuSans-48"/>
      </g>
     </g>
    </g>
    <g id="ytick_2">
     <g id="line2d_17">
      <path clip-path="url(#p82eddbdb18)" d="M 57.6 261.757221 
L 414.72 261.757221 
" style="fill:none;stroke:#ffffff;stroke-linecap:square;stroke-width:0.8;"/>
     </g>
     <g id="line2d_18">
      <g>
       <use style="fill:#555555;stroke:#555555;stroke-width:0.8;" x="57.6" xlink:href="#m224f9d6723" y="261.757221"/>
      </g>
     </g>
     <g id="text_10">
      <!-- 0.12 -->
      <g style="fill:#555555;" transform="translate(28.334375 265.556439)scale(0.1 -0.1)">
       <use xlink:href="#DejaVuSans-48"/>
       <use x="63.623047" xlink:href="#DejaVuSans-46"/>
       <use x="95.410156" xlink:href="#DejaVuSans-49"/>
       <use x="159.033203" xlink:href="#DejaVuSans-50"/>
      </g>
     </g>
    </g>
    <g id="ytick_3">
     <g id="line2d_19">
      <path clip-path="url(#p82eddbdb18)" d="M 57.6 222.873711 
L 414.72 222.873711 
" style="fill:none;stroke:#ffffff;stroke-linecap:square;stroke-width:0.8;"/>
     </g>
     <g id="line2d_20">
      <g>
       <use style="fill:#555555;stroke:#555555;stroke-width:0.8;" x="57.6" xlink:href="#m224f9d6723" y="222.873711"/>
      </g>
     </g>
     <g id="text_11">
      <!-- 0.14 -->
      <defs>
       <path d="M 37.796875 64.3125 
L 12.890625 25.390625 
L 37.796875 25.390625 
z
M 35.203125 72.90625 
L 47.609375 72.90625 
L 47.609375 25.390625 
L 58.015625 25.390625 
L 58.015625 17.1875 
L 47.609375 17.1875 
L 47.609375 0 
L 37.796875 0 
L 37.796875 17.1875 
L 4.890625 17.1875 
L 4.890625 26.703125 
z
" id="DejaVuSans-52"/>
      </defs>
      <g style="fill:#555555;" transform="translate(28.334375 226.67293)scale(0.1 -0.1)">
       <use xlink:href="#DejaVuSans-48"/>
       <use x="63.623047" xlink:href="#DejaVuSans-46"/>
       <use x="95.410156" xlink:href="#DejaVuSans-49"/>
       <use x="159.033203" xlink:href="#DejaVuSans-52"/>
      </g>
     </g>
    </g>
    <g id="ytick_4">
     <g id="line2d_21">
      <path clip-path="url(#p82eddbdb18)" d="M 57.6 183.990201 
L 414.72 183.990201 
" style="fill:none;stroke:#ffffff;stroke-linecap:square;stroke-width:0.8;"/>
     </g>
     <g id="line2d_22">
      <g>
       <use style="fill:#555555;stroke:#555555;stroke-width:0.8;" x="57.6" xlink:href="#m224f9d6723" y="183.990201"/>
      </g>
     </g>
     <g id="text_12">
      <!-- 0.16 -->
      <defs>
       <path d="M 33.015625 40.375 
Q 26.375 40.375 22.484375 35.828125 
Q 18.609375 31.296875 18.609375 23.390625 
Q 18.609375 15.53125 22.484375 10.953125 
Q 26.375 6.390625 33.015625 6.390625 
Q 39.65625 6.390625 43.53125 10.953125 
Q 47.40625 15.53125 47.40625 23.390625 
Q 47.40625 31.296875 43.53125 35.828125 
Q 39.65625 40.375 33.015625 40.375 
z
M 52.59375 71.296875 
L 52.59375 62.3125 
Q 48.875 64.0625 45.09375 64.984375 
Q 41.3125 65.921875 37.59375 65.921875 
Q 27.828125 65.921875 22.671875 59.328125 
Q 17.53125 52.734375 16.796875 39.40625 
Q 19.671875 43.65625 24.015625 45.921875 
Q 28.375 48.1875 33.59375 48.1875 
Q 44.578125 48.1875 50.953125 41.515625 
Q 57.328125 34.859375 57.328125 23.390625 
Q 57.328125 12.15625 50.6875 5.359375 
Q 44.046875 -1.421875 33.015625 -1.421875 
Q 20.359375 -1.421875 13.671875 8.265625 
Q 6.984375 17.96875 6.984375 36.375 
Q 6.984375 53.65625 15.1875 63.9375 
Q 23.390625 74.21875 37.203125 74.21875 
Q 40.921875 74.21875 44.703125 73.484375 
Q 48.484375 72.75 52.59375 71.296875 
z
" id="DejaVuSans-54"/>
      </defs>
      <g style="fill:#555555;" transform="translate(28.334375 187.78942)scale(0.1 -0.1)">
       <use xlink:href="#DejaVuSans-48"/>
       <use x="63.623047" xlink:href="#DejaVuSans-46"/>
       <use x="95.410156" xlink:href="#DejaVuSans-49"/>
       <use x="159.033203" xlink:href="#DejaVuSans-54"/>
      </g>
     </g>
    </g>
    <g id="ytick_5">
     <g id="line2d_23">
      <path clip-path="url(#p82eddbdb18)" d="M 57.6 145.106692 
L 414.72 145.106692 
" style="fill:none;stroke:#ffffff;stroke-linecap:square;stroke-width:0.8;"/>
     </g>
     <g id="line2d_24">
      <g>
       <use style="fill:#555555;stroke:#555555;stroke-width:0.8;" x="57.6" xlink:href="#m224f9d6723" y="145.106692"/>
      </g>
     </g>
     <g id="text_13">
      <!-- 0.18 -->
      <defs>
       <path d="M 31.78125 34.625 
Q 24.75 34.625 20.71875 30.859375 
Q 16.703125 27.09375 16.703125 20.515625 
Q 16.703125 13.921875 20.71875 10.15625 
Q 24.75 6.390625 31.78125 6.390625 
Q 38.8125 6.390625 42.859375 10.171875 
Q 46.921875 13.96875 46.921875 20.515625 
Q 46.921875 27.09375 42.890625 30.859375 
Q 38.875 34.625 31.78125 34.625 
z
M 21.921875 38.8125 
Q 15.578125 40.375 12.03125 44.71875 
Q 8.5 49.078125 8.5 55.328125 
Q 8.5 64.0625 14.71875 69.140625 
Q 20.953125 74.21875 31.78125 74.21875 
Q 42.671875 74.21875 48.875 69.140625 
Q 55.078125 64.0625 55.078125 55.328125 
Q 55.078125 49.078125 51.53125 44.71875 
Q 48 40.375 41.703125 38.8125 
Q 48.828125 37.15625 52.796875 32.3125 
Q 56.78125 27.484375 56.78125 20.515625 
Q 56.78125 9.90625 50.3125 4.234375 
Q 43.84375 -1.421875 31.78125 -1.421875 
Q 19.734375 -1.421875 13.25 4.234375 
Q 6.78125 9.90625 6.78125 20.515625 
Q 6.78125 27.484375 10.78125 32.3125 
Q 14.796875 37.15625 21.921875 38.8125 
z
M 18.3125 54.390625 
Q 18.3125 48.734375 21.84375 45.5625 
Q 25.390625 42.390625 31.78125 42.390625 
Q 38.140625 42.390625 41.71875 45.5625 
Q 45.3125 48.734375 45.3125 54.390625 
Q 45.3125 60.0625 41.71875 63.234375 
Q 38.140625 66.40625 31.78125 66.40625 
Q 25.390625 66.40625 21.84375 63.234375 
Q 18.3125 60.0625 18.3125 54.390625 
z
" id="DejaVuSans-56"/>
      </defs>
      <g style="fill:#555555;" transform="translate(28.334375 148.90591)scale(0.1 -0.1)">
       <use xlink:href="#DejaVuSans-48"/>
       <use x="63.623047" xlink:href="#DejaVuSans-46"/>
       <use x="95.410156" xlink:href="#DejaVuSans-49"/>
       <use x="159.033203" xlink:href="#DejaVuSans-56"/>
      </g>
     </g>
    </g>
    <g id="ytick_6">
     <g id="line2d_25">
      <path clip-path="url(#p82eddbdb18)" d="M 57.6 106.223182 
L 414.72 106.223182 
" style="fill:none;stroke:#ffffff;stroke-linecap:square;stroke-width:0.8;"/>
     </g>
     <g id="line2d_26">
      <g>
       <use style="fill:#555555;stroke:#555555;stroke-width:0.8;" x="57.6" xlink:href="#m224f9d6723" y="106.223182"/>
      </g>
     </g>
     <g id="text_14">
      <!-- 0.20 -->
      <g style="fill:#555555;" transform="translate(28.334375 110.022401)scale(0.1 -0.1)">
       <use xlink:href="#DejaVuSans-48"/>
       <use x="63.623047" xlink:href="#DejaVuSans-46"/>
       <use x="95.410156" xlink:href="#DejaVuSans-50"/>
       <use x="159.033203" xlink:href="#DejaVuSans-48"/>
      </g>
     </g>
    </g>
    <g id="ytick_7">
     <g id="line2d_27">
      <path clip-path="url(#p82eddbdb18)" d="M 57.6 67.339672 
L 414.72 67.339672 
" style="fill:none;stroke:#ffffff;stroke-linecap:square;stroke-width:0.8;"/>
     </g>
     <g id="line2d_28">
      <g>
       <use style="fill:#555555;stroke:#555555;stroke-width:0.8;" x="57.6" xlink:href="#m224f9d6723" y="67.339672"/>
      </g>
     </g>
     <g id="text_15">
      <!-- 0.22 -->
      <g style="fill:#555555;" transform="translate(28.334375 71.138891)scale(0.1 -0.1)">
       <use xlink:href="#DejaVuSans-48"/>
       <use x="63.623047" xlink:href="#DejaVuSans-46"/>
       <use x="95.410156" xlink:href="#DejaVuSans-50"/>
       <use x="159.033203" xlink:href="#DejaVuSans-50"/>
      </g>
     </g>
    </g>
    <g id="text_16">
     <!-- Loss -->
     <defs>
      <path d="M 9.8125 72.90625 
L 19.671875 72.90625 
L 19.671875 8.296875 
L 55.171875 8.296875 
L 55.171875 0 
L 9.8125 0 
z
" id="DejaVuSans-76"/>
      <path d="M 44.28125 53.078125 
L 44.28125 44.578125 
Q 40.484375 46.53125 36.375 47.5 
Q 32.28125 48.484375 27.875 48.484375 
Q 21.1875 48.484375 17.84375 46.4375 
Q 14.5 44.390625 14.5 40.28125 
Q 14.5 37.15625 16.890625 35.375 
Q 19.28125 33.59375 26.515625 31.984375 
L 29.59375 31.296875 
Q 39.15625 29.25 43.1875 25.515625 
Q 47.21875 21.78125 47.21875 15.09375 
Q 47.21875 7.46875 41.1875 3.015625 
Q 35.15625 -1.421875 24.609375 -1.421875 
Q 20.21875 -1.421875 15.453125 -0.5625 
Q 10.6875 0.296875 5.421875 2 
L 5.421875 11.28125 
Q 10.40625 8.6875 15.234375 7.390625 
Q 20.0625 6.109375 24.8125 6.109375 
Q 31.15625 6.109375 34.5625 8.28125 
Q 37.984375 10.453125 37.984375 14.40625 
Q 37.984375 18.0625 35.515625 20.015625 
Q 33.0625 21.96875 24.703125 23.78125 
L 21.578125 24.515625 
Q 13.234375 26.265625 9.515625 29.90625 
Q 5.8125 33.546875 5.8125 39.890625 
Q 5.8125 47.609375 11.28125 51.796875 
Q 16.75 56 26.8125 56 
Q 31.78125 56 36.171875 55.265625 
Q 40.578125 54.546875 44.28125 53.078125 
z
" id="DejaVuSans-115"/>
     </defs>
     <g style="fill:#555555;" transform="translate(20.175 196.462375)rotate(-90)scale(0.2 -0.2)">
      <use xlink:href="#DejaVuSans-76"/>
      <use x="53.962891" xlink:href="#DejaVuSans-111"/>
      <use x="115.144531" xlink:href="#DejaVuSans-115"/>
      <use x="167.244141" xlink:href="#DejaVuSans-115"/>
     </g>
    </g>
   </g>
   <g id="line2d_29">
    <path clip-path="url(#p82eddbdb18)" d="M 73.832727 112.967778 
L 74.918528 92.358019 
L 76.00433 53.568 
L 77.090131 86.605263 
L 78.175932 97.443247 
L 79.261733 103.061137 
L 80.347534 124.66428 
L 81.433335 70.372924 
L 82.519137 112.41213 
L 83.604938 121.894873 
L 84.690739 127.060758 
L 85.77654 122.8464 
L 86.862341 109.889079 
L 87.948142 117.076025 
L 89.033943 106.630388 
L 90.119745 114.813219 
L 91.205546 130.056837 
L 92.291347 102.941436 
L 93.377148 104.665928 
L 94.462949 115.985153 
L 95.54875 121.155993 
L 96.634552 129.47884 
L 97.720353 155.54492 
L 98.806154 115.240951 
L 99.891955 135.599229 
L 100.977756 122.728982 
L 102.063557 112.644391 
L 103.149358 148.364075 
L 104.23516 104.44756 
L 105.320961 100.889348 
L 106.406762 123.729702 
L 107.492563 132.810912 
L 108.578364 131.481019 
L 109.664165 120.905347 
L 110.749967 119.117221 
L 111.835768 133.508958 
L 112.921569 160.960011 
L 114.00737 125.409927 
L 115.093171 154.837253 
L 116.178972 139.191535 
L 117.264773 148.437684 
L 118.350575 141.51643 
L 119.436376 153.472802 
L 120.522177 159.977295 
L 121.607978 122.583541 
L 122.693779 134.000925 
L 123.77958 158.793919 
L 124.865382 148.316821 
L 125.951183 142.305988 
L 127.036984 139.29206 
L 128.122785 130.339912 
L 129.208586 143.466914 
L 130.294387 139.753115 
L 131.380189 145.37643 
L 132.46599 149.853334 
L 133.551791 155.258794 
L 134.637592 138.556076 
L 135.723393 134.62672 
L 136.809194 126.073076 
L 137.894995 139.698245 
L 140.066598 158.470422 
L 141.152399 137.244205 
L 142.2382 167.148736 
L 143.324001 151.725702 
L 144.409802 149.510822 
L 145.495604 166.093659 
L 146.581405 160.957677 
L 147.667206 167.834508 
L 148.753007 145.120334 
L 149.838808 165.065665 
L 150.924609 123.71381 
L 152.01041 151.102503 
L 153.096212 169.468472 
L 154.182013 174.404094 
L 155.267814 172.536592 
L 156.353615 157.212164 
L 157.439416 128.908733 
L 158.525217 141.607038 
L 159.611019 157.628688 
L 160.69682 170.669673 
L 161.782621 160.775919 
L 162.868422 188.437401 
L 165.040024 136.840932 
L 166.125825 157.114729 
L 167.211627 164.296178 
L 168.297428 175.786727 
L 169.383229 174.23151 
L 170.46903 171.134413 
L 171.554831 169.576043 
L 172.640632 162.789274 
L 173.726434 166.172002 
L 174.812235 170.29291 
L 175.898036 156.734586 
L 176.983837 173.196716 
L 178.069638 158.740045 
L 180.24124 187.107492 
L 181.327042 179.514012 
L 182.412843 187.886813 
L 183.498644 175.782345 
L 184.584445 172.738404 
L 185.670246 157.58123 
L 186.756047 177.39665 
L 187.841849 186.687787 
L 188.92765 177.810465 
L 190.013451 172.895395 
L 191.099252 176.965266 
L 192.185053 174.081746 
L 193.270854 192.702069 
L 194.356656 172.844857 
L 195.442457 191.131621 
L 196.528258 181.429458 
L 197.614059 199.295997 
L 198.69986 158.528944 
L 199.785661 193.773802 
L 200.871462 172.966328 
L 201.957264 189.83968 
L 203.043065 187.863636 
L 204.128866 192.731894 
L 205.214667 178.652504 
L 206.300468 191.989032 
L 207.386269 196.392287 
L 209.557872 187.939115 
L 210.643673 212.420055 
L 211.729474 197.408936 
L 212.815275 203.18114 
L 213.901076 183.748705 
L 214.986877 182.460939 
L 216.072679 198.745538 
L 217.15848 175.066688 
L 218.244281 197.955606 
L 219.330082 214.230593 
L 220.415883 206.279608 
L 221.501684 187.116392 
L 222.587486 196.695983 
L 223.673287 218.831041 
L 224.759088 205.296416 
L 225.844889 200.243861 
L 226.93069 206.063453 
L 228.016491 201.763983 
L 229.102292 210.971385 
L 231.273895 173.879498 
L 232.359696 189.922892 
L 233.445497 202.973106 
L 234.531298 211.059012 
L 235.617099 210.931633 
L 236.702901 213.833878 
L 237.788702 199.232017 
L 238.874503 194.039201 
L 239.960304 207.559161 
L 241.046105 212.22976 
L 242.131906 217.995612 
L 243.217708 205.67341 
L 244.303509 226.3749 
L 245.38931 197.455359 
L 246.475111 178.208542 
L 248.646713 206.686123 
L 249.732514 203.075549 
L 250.818316 228.801782 
L 251.904117 212.5679 
L 252.989918 203.949172 
L 254.075719 213.529688 
L 255.16152 216.077283 
L 256.247321 203.195182 
L 257.333123 219.822988 
L 258.418924 193.564169 
L 259.504725 200.26024 
L 260.590526 236.67301 
L 261.676327 217.554078 
L 262.762128 235.665857 
L 263.847929 216.293825 
L 264.933731 188.932081 
L 266.019532 243.244978 
L 267.105333 228.770918 
L 268.191134 222.696591 
L 269.276935 209.164657 
L 270.362736 213.149039 
L 271.448538 212.314364 
L 272.534339 202.701629 
L 273.62014 236.31501 
L 275.791742 207.018958 
L 276.877543 186.126843 
L 277.963344 226.381584 
L 279.049146 243.561558 
L 280.134947 247.077436 
L 281.220748 241.435111 
L 282.306549 240.363872 
L 283.39235 247.171987 
L 284.478151 223.268841 
L 285.563953 221.971389 
L 286.649754 191.134917 
L 287.735555 203.427106 
L 288.821356 221.678143 
L 289.907157 233.549517 
L 290.992958 242.259054 
L 292.07876 243.653882 
L 293.164561 244.681393 
L 294.250362 220.141728 
L 295.336163 248.972798 
L 296.421964 240.677967 
L 297.507765 215.659754 
L 298.593566 248.564936 
L 299.679368 255.005385 
L 300.765169 252.942641 
L 301.85097 222.427388 
L 302.936771 233.742471 
L 304.022572 219.455792 
L 305.108373 229.461575 
L 306.194175 230.911297 
L 307.279976 246.562783 
L 309.451578 231.168892 
L 310.537379 215.420766 
L 311.62318 217.772246 
L 312.708981 235.299338 
L 313.794783 238.373134 
L 314.880584 248.635054 
L 315.966385 220.023002 
L 317.052186 240.005472 
L 318.137987 252.794489 
L 319.223788 257.415729 
L 320.30959 245.317133 
L 321.395391 249.891642 
L 322.481192 235.721878 
L 323.566993 235.924464 
L 324.652794 265.515118 
L 325.738595 241.032826 
L 326.824396 257.951714 
L 327.910198 253.793135 
L 328.995999 267.835835 
L 330.0818 249.21251 
L 331.167601 248.653109 
L 332.253402 240.802068 
L 333.339203 272.306748 
L 334.425005 264.688116 
L 335.510806 239.006298 
L 336.596607 257.39696 
L 337.682408 261.33541 
L 338.768209 235.734844 
L 339.85401 268.290505 
L 340.939811 271.447931 
L 342.025613 254.623444 
L 343.111414 285.809638 
L 345.283016 243.734194 
L 346.368817 259.140333 
L 347.454618 230.116361 
L 348.54042 253.178796 
L 349.626221 267.873615 
L 350.712022 259.718515 
L 351.797823 259.556648 
L 352.883624 270.456376 
L 353.969425 247.059012 
L 355.055227 267.235797 
L 356.141028 265.216762 
L 357.226829 258.581071 
L 358.31263 246.543225 
L 359.398431 264.95765 
L 360.484232 292.733986 
L 361.570033 267.408057 
L 362.655835 234.45591 
L 363.741636 257.372461 
L 364.827437 263.514291 
L 365.913238 249.835375 
L 366.999039 258.591462 
L 368.08484 268.432663 
L 369.170642 244.266464 
L 370.256443 233.139772 
L 371.342244 270.382411 
L 372.428045 252.328343 
L 373.513846 241.003217 
L 374.599647 274.399695 
L 375.685448 196.486189 
L 376.77125 269.094282 
L 377.857051 286.30673 
L 378.942852 292.521355 
L 380.028653 271.22163 
L 381.114454 279.191526 
L 382.200255 285.596711 
L 383.286057 294.383691 
L 384.371858 280.65823 
L 385.457659 283.354545 
L 386.54346 269.361606 
L 387.629261 241.120462 
L 388.715062 251.480461 
L 389.800863 258.632879 
L 390.886665 281.34369 
L 391.972466 295.488 
L 393.058267 273.719804 
L 394.144068 262.773647 
L 395.229869 288.496489 
L 396.31567 263.488271 
L 397.401472 275.422942 
L 398.487273 252.856054 
L 398.487273 252.856054 
" style="fill:none;stroke:#e24a33;stroke-linecap:square;stroke-width:3;"/>
   </g>
   <g id="patch_3">
    <path d="M 57.6 307.584 
L 57.6 41.472 
" style="fill:none;stroke:#ffffff;stroke-linecap:square;stroke-linejoin:miter;"/>
   </g>
   <g id="patch_4">
    <path d="M 414.72 307.584 
L 414.72 41.472 
" style="fill:none;stroke:#ffffff;stroke-linecap:square;stroke-linejoin:miter;"/>
   </g>
   <g id="patch_5">
    <path d="M 57.6 307.584 
L 414.72 307.584 
" style="fill:none;stroke:#ffffff;stroke-linecap:square;stroke-linejoin:miter;"/>
   </g>
   <g id="patch_6">
    <path d="M 57.6 41.472 
L 414.72 41.472 
" style="fill:none;stroke:#ffffff;stroke-linecap:square;stroke-linejoin:miter;"/>
   </g>
   <g id="text_17">
    <!-- min  = 0.10265034222534464%, segmentation+mfcc+frame+score, 293epoch -->
    <defs>
     <path d="M 52 44.1875 
Q 55.375 50.25 60.0625 53.125 
Q 64.75 56 71.09375 56 
Q 79.640625 56 84.28125 50.015625 
Q 88.921875 44.046875 88.921875 33.015625 
L 88.921875 0 
L 79.890625 0 
L 79.890625 32.71875 
Q 79.890625 40.578125 77.09375 44.375 
Q 74.3125 48.1875 68.609375 48.1875 
Q 61.625 48.1875 57.5625 43.546875 
Q 53.515625 38.921875 53.515625 30.90625 
L 53.515625 0 
L 44.484375 0 
L 44.484375 32.71875 
Q 44.484375 40.625 41.703125 44.40625 
Q 38.921875 48.1875 33.109375 48.1875 
Q 26.21875 48.1875 22.15625 43.53125 
Q 18.109375 38.875 18.109375 30.90625 
L 18.109375 0 
L 9.078125 0 
L 9.078125 54.6875 
L 18.109375 54.6875 
L 18.109375 46.1875 
Q 21.1875 51.21875 25.484375 53.609375 
Q 29.78125 56 35.6875 56 
Q 41.65625 56 45.828125 52.96875 
Q 50 49.953125 52 44.1875 
z
" id="DejaVuSans-109"/>
     <path d="M 9.421875 54.6875 
L 18.40625 54.6875 
L 18.40625 0 
L 9.421875 0 
z
M 9.421875 75.984375 
L 18.40625 75.984375 
L 18.40625 64.59375 
L 9.421875 64.59375 
z
" id="DejaVuSans-105"/>
     <path d="M 54.890625 33.015625 
L 54.890625 0 
L 45.90625 0 
L 45.90625 32.71875 
Q 45.90625 40.484375 42.875 44.328125 
Q 39.84375 48.1875 33.796875 48.1875 
Q 26.515625 48.1875 22.3125 43.546875 
Q 18.109375 38.921875 18.109375 30.90625 
L 18.109375 0 
L 9.078125 0 
L 9.078125 54.6875 
L 18.109375 54.6875 
L 18.109375 46.1875 
Q 21.34375 51.125 25.703125 53.5625 
Q 30.078125 56 35.796875 56 
Q 45.21875 56 50.046875 50.171875 
Q 54.890625 44.34375 54.890625 33.015625 
z
" id="DejaVuSans-110"/>
     <path id="DejaVuSans-32"/>
     <path d="M 10.59375 45.40625 
L 73.1875 45.40625 
L 73.1875 37.203125 
L 10.59375 37.203125 
z
M 10.59375 25.484375 
L 73.1875 25.484375 
L 73.1875 17.1875 
L 10.59375 17.1875 
z
" id="DejaVuSans-61"/>
     <path d="M 72.703125 32.078125 
Q 68.453125 32.078125 66.03125 28.46875 
Q 63.625 24.859375 63.625 18.40625 
Q 63.625 12.0625 66.03125 8.421875 
Q 68.453125 4.78125 72.703125 4.78125 
Q 76.859375 4.78125 79.265625 8.421875 
Q 81.6875 12.0625 81.6875 18.40625 
Q 81.6875 24.8125 79.265625 28.4375 
Q 76.859375 32.078125 72.703125 32.078125 
z
M 72.703125 38.28125 
Q 80.421875 38.28125 84.953125 32.90625 
Q 89.5 27.546875 89.5 18.40625 
Q 89.5 9.28125 84.9375 3.921875 
Q 80.375 -1.421875 72.703125 -1.421875 
Q 64.890625 -1.421875 60.34375 3.921875 
Q 55.8125 9.28125 55.8125 18.40625 
Q 55.8125 27.59375 60.375 32.9375 
Q 64.9375 38.28125 72.703125 38.28125 
z
M 22.3125 68.015625 
Q 18.109375 68.015625 15.6875 64.375 
Q 13.28125 60.75 13.28125 54.390625 
Q 13.28125 47.953125 15.671875 44.328125 
Q 18.0625 40.71875 22.3125 40.71875 
Q 26.5625 40.71875 28.96875 44.328125 
Q 31.390625 47.953125 31.390625 54.390625 
Q 31.390625 60.6875 28.953125 64.34375 
Q 26.515625 68.015625 22.3125 68.015625 
z
M 66.40625 74.21875 
L 74.21875 74.21875 
L 28.609375 -1.421875 
L 20.796875 -1.421875 
z
M 22.3125 74.21875 
Q 30.03125 74.21875 34.609375 68.875 
Q 39.203125 63.53125 39.203125 54.390625 
Q 39.203125 45.171875 34.640625 39.84375 
Q 30.078125 34.515625 22.3125 34.515625 
Q 14.546875 34.515625 10.03125 39.859375 
Q 5.515625 45.21875 5.515625 54.390625 
Q 5.515625 63.484375 10.046875 68.84375 
Q 14.59375 74.21875 22.3125 74.21875 
z
" id="DejaVuSans-37"/>
     <path d="M 11.71875 12.40625 
L 22.015625 12.40625 
L 22.015625 4 
L 14.015625 -11.625 
L 7.71875 -11.625 
L 11.71875 4 
z
" id="DejaVuSans-44"/>
     <path d="M 56.203125 29.59375 
L 56.203125 25.203125 
L 14.890625 25.203125 
Q 15.484375 15.921875 20.484375 11.0625 
Q 25.484375 6.203125 34.421875 6.203125 
Q 39.59375 6.203125 44.453125 7.46875 
Q 49.3125 8.734375 54.109375 11.28125 
L 54.109375 2.78125 
Q 49.265625 0.734375 44.1875 -0.34375 
Q 39.109375 -1.421875 33.890625 -1.421875 
Q 20.796875 -1.421875 13.15625 6.1875 
Q 5.515625 13.8125 5.515625 26.8125 
Q 5.515625 40.234375 12.765625 48.109375 
Q 20.015625 56 32.328125 56 
Q 43.359375 56 49.78125 48.890625 
Q 56.203125 41.796875 56.203125 29.59375 
z
M 47.21875 32.234375 
Q 47.125 39.59375 43.09375 43.984375 
Q 39.0625 48.390625 32.421875 48.390625 
Q 24.90625 48.390625 20.390625 44.140625 
Q 15.875 39.890625 15.1875 32.171875 
z
" id="DejaVuSans-101"/>
     <path d="M 45.40625 27.984375 
Q 45.40625 37.75 41.375 43.109375 
Q 37.359375 48.484375 30.078125 48.484375 
Q 22.859375 48.484375 18.828125 43.109375 
Q 14.796875 37.75 14.796875 27.984375 
Q 14.796875 18.265625 18.828125 12.890625 
Q 22.859375 7.515625 30.078125 7.515625 
Q 37.359375 7.515625 41.375 12.890625 
Q 45.40625 18.265625 45.40625 27.984375 
z
M 54.390625 6.78125 
Q 54.390625 -7.171875 48.1875 -13.984375 
Q 42 -20.796875 29.203125 -20.796875 
Q 24.46875 -20.796875 20.265625 -20.09375 
Q 16.0625 -19.390625 12.109375 -17.921875 
L 12.109375 -9.1875 
Q 16.0625 -11.328125 19.921875 -12.34375 
Q 23.78125 -13.375 27.78125 -13.375 
Q 36.625 -13.375 41.015625 -8.765625 
Q 45.40625 -4.15625 45.40625 5.171875 
L 45.40625 9.625 
Q 42.625 4.78125 38.28125 2.390625 
Q 33.9375 0 27.875 0 
Q 17.828125 0 11.671875 7.65625 
Q 5.515625 15.328125 5.515625 27.984375 
Q 5.515625 40.671875 11.671875 48.328125 
Q 17.828125 56 27.875 56 
Q 33.9375 56 38.28125 53.609375 
Q 42.625 51.21875 45.40625 46.390625 
L 45.40625 54.6875 
L 54.390625 54.6875 
z
" id="DejaVuSans-103"/>
     <path d="M 18.3125 70.21875 
L 18.3125 54.6875 
L 36.8125 54.6875 
L 36.8125 47.703125 
L 18.3125 47.703125 
L 18.3125 18.015625 
Q 18.3125 11.328125 20.140625 9.421875 
Q 21.96875 7.515625 27.59375 7.515625 
L 36.8125 7.515625 
L 36.8125 0 
L 27.59375 0 
Q 17.1875 0 13.234375 3.875 
Q 9.28125 7.765625 9.28125 18.015625 
L 9.28125 47.703125 
L 2.6875 47.703125 
L 2.6875 54.6875 
L 9.28125 54.6875 
L 9.28125 70.21875 
z
" id="DejaVuSans-116"/>
     <path d="M 34.28125 27.484375 
Q 23.390625 27.484375 19.1875 25 
Q 14.984375 22.515625 14.984375 16.5 
Q 14.984375 11.71875 18.140625 8.90625 
Q 21.296875 6.109375 26.703125 6.109375 
Q 34.1875 6.109375 38.703125 11.40625 
Q 43.21875 16.703125 43.21875 25.484375 
L 43.21875 27.484375 
z
M 52.203125 31.203125 
L 52.203125 0 
L 43.21875 0 
L 43.21875 8.296875 
Q 40.140625 3.328125 35.546875 0.953125 
Q 30.953125 -1.421875 24.3125 -1.421875 
Q 15.921875 -1.421875 10.953125 3.296875 
Q 6 8.015625 6 15.921875 
Q 6 25.140625 12.171875 29.828125 
Q 18.359375 34.515625 30.609375 34.515625 
L 43.21875 34.515625 
L 43.21875 35.40625 
Q 43.21875 41.609375 39.140625 45 
Q 35.0625 48.390625 27.6875 48.390625 
Q 23 48.390625 18.546875 47.265625 
Q 14.109375 46.140625 10.015625 43.890625 
L 10.015625 52.203125 
Q 14.9375 54.109375 19.578125 55.046875 
Q 24.21875 56 28.609375 56 
Q 40.484375 56 46.34375 49.84375 
Q 52.203125 43.703125 52.203125 31.203125 
z
" id="DejaVuSans-97"/>
     <path d="M 46 62.703125 
L 46 35.5 
L 73.1875 35.5 
L 73.1875 27.203125 
L 46 27.203125 
L 46 0 
L 37.796875 0 
L 37.796875 27.203125 
L 10.59375 27.203125 
L 10.59375 35.5 
L 37.796875 35.5 
L 37.796875 62.703125 
z
" id="DejaVuSans-43"/>
     <path d="M 37.109375 75.984375 
L 37.109375 68.5 
L 28.515625 68.5 
Q 23.6875 68.5 21.796875 66.546875 
Q 19.921875 64.59375 19.921875 59.515625 
L 19.921875 54.6875 
L 34.71875 54.6875 
L 34.71875 47.703125 
L 19.921875 47.703125 
L 19.921875 0 
L 10.890625 0 
L 10.890625 47.703125 
L 2.296875 47.703125 
L 2.296875 54.6875 
L 10.890625 54.6875 
L 10.890625 58.5 
Q 10.890625 67.625 15.140625 71.796875 
Q 19.390625 75.984375 28.609375 75.984375 
z
" id="DejaVuSans-102"/>
     <path d="M 41.109375 46.296875 
Q 39.59375 47.171875 37.8125 47.578125 
Q 36.03125 48 33.890625 48 
Q 26.265625 48 22.1875 43.046875 
Q 18.109375 38.09375 18.109375 28.8125 
L 18.109375 0 
L 9.078125 0 
L 9.078125 54.6875 
L 18.109375 54.6875 
L 18.109375 46.1875 
Q 20.953125 51.171875 25.484375 53.578125 
Q 30.03125 56 36.53125 56 
Q 37.453125 56 38.578125 55.875 
Q 39.703125 55.765625 41.0625 55.515625 
z
" id="DejaVuSans-114"/>
     <path d="M 10.984375 1.515625 
L 10.984375 10.5 
Q 14.703125 8.734375 18.5 7.8125 
Q 22.3125 6.890625 25.984375 6.890625 
Q 35.75 6.890625 40.890625 13.453125 
Q 46.046875 20.015625 46.78125 33.40625 
Q 43.953125 29.203125 39.59375 26.953125 
Q 35.25 24.703125 29.984375 24.703125 
Q 19.046875 24.703125 12.671875 31.3125 
Q 6.296875 37.9375 6.296875 49.421875 
Q 6.296875 60.640625 12.9375 67.421875 
Q 19.578125 74.21875 30.609375 74.21875 
Q 43.265625 74.21875 49.921875 64.515625 
Q 56.59375 54.828125 56.59375 36.375 
Q 56.59375 19.140625 48.40625 8.859375 
Q 40.234375 -1.421875 26.421875 -1.421875 
Q 22.703125 -1.421875 18.890625 -0.6875 
Q 15.09375 0.046875 10.984375 1.515625 
z
M 30.609375 32.421875 
Q 37.25 32.421875 41.125 36.953125 
Q 45.015625 41.5 45.015625 49.421875 
Q 45.015625 57.28125 41.125 61.84375 
Q 37.25 66.40625 30.609375 66.40625 
Q 23.96875 66.40625 20.09375 61.84375 
Q 16.21875 57.28125 16.21875 49.421875 
Q 16.21875 41.5 20.09375 36.953125 
Q 23.96875 32.421875 30.609375 32.421875 
z
" id="DejaVuSans-57"/>
    </defs>
    <g transform="translate(73.941307 295.488)scale(0.1 -0.1)">
     <use xlink:href="#DejaVuSans-109"/>
     <use x="97.412109" xlink:href="#DejaVuSans-105"/>
     <use x="125.195312" xlink:href="#DejaVuSans-110"/>
     <use x="188.574219" xlink:href="#DejaVuSans-32"/>
     <use x="220.361328" xlink:href="#DejaVuSans-32"/>
     <use x="252.148438" xlink:href="#DejaVuSans-61"/>
     <use x="335.9375" xlink:href="#DejaVuSans-32"/>
     <use x="367.724609" xlink:href="#DejaVuSans-48"/>
     <use x="431.347656" xlink:href="#DejaVuSans-46"/>
     <use x="463.134766" xlink:href="#DejaVuSans-49"/>
     <use x="526.757812" xlink:href="#DejaVuSans-48"/>
     <use x="590.380859" xlink:href="#DejaVuSans-50"/>
     <use x="654.003906" xlink:href="#DejaVuSans-54"/>
     <use x="717.626953" xlink:href="#DejaVuSans-53"/>
     <use x="781.25" xlink:href="#DejaVuSans-48"/>
     <use x="844.873047" xlink:href="#DejaVuSans-51"/>
     <use x="908.496094" xlink:href="#DejaVuSans-52"/>
     <use x="972.119141" xlink:href="#DejaVuSans-50"/>
     <use x="1035.742188" xlink:href="#DejaVuSans-50"/>
     <use x="1099.365234" xlink:href="#DejaVuSans-50"/>
     <use x="1162.988281" xlink:href="#DejaVuSans-53"/>
     <use x="1226.611328" xlink:href="#DejaVuSans-51"/>
     <use x="1290.234375" xlink:href="#DejaVuSans-52"/>
     <use x="1353.857422" xlink:href="#DejaVuSans-52"/>
     <use x="1417.480469" xlink:href="#DejaVuSans-54"/>
     <use x="1481.103516" xlink:href="#DejaVuSans-52"/>
     <use x="1544.726562" xlink:href="#DejaVuSans-37"/>
     <use x="1639.746094" xlink:href="#DejaVuSans-44"/>
     <use x="1671.533203" xlink:href="#DejaVuSans-32"/>
     <use x="1703.320312" xlink:href="#DejaVuSans-115"/>
     <use x="1755.419922" xlink:href="#DejaVuSans-101"/>
     <use x="1816.943359" xlink:href="#DejaVuSans-103"/>
     <use x="1880.419922" xlink:href="#DejaVuSans-109"/>
     <use x="1977.832031" xlink:href="#DejaVuSans-101"/>
     <use x="2039.355469" xlink:href="#DejaVuSans-110"/>
     <use x="2102.734375" xlink:href="#DejaVuSans-116"/>
     <use x="2141.943359" xlink:href="#DejaVuSans-97"/>
     <use x="2203.222656" xlink:href="#DejaVuSans-116"/>
     <use x="2242.431641" xlink:href="#DejaVuSans-105"/>
     <use x="2270.214844" xlink:href="#DejaVuSans-111"/>
     <use x="2331.396484" xlink:href="#DejaVuSans-110"/>
     <use x="2394.775391" xlink:href="#DejaVuSans-43"/>
     <use x="2478.564453" xlink:href="#DejaVuSans-109"/>
     <use x="2575.976562" xlink:href="#DejaVuSans-102"/>
     <use x="2611.181641" xlink:href="#DejaVuSans-99"/>
     <use x="2666.162109" xlink:href="#DejaVuSans-99"/>
     <use x="2721.142578" xlink:href="#DejaVuSans-43"/>
     <use x="2804.931641" xlink:href="#DejaVuSans-102"/>
     <use x="2840.136719" xlink:href="#DejaVuSans-114"/>
     <use x="2881.25" xlink:href="#DejaVuSans-97"/>
     <use x="2942.529297" xlink:href="#DejaVuSans-109"/>
     <use x="3039.941406" xlink:href="#DejaVuSans-101"/>
     <use x="3101.464844" xlink:href="#DejaVuSans-43"/>
     <use x="3185.253906" xlink:href="#DejaVuSans-115"/>
     <use x="3237.353516" xlink:href="#DejaVuSans-99"/>
     <use x="3292.333984" xlink:href="#DejaVuSans-111"/>
     <use x="3353.515625" xlink:href="#DejaVuSans-114"/>
     <use x="3392.378906" xlink:href="#DejaVuSans-101"/>
     <use x="3453.902344" xlink:href="#DejaVuSans-44"/>
     <use x="3485.689453" xlink:href="#DejaVuSans-32"/>
     <use x="3517.476562" xlink:href="#DejaVuSans-50"/>
     <use x="3581.099609" xlink:href="#DejaVuSans-57"/>
     <use x="3644.722656" xlink:href="#DejaVuSans-51"/>
     <use x="3708.345703" xlink:href="#DejaVuSans-101"/>
     <use x="3769.869141" xlink:href="#DejaVuSans-112"/>
     <use x="3833.345703" xlink:href="#DejaVuSans-111"/>
     <use x="3894.527344" xlink:href="#DejaVuSans-99"/>
     <use x="3949.507812" xlink:href="#DejaVuSans-104"/>
    </g>
   </g>
   <g id="text_18">
    <!-- binary train loss of meguta -->
    <defs>
     <path d="M 48.6875 27.296875 
Q 48.6875 37.203125 44.609375 42.84375 
Q 40.53125 48.484375 33.40625 48.484375 
Q 26.265625 48.484375 22.1875 42.84375 
Q 18.109375 37.203125 18.109375 27.296875 
Q 18.109375 17.390625 22.1875 11.75 
Q 26.265625 6.109375 33.40625 6.109375 
Q 40.53125 6.109375 44.609375 11.75 
Q 48.6875 17.390625 48.6875 27.296875 
z
M 18.109375 46.390625 
Q 20.953125 51.265625 25.265625 53.625 
Q 29.59375 56 35.59375 56 
Q 45.5625 56 51.78125 48.09375 
Q 58.015625 40.1875 58.015625 27.296875 
Q 58.015625 14.40625 51.78125 6.484375 
Q 45.5625 -1.421875 35.59375 -1.421875 
Q 29.59375 -1.421875 25.265625 0.953125 
Q 20.953125 3.328125 18.109375 8.203125 
L 18.109375 0 
L 9.078125 0 
L 9.078125 75.984375 
L 18.109375 75.984375 
z
" id="DejaVuSans-98"/>
     <path d="M 32.171875 -5.078125 
Q 28.375 -14.84375 24.75 -17.8125 
Q 21.140625 -20.796875 15.09375 -20.796875 
L 7.90625 -20.796875 
L 7.90625 -13.28125 
L 13.1875 -13.28125 
Q 16.890625 -13.28125 18.9375 -11.515625 
Q 21 -9.765625 23.484375 -3.21875 
L 25.09375 0.875 
L 2.984375 54.6875 
L 12.5 54.6875 
L 29.59375 11.921875 
L 46.6875 54.6875 
L 56.203125 54.6875 
z
" id="DejaVuSans-121"/>
     <path d="M 9.421875 75.984375 
L 18.40625 75.984375 
L 18.40625 0 
L 9.421875 0 
z
" id="DejaVuSans-108"/>
     <path d="M 8.5 21.578125 
L 8.5 54.6875 
L 17.484375 54.6875 
L 17.484375 21.921875 
Q 17.484375 14.15625 20.5 10.265625 
Q 23.53125 6.390625 29.59375 6.390625 
Q 36.859375 6.390625 41.078125 11.03125 
Q 45.3125 15.671875 45.3125 23.6875 
L 45.3125 54.6875 
L 54.296875 54.6875 
L 54.296875 0 
L 45.3125 0 
L 45.3125 8.40625 
Q 42.046875 3.421875 37.71875 1 
Q 33.40625 -1.421875 27.6875 -1.421875 
Q 18.265625 -1.421875 13.375 4.4375 
Q 8.5 10.296875 8.5 21.578125 
z
M 31.109375 56 
z
" id="DejaVuSans-117"/>
    </defs>
    <g transform="translate(100.967812 35.472)scale(0.2 -0.2)">
     <use xlink:href="#DejaVuSans-98"/>
     <use x="63.476562" xlink:href="#DejaVuSans-105"/>
     <use x="91.259766" xlink:href="#DejaVuSans-110"/>
     <use x="154.638672" xlink:href="#DejaVuSans-97"/>
     <use x="215.917969" xlink:href="#DejaVuSans-114"/>
     <use x="257.03125" xlink:href="#DejaVuSans-121"/>
     <use x="316.210938" xlink:href="#DejaVuSans-32"/>
     <use x="347.998047" xlink:href="#DejaVuSans-116"/>
     <use x="387.207031" xlink:href="#DejaVuSans-114"/>
     <use x="428.320312" xlink:href="#DejaVuSans-97"/>
     <use x="489.599609" xlink:href="#DejaVuSans-105"/>
     <use x="517.382812" xlink:href="#DejaVuSans-110"/>
     <use x="580.761719" xlink:href="#DejaVuSans-32"/>
     <use x="612.548828" xlink:href="#DejaVuSans-108"/>
     <use x="640.332031" xlink:href="#DejaVuSans-111"/>
     <use x="701.513672" xlink:href="#DejaVuSans-115"/>
     <use x="753.613281" xlink:href="#DejaVuSans-115"/>
     <use x="805.712891" xlink:href="#DejaVuSans-32"/>
     <use x="837.5" xlink:href="#DejaVuSans-111"/>
     <use x="898.681641" xlink:href="#DejaVuSans-102"/>
     <use x="933.886719" xlink:href="#DejaVuSans-32"/>
     <use x="965.673828" xlink:href="#DejaVuSans-109"/>
     <use x="1063.085938" xlink:href="#DejaVuSans-101"/>
     <use x="1124.609375" xlink:href="#DejaVuSans-103"/>
     <use x="1188.085938" xlink:href="#DejaVuSans-117"/>
     <use x="1251.464844" xlink:href="#DejaVuSans-116"/>
     <use x="1290.673828" xlink:href="#DejaVuSans-97"/>
    </g>
   </g>
   <g id="legend_1">
    <g id="patch_7">
     <path d="M 200.659062 64.150125 
L 407.72 64.150125 
Q 409.72 64.150125 409.72 62.150125 
L 409.72 48.472 
Q 409.72 46.472 407.72 46.472 
L 200.659062 46.472 
Q 198.659062 46.472 198.659062 48.472 
L 198.659062 62.150125 
Q 198.659062 64.150125 200.659062 64.150125 
z
" style="fill:#e5e5e5;opacity:0.8;stroke:#cccccc;stroke-linejoin:miter;stroke-width:0.5;"/>
    </g>
    <g id="line2d_30">
     <path d="M 202.659062 54.570438 
L 222.659062 54.570438 
" style="fill:none;stroke:#e24a33;stroke-linecap:square;stroke-width:3;"/>
    </g>
    <g id="line2d_31"/>
    <g id="text_19">
     <!-- segmentation+mfcc+frame+score -->
     <g transform="translate(230.659062 58.070438)scale(0.1 -0.1)">
      <use xlink:href="#DejaVuSans-115"/>
      <use x="52.099609" xlink:href="#DejaVuSans-101"/>
      <use x="113.623047" xlink:href="#DejaVuSans-103"/>
      <use x="177.099609" xlink:href="#DejaVuSans-109"/>
      <use x="274.511719" xlink:href="#DejaVuSans-101"/>
      <use x="336.035156" xlink:href="#DejaVuSans-110"/>
      <use x="399.414062" xlink:href="#DejaVuSans-116"/>
      <use x="438.623047" xlink:href="#DejaVuSans-97"/>
      <use x="499.902344" xlink:href="#DejaVuSans-116"/>
      <use x="539.111328" xlink:href="#DejaVuSans-105"/>
      <use x="566.894531" xlink:href="#DejaVuSans-111"/>
      <use x="628.076172" xlink:href="#DejaVuSans-110"/>
      <use x="691.455078" xlink:href="#DejaVuSans-43"/>
      <use x="775.244141" xlink:href="#DejaVuSans-109"/>
      <use x="872.65625" xlink:href="#DejaVuSans-102"/>
      <use x="907.861328" xlink:href="#DejaVuSans-99"/>
      <use x="962.841797" xlink:href="#DejaVuSans-99"/>
      <use x="1017.822266" xlink:href="#DejaVuSans-43"/>
      <use x="1101.611328" xlink:href="#DejaVuSans-102"/>
      <use x="1136.816406" xlink:href="#DejaVuSans-114"/>
      <use x="1177.929688" xlink:href="#DejaVuSans-97"/>
      <use x="1239.208984" xlink:href="#DejaVuSans-109"/>
      <use x="1336.621094" xlink:href="#DejaVuSans-101"/>
      <use x="1398.144531" xlink:href="#DejaVuSans-43"/>
      <use x="1481.933594" xlink:href="#DejaVuSans-115"/>
      <use x="1534.033203" xlink:href="#DejaVuSans-99"/>
      <use x="1589.013672" xlink:href="#DejaVuSans-111"/>
      <use x="1650.195312" xlink:href="#DejaVuSans-114"/>
      <use x="1689.058594" xlink:href="#DejaVuSans-101"/>
     </g>
    </g>
   </g>
  </g>
 </g>
 <defs>
  <clipPath id="p82eddbdb18">
   <rect height="266.112" width="357.12" x="57.6" y="41.472"/>
  </clipPath>
 </defs>
</svg>
